{"glyphs":{"0":{"ha":833,"x_min":0,"x_max":0,"o":"m 417 -22 b 67 492 199 -22 67 175 b 417 1008 67 810 199 1008 b 767 492 635 1008 767 810 b 417 -22 767 175 635 -22 m 218 492 b 244 281 218 410 226 338 l 533 815 b 417 872 503 853 463 872 b 218 492 293 872 218 732 m 417 114 b 615 492 540 114 615 254 b 589 704 615 575 607 647 l 299 171 b 417 114 331 133 371 114 "},"1":{"ha":833,"x_min":0,"x_max":0,"o":"m 78 138 l 379 138 l 379 703 l 126 703 l 126 826 l 251 826 b 403 986 360 826 403 869 l 525 986 l 525 138 l 756 138 l 756 0 l 78 0 "},"2":{"ha":833,"x_min":0,"x_max":0,"o":"m 67 0 b 438 510 67 219 149 357 b 614 714 561 575 614 618 b 439 872 614 808 554 872 b 224 679 313 872 243 803 l 72 689 b 439 1008 93 885 221 1008 b 765 719 649 1008 765 892 b 497 383 765 567 699 492 b 240 138 326 292 246 204 l 767 138 l 767 0 l 67 0 "},"3":{"ha":833,"x_min":0,"x_max":0,"o":"m 408 -22 b 67 260 190 -22 75 92 l 215 269 b 410 114 226 157 304 114 b 615 281 519 114 615 160 b 411 456 615 399 531 456 l 335 456 l 335 586 l 411 586 b 582 728 506 586 582 625 b 414 872 582 824 522 872 b 236 742 303 872 247 824 l 86 751 b 415 1008 106 906 219 1008 b 733 740 610 1008 733 907 b 567 529 733 635 676 564 b 767 276 692 496 767 403 b 408 -22 767 88 619 -22 "},"4":{"ha":833,"x_min":0,"x_max":0,"o":"m 519 208 l 50 208 l 50 335 l 504 986 l 665 986 l 665 343 l 783 343 l 783 208 l 665 208 l 665 0 l 519 0 m 519 343 l 519 792 l 193 343 "},"5":{"ha":833,"x_min":0,"x_max":0,"o":"m 414 -22 b 78 257 217 -22 92 94 l 229 267 b 414 114 242 165 310 114 b 604 319 531 114 604 189 b 417 526 604 449 533 526 b 247 425 344 526 275 488 l 93 428 l 157 986 l 700 986 l 700 849 l 283 849 l 251 581 b 439 656 300 631 371 656 b 756 318 631 656 756 514 b 414 -22 756 118 615 -22 "},"6":{"ha":833,"x_min":0,"x_max":0,"o":"m 419 -22 b 64 419 192 -22 64 136 b 457 1008 64 746 167 1008 b 768 771 639 1008 731 910 l 618 758 b 457 872 599 826 554 872 b 217 558 324 872 236 772 b 447 664 264 619 344 664 b 769 331 643 664 769 532 b 419 -22 769 113 628 -22 m 419 115 b 618 328 540 115 618 193 b 431 532 618 453 546 532 b 218 328 307 532 218 453 b 419 115 218 206 296 115 "},"7":{"ha":833,"x_min":0,"x_max":0,"o":"m 256 0 b 600 849 256 303 386 601 l 81 849 l 81 986 l 753 986 l 753 858 b 410 0 511 583 410 335 l 256 0 "},"8":{"ha":833,"x_min":0,"x_max":0,"o":"m 417 -22 b 64 271 214 -22 64 79 b 257 531 64 399 138 489 b 108 738 167 565 108 633 b 417 1008 108 893 235 1008 b 725 738 599 1008 725 893 b 576 531 725 633 667 565 b 769 271 696 489 769 399 b 417 -22 769 79 619 -22 m 417 589 b 574 733 511 589 574 636 b 417 872 574 819 513 872 b 260 733 321 872 260 819 b 417 589 260 636 322 589 m 417 114 b 618 282 532 114 618 165 b 417 458 618 389 549 458 b 215 282 285 458 215 389 b 417 114 215 165 301 114 "},"9":{"ha":833,"x_min":0,"x_max":0,"o":"m 414 1008 b 769 567 642 1008 769 850 b 376 -22 769 240 667 -22 b 65 215 194 -22 103 76 l 215 228 b 376 114 235 160 279 114 b 617 428 510 114 597 214 b 386 322 569 367 489 322 b 64 656 190 322 64 454 b 414 1008 64 874 206 1008 m 414 871 b 215 658 293 871 215 793 b 403 454 215 533 288 454 b 615 658 526 454 615 533 b 414 871 615 781 538 871 "},"A":{"ha":833,"x_min":0,"x_max":0,"o":"m 322 986 l 511 986 l 800 0 l 649 0 l 578 257 l 256 257 l 185 0 l 33 0 m 293 392 l 540 392 l 417 835 "},"Á":{"ha":833,"x_min":0,"x_max":0,"o":"m 443 1264 l 599 1264 l 474 1078 l 354 1078 m 322 986 l 511 986 l 800 0 l 649 0 l 578 257 l 256 257 l 185 0 l 33 0 m 293 392 l 540 392 l 417 835 "},"Ă":{"ha":833,"x_min":0,"x_max":0,"o":"m 417 1079 b 217 1267 300 1079 222 1153 l 308 1267 b 417 1175 317 1201 357 1175 b 525 1267 476 1175 517 1201 l 617 1267 b 417 1079 611 1153 533 1079 m 322 986 l 511 986 l 800 0 l 649 0 l 578 257 l 256 257 l 185 0 l 33 0 m 293 392 l 540 392 l 417 835 "},"Ǎ":{"ha":833,"x_min":0,"x_max":0,"o":"m 325 1268 l 417 1144 l 508 1268 l 619 1268 l 489 1075 l 344 1075 l 214 1268 m 322 986 l 511 986 l 800 0 l 649 0 l 578 257 l 256 257 l 185 0 l 33 0 m 293 392 l 540 392 l 417 835 "},"Â":{"ha":833,"x_min":0,"x_max":0,"o":"m 344 1268 l 488 1268 l 618 1075 l 508 1075 l 415 1199 l 324 1075 l 213 1075 m 322 986 l 511 986 l 800 0 l 649 0 l 578 257 l 256 257 l 185 0 l 33 0 m 293 392 l 540 392 l 417 835 "},"Ä":{"ha":833,"x_min":0,"x_max":0,"o":"m 208 1238 l 353 1238 l 353 1092 l 208 1092 m 481 1238 l 625 1238 l 625 1092 l 481 1092 m 322 986 l 511 986 l 800 0 l 649 0 l 578 257 l 256 257 l 185 0 l 33 0 m 293 392 l 540 392 l 417 835 "},"À":{"ha":833,"x_min":0,"x_max":0,"o":"m 239 1264 l 393 1264 l 483 1078 l 364 1078 m 322 986 l 511 986 l 800 0 l 649 0 l 578 257 l 256 257 l 185 0 l 33 0 m 293 392 l 540 392 l 417 835 "},"Ā":{"ha":833,"x_min":0,"x_max":0,"o":"m 225 1221 l 606 1221 l 606 1108 l 225 1108 m 322 986 l 511 986 l 800 0 l 649 0 l 578 257 l 256 257 l 185 0 l 33 0 m 293 392 l 540 392 l 417 835 "},"Ą":{"ha":833,"x_min":0,"x_max":0,"o":"m 322 986 l 511 986 l 800 0 l 753 -61 b 711 -151 718 -107 711 -129 b 751 -190 711 -178 726 -190 b 814 -171 771 -190 799 -183 l 849 -257 b 719 -294 825 -279 775 -294 b 588 -181 638 -294 588 -251 b 644 -40 588 -132 607 -89 l 678 0 l 649 0 l 578 257 l 256 257 l 185 0 l 33 0 m 293 392 l 540 392 l 417 835 "},"Å":{"ha":833,"x_min":0,"x_max":0,"o":"m 417 1047 b 283 1179 340 1047 283 1104 b 417 1311 283 1254 340 1311 b 550 1179 492 1311 550 1254 b 417 1047 550 1104 492 1047 m 417 1121 b 474 1179 450 1121 474 1146 b 417 1236 474 1213 450 1236 b 360 1179 383 1236 360 1213 b 417 1121 360 1146 383 1121 m 322 986 l 511 986 l 800 0 l 649 0 l 578 257 l 256 257 l 185 0 l 33 0 m 293 392 l 540 392 l 417 835 "},"Ã":{"ha":833,"x_min":0,"x_max":0,"o":"m 500 1090 b 401 1132 463 1090 432 1107 b 332 1165 371 1156 357 1165 b 274 1081 300 1165 276 1144 l 194 1081 b 329 1253 197 1197 251 1253 b 438 1210 375 1253 404 1236 b 504 1178 465 1188 483 1178 b 560 1267 538 1178 554 1200 l 639 1267 b 500 1090 635 1151 583 1090 m 322 986 l 511 986 l 800 0 l 649 0 l 578 257 l 256 257 l 185 0 l 33 0 m 293 392 l 540 392 l 417 835 "},"Æ":{"ha":833,"x_min":0,"x_max":0,"o":"m 303 986 l 799 986 l 799 849 l 575 849 l 575 561 l 783 561 l 783 428 l 575 428 l 575 138 l 808 138 l 808 0 l 433 0 l 433 257 l 239 257 l 164 0 l 13 0 m 278 392 l 433 392 l 433 853 l 410 853 "},"B":{"ha":833,"x_min":0,"x_max":0,"o":"m 115 986 l 401 986 b 733 718 619 986 733 888 b 550 508 733 611 665 529 b 775 274 696 490 775 401 b 435 0 775 100 649 0 l 115 0 m 404 568 b 582 708 526 568 582 619 b 404 850 582 800 526 850 l 261 850 l 261 568 m 436 136 b 624 281 563 136 624 190 b 436 433 624 376 558 433 l 261 433 l 261 136 "},"C":{"ha":833,"x_min":0,"x_max":0,"o":"m 421 -22 b 50 492 183 -22 50 175 b 421 1008 50 810 183 1008 b 769 671 600 1008 729 885 l 617 663 b 421 872 589 800 514 872 b 201 492 278 872 201 735 b 421 114 201 250 278 114 b 624 343 522 114 599 193 l 775 336 b 421 -22 740 111 610 -22 "},"Ć":{"ha":833,"x_min":0,"x_max":0,"o":"m 447 1264 l 601 1264 l 476 1078 l 357 1078 m 421 -22 b 50 492 183 -22 50 175 b 421 1008 50 810 183 1008 b 769 671 600 1008 729 885 l 617 663 b 421 872 589 800 514 872 b 201 492 278 872 201 735 b 421 114 201 250 278 114 b 624 343 522 114 599 193 l 775 336 b 421 -22 740 111 610 -22 "},"Č":{"ha":833,"x_min":0,"x_max":0,"o":"m 328 1268 l 421 1144 l 513 1268 l 624 1268 l 492 1075 l 349 1075 l 218 1268 m 421 -22 b 50 492 183 -22 50 175 b 421 1008 50 810 183 1008 b 769 671 600 1008 729 885 l 617 663 b 421 872 589 800 514 872 b 201 492 278 872 201 735 b 421 114 201 250 278 114 b 624 343 522 114 599 193 l 775 336 b 421 -22 740 111 610 -22 "},"Ç":{"ha":833,"x_min":0,"x_max":0,"o":"m 425 -311 b 257 -200 335 -311 279 -264 l 335 -169 b 422 -225 351 -208 376 -225 b 494 -172 467 -225 494 -206 b 393 -112 494 -137 478 -112 l 349 -67 l 378 -19 b 50 492 167 3 50 194 b 421 1008 50 810 183 1008 b 769 671 600 1008 729 885 l 617 663 b 421 872 589 800 514 872 b 201 492 278 872 201 735 b 421 114 201 250 278 114 b 624 343 522 114 599 193 l 775 336 b 475 -18 744 133 635 6 l 454 -47 b 588 -175 546 -53 588 -104 b 425 -311 588 -260 518 -311 "},"Ĉ":{"ha":833,"x_min":0,"x_max":0,"o":"m 347 1268 l 492 1268 l 622 1075 l 511 1075 l 419 1199 l 328 1075 l 217 1075 m 421 -22 b 50 492 183 -22 50 175 b 421 1008 50 810 183 1008 b 769 671 600 1008 729 885 l 617 663 b 421 872 589 800 514 872 b 201 492 278 872 201 735 b 421 114 201 250 278 114 b 624 343 522 114 599 193 l 775 336 b 421 -22 740 111 610 -22 "},"Ċ":{"ha":833,"x_min":0,"x_max":0,"o":"m 347 1239 l 492 1239 l 492 1093 l 347 1093 m 421 -22 b 50 492 183 -22 50 175 b 421 1008 50 810 183 1008 b 769 671 600 1008 729 885 l 617 663 b 421 872 589 800 514 872 b 201 492 278 872 201 735 b 421 114 201 250 278 114 b 624 343 522 114 599 193 l 775 336 b 421 -22 740 111 610 -22 "},"D":{"ha":833,"x_min":0,"x_max":0,"o":"m 115 986 l 356 986 b 783 492 618 986 783 808 b 356 0 783 175 618 0 l 115 0 m 351 138 b 632 492 529 138 632 256 b 351 849 632 729 529 849 l 261 849 l 261 138 "},"Ď":{"ha":833,"x_min":0,"x_max":0,"o":"m 325 1268 l 417 1144 l 508 1268 l 619 1268 l 489 1075 l 344 1075 l 214 1268 m 115 986 l 356 986 b 783 492 618 986 783 808 b 356 0 783 175 618 0 l 115 0 m 351 138 b 632 492 529 138 632 256 b 351 849 632 729 529 849 l 261 849 l 261 138 "},"Đ":{"ha":833,"x_min":0,"x_max":0,"o":"m 115 431 l 22 431 l 22 556 l 115 556 l 115 986 l 356 986 b 783 492 618 986 783 808 b 356 0 783 175 618 0 l 115 0 m 351 138 b 632 492 529 138 632 256 b 351 849 632 729 529 849 l 261 849 l 261 556 l 478 556 l 478 431 l 261 431 l 261 138 "},"Ð":{"ha":833,"x_min":0,"x_max":0,"o":"m 115 431 l 22 431 l 22 556 l 115 556 l 115 986 l 356 986 b 783 492 618 986 783 808 b 356 0 783 175 618 0 l 115 0 m 351 138 b 632 492 529 138 632 256 b 351 849 632 729 529 849 l 261 849 l 261 556 l 478 556 l 478 431 l 261 431 l 261 138 "},"E":{"ha":833,"x_min":0,"x_max":0,"o":"m 122 986 l 728 986 l 728 849 l 268 849 l 268 561 l 711 561 l 711 428 l 268 428 l 268 138 l 739 138 l 739 0 l 122 0 "},"É":{"ha":833,"x_min":0,"x_max":0,"o":"m 465 1265 l 621 1265 l 496 1079 l 376 1079 m 122 986 l 728 986 l 728 849 l 268 849 l 268 561 l 711 561 l 711 428 l 268 428 l 268 138 l 739 138 l 739 0 l 122 0 "},"Ě":{"ha":833,"x_min":0,"x_max":0,"o":"m 347 1269 l 439 1146 l 531 1269 l 642 1269 l 511 1076 l 367 1076 l 236 1269 m 122 986 l 728 986 l 728 849 l 268 849 l 268 561 l 711 561 l 711 428 l 268 428 l 268 138 l 739 138 l 739 0 l 122 0 "},"Ê":{"ha":833,"x_min":0,"x_max":0,"o":"m 367 1269 l 510 1269 l 640 1076 l 531 1076 l 438 1200 l 346 1076 l 235 1076 m 122 986 l 728 986 l 728 849 l 268 849 l 268 561 l 711 561 l 711 428 l 268 428 l 268 138 l 739 138 l 739 0 l 122 0 "},"Ë":{"ha":833,"x_min":0,"x_max":0,"o":"m 231 1239 l 375 1239 l 375 1093 l 231 1093 m 503 1239 l 647 1239 l 647 1093 l 503 1093 m 122 986 l 728 986 l 728 849 l 268 849 l 268 561 l 711 561 l 711 428 l 268 428 l 268 138 l 739 138 l 739 0 l 122 0 "},"Ė":{"ha":833,"x_min":0,"x_max":0,"o":"m 365 1240 l 510 1240 l 510 1094 l 365 1094 m 122 986 l 728 986 l 728 849 l 268 849 l 268 561 l 711 561 l 711 428 l 268 428 l 268 138 l 739 138 l 739 0 l 122 0 "},"È":{"ha":833,"x_min":0,"x_max":0,"o":"m 261 1265 l 415 1265 l 506 1079 l 386 1079 m 122 986 l 728 986 l 728 849 l 268 849 l 268 561 l 711 561 l 711 428 l 268 428 l 268 138 l 739 138 l 739 0 l 122 0 "},"Ē":{"ha":833,"x_min":0,"x_max":0,"o":"m 247 1222 l 628 1222 l 628 1110 l 247 1110 m 122 986 l 728 986 l 728 849 l 268 849 l 268 561 l 711 561 l 711 428 l 268 428 l 268 138 l 739 138 l 739 0 l 122 0 "},"Ę":{"ha":833,"x_min":0,"x_max":0,"o":"m 122 986 l 728 986 l 728 849 l 268 849 l 268 561 l 711 561 l 711 428 l 268 428 l 268 138 l 739 138 l 739 0 l 692 -61 b 649 -151 657 -107 649 -129 b 689 -190 649 -178 664 -190 b 753 -171 710 -190 736 -183 l 786 -257 b 657 -294 763 -279 714 -294 b 526 -181 576 -294 526 -251 b 583 -40 526 -132 544 -89 l 615 0 l 122 0 "},"Ẽ":{"ha":833,"x_min":0,"x_max":0,"o":"m 522 1092 b 424 1133 485 1092 454 1108 b 354 1167 393 1157 379 1167 b 296 1082 322 1167 299 1146 l 217 1082 b 351 1254 219 1199 274 1254 b 460 1211 397 1254 426 1238 b 526 1179 488 1189 506 1179 b 582 1268 560 1179 576 1201 l 661 1268 b 522 1092 657 1153 606 1092 m 122 986 l 728 986 l 728 849 l 268 849 l 268 561 l 711 561 l 711 428 l 268 428 l 268 138 l 739 138 l 739 0 l 122 0 "},"Ə":{"ha":833,"x_min":0,"x_max":0,"o":"m 426 -22 b 50 475 188 -22 50 175 l 50 549 l 643 549 b 418 872 643 738 560 872 b 222 678 314 872 250 794 l 67 693 b 413 1008 121 889 244 1008 b 794 493 654 1008 794 822 b 426 -22 794 175 643 -22 m 426 114 b 642 415 558 114 642 228 l 206 415 b 426 114 206 225 290 114 "},"F":{"ha":833,"x_min":0,"x_max":0,"o":"m 136 986 l 753 986 l 753 851 l 282 851 l 282 549 l 728 549 l 728 415 l 282 415 l 282 0 l 136 0 "},"G":{"ha":833,"x_min":0,"x_max":0,"o":"m 415 -22 b 50 492 203 -22 50 157 b 419 1008 50 810 188 1008 b 771 682 606 1008 728 879 l 619 672 b 421 871 592 793 526 871 b 201 492 281 871 201 735 b 428 115 201 250 283 115 b 638 376 554 115 632 219 l 421 376 l 421 503 l 772 503 l 772 0 l 654 0 l 650 126 b 415 -22 607 38 532 -22 "},"Ğ":{"ha":833,"x_min":0,"x_max":0,"o":"m 417 1079 b 217 1267 300 1079 222 1153 l 308 1267 b 417 1175 317 1201 357 1175 b 525 1267 478 1175 518 1201 l 617 1267 b 417 1079 611 1153 533 1079 m 415 -22 b 50 492 203 -22 50 157 b 419 1008 50 810 188 1008 b 771 682 606 1008 728 879 l 619 672 b 421 871 592 793 526 871 b 201 492 281 871 201 735 b 428 115 201 250 283 115 b 638 376 554 115 632 219 l 421 376 l 421 503 l 772 503 l 772 0 l 654 0 l 650 126 b 415 -22 607 38 532 -22 "},"Ǧ":{"ha":833,"x_min":0,"x_max":0,"o":"m 325 1268 l 417 1144 l 510 1268 l 619 1268 l 489 1075 l 346 1075 l 214 1268 m 415 -22 b 50 492 203 -22 50 157 b 419 1008 50 810 188 1008 b 771 682 606 1008 728 879 l 619 672 b 421 871 592 793 526 871 b 201 492 281 871 201 735 b 428 115 201 250 283 115 b 638 376 554 115 632 219 l 421 376 l 421 503 l 772 503 l 772 0 l 654 0 l 650 126 b 415 -22 607 38 532 -22 "},"Ĝ":{"ha":833,"x_min":0,"x_max":0,"o":"m 344 1268 l 488 1268 l 619 1075 l 508 1075 l 417 1199 l 324 1075 l 214 1075 m 415 -22 b 50 492 203 -22 50 157 b 419 1008 50 810 188 1008 b 771 682 606 1008 728 879 l 619 672 b 421 871 592 793 526 871 b 201 492 281 871 201 735 b 428 115 201 250 283 115 b 638 376 554 115 632 219 l 421 376 l 421 503 l 772 503 l 772 0 l 654 0 l 650 126 b 415 -22 607 38 532 -22 "},"Ģ":{"ha":833,"x_min":0,"x_max":0,"o":"m 415 -22 b 50 492 203 -22 50 157 b 419 1008 50 810 188 1008 b 771 682 606 1008 728 879 l 619 672 b 421 871 592 793 526 871 b 201 492 281 871 201 735 b 428 115 201 250 283 115 b 638 376 554 115 632 219 l 421 376 l 421 503 l 772 503 l 772 0 l 654 0 l 650 126 b 415 -22 607 38 532 -22 m 392 -208 l 342 -208 l 342 -72 l 493 -72 l 493 -200 l 400 -339 l 314 -339 "},"Ġ":{"ha":833,"x_min":0,"x_max":0,"o":"m 343 1239 l 489 1239 l 489 1093 l 343 1093 m 415 -22 b 50 492 203 -22 50 157 b 419 1008 50 810 188 1008 b 771 682 606 1008 728 879 l 619 672 b 421 871 592 793 526 871 b 201 492 281 871 201 735 b 428 115 201 250 283 115 b 638 376 554 115 632 219 l 421 376 l 421 503 l 772 503 l 772 0 l 654 0 l 650 126 b 415 -22 607 38 532 -22 "},"Ḡ":{"ha":833,"x_min":0,"x_max":0,"o":"m 225 1221 l 607 1221 l 607 1108 l 225 1108 m 415 -22 b 50 492 203 -22 50 157 b 419 1008 50 810 188 1008 b 771 682 606 1008 728 879 l 619 672 b 421 871 592 793 526 871 b 201 492 281 871 201 735 b 428 115 201 250 283 115 b 638 376 554 115 632 219 l 421 376 l 421 503 l 772 503 l 772 0 l 654 0 l 650 126 b 415 -22 607 38 532 -22 "},"Ǥ":{"ha":833,"x_min":0,"x_max":0,"o":"m 415 -22 b 26 492 181 -22 26 174 b 413 1008 26 806 175 1008 b 769 682 615 1008 728 875 l 618 672 b 414 872 590 792 532 872 b 178 492 264 872 178 724 b 415 115 178 261 261 115 b 600 217 501 115 564 147 l 421 217 l 421 314 l 631 314 b 635 389 633 338 635 361 l 421 389 l 421 503 l 776 503 l 776 433 b 769 314 776 390 774 351 l 815 314 l 815 217 l 747 217 b 415 -22 697 56 583 -22 "},"H":{"ha":833,"x_min":0,"x_max":0,"o":"m 78 986 l 224 986 l 224 564 l 610 564 l 610 986 l 756 986 l 756 0 l 610 0 l 610 428 l 224 428 l 224 0 l 78 0 "},"Ħ":{"ha":833,"x_min":0,"x_max":0,"o":"m 78 729 l 25 729 l 25 856 l 78 856 l 78 986 l 224 986 l 224 856 l 610 856 l 610 986 l 756 986 l 756 856 l 808 856 l 808 729 l 756 729 l 756 0 l 610 0 l 610 428 l 224 428 l 224 0 l 78 0 m 610 564 l 610 729 l 224 729 l 224 564 "},"Ĥ":{"ha":833,"x_min":0,"x_max":0,"o":"m 344 1268 l 488 1268 l 618 1075 l 508 1075 l 415 1199 l 324 1075 l 213 1075 m 78 986 l 224 986 l 224 564 l 610 564 l 610 986 l 756 986 l 756 0 l 610 0 l 610 428 l 224 428 l 224 0 l 78 0 "},"I":{"ha":833,"x_min":0,"x_max":0,"o":"m 108 138 l 344 138 l 344 849 l 108 849 l 108 986 l 725 986 l 725 849 l 489 849 l 489 138 l 725 138 l 725 0 l 108 0 "},"Í":{"ha":833,"x_min":0,"x_max":0,"o":"m 443 1264 l 599 1264 l 474 1078 l 354 1078 m 108 138 l 344 138 l 344 849 l 108 849 l 108 986 l 725 986 l 725 849 l 489 849 l 489 138 l 725 138 l 725 0 l 108 0 "},"Î":{"ha":833,"x_min":0,"x_max":0,"o":"m 344 1268 l 488 1268 l 618 1075 l 508 1075 l 415 1199 l 324 1075 l 213 1075 m 108 138 l 344 138 l 344 849 l 108 849 l 108 986 l 725 986 l 725 849 l 489 849 l 489 138 l 725 138 l 725 0 l 108 0 "},"Ï":{"ha":833,"x_min":0,"x_max":0,"o":"m 208 1238 l 353 1238 l 353 1092 l 208 1092 m 481 1238 l 625 1238 l 625 1092 l 481 1092 m 108 138 l 344 138 l 344 849 l 108 849 l 108 986 l 725 986 l 725 849 l 489 849 l 489 138 l 725 138 l 725 0 l 108 0 "},"İ":{"ha":833,"x_min":0,"x_max":0,"o":"m 343 1239 l 488 1239 l 488 1093 l 343 1093 m 108 138 l 344 138 l 344 849 l 108 849 l 108 986 l 725 986 l 725 849 l 489 849 l 489 138 l 725 138 l 725 0 l 108 0 "},"Ì":{"ha":833,"x_min":0,"x_max":0,"o":"m 239 1264 l 393 1264 l 483 1078 l 364 1078 m 108 138 l 344 138 l 344 849 l 108 849 l 108 986 l 725 986 l 725 849 l 489 849 l 489 138 l 725 138 l 725 0 l 108 0 "},"Ī":{"ha":833,"x_min":0,"x_max":0,"o":"m 225 1221 l 606 1221 l 606 1108 l 225 1108 m 108 138 l 344 138 l 344 849 l 108 849 l 108 986 l 725 986 l 725 849 l 489 849 l 489 138 l 725 138 l 725 0 l 108 0 "},"Į":{"ha":833,"x_min":0,"x_max":0,"o":"m 108 138 l 344 138 l 344 849 l 108 849 l 108 986 l 725 986 l 725 849 l 489 849 l 489 138 l 725 138 l 725 0 l 678 -61 b 635 -151 643 -107 635 -129 b 675 -190 635 -178 650 -190 b 739 -171 696 -190 722 -183 l 772 -257 b 643 -294 749 -279 700 -294 b 513 -181 563 -294 513 -251 b 569 -40 513 -132 531 -89 l 601 0 l 108 0 "},"Ĩ":{"ha":833,"x_min":0,"x_max":0,"o":"m 500 1090 b 401 1132 463 1090 432 1107 b 332 1165 371 1156 357 1165 b 274 1081 300 1165 276 1144 l 194 1081 b 329 1253 197 1197 251 1253 b 438 1210 375 1253 404 1236 b 504 1178 465 1188 483 1178 b 560 1267 538 1178 554 1200 l 639 1267 b 500 1090 635 1151 583 1090 m 108 138 l 344 138 l 344 849 l 108 849 l 108 986 l 725 986 l 725 849 l 489 849 l 489 138 l 725 138 l 725 0 l 108 0 "},"J":{"ha":833,"x_min":0,"x_max":0,"o":"m 382 -22 b 53 329 183 -22 58 113 l 197 340 b 383 114 201 186 260 114 b 565 335 506 114 565 186 l 565 986 l 711 986 l 711 335 b 382 -22 711 113 588 -22 "},"Ĵ":{"ha":833,"x_min":0,"x_max":0,"o":"m 568 1268 l 711 1268 l 842 1075 l 732 1075 l 639 1199 l 547 1075 l 436 1075 m 382 -22 b 53 329 183 -22 58 113 l 197 340 b 383 114 201 186 260 114 b 565 335 506 114 565 186 l 565 986 l 711 986 l 711 335 b 382 -22 711 113 588 -22 "},"K":{"ha":833,"x_min":0,"x_max":0,"o":"m 78 986 l 224 986 l 224 522 l 593 986 l 769 986 l 417 553 l 781 0 l 610 0 l 325 440 l 224 315 l 224 0 l 78 0 "},"Ǩ":{"ha":833,"x_min":0,"x_max":0,"o":"m 292 1268 l 383 1144 l 476 1268 l 586 1268 l 456 1075 l 313 1075 l 181 1268 m 78 986 l 224 986 l 224 522 l 593 986 l 769 986 l 417 553 l 781 0 l 610 0 l 325 440 l 224 315 l 224 0 l 78 0 "},"Ķ":{"ha":833,"x_min":0,"x_max":0,"o":"m 78 986 l 224 986 l 224 522 l 593 986 l 769 986 l 417 553 l 781 0 l 610 0 l 325 440 l 224 315 l 224 0 l 78 0 m 368 -208 l 318 -208 l 318 -72 l 469 -72 l 469 -200 l 376 -339 l 290 -339 "},"L":{"ha":833,"x_min":0,"x_max":0,"o":"m 136 986 l 282 986 l 282 138 l 753 138 l 753 0 l 136 0 "},"Ĺ":{"ha":833,"x_min":0,"x_max":0,"o":"m 233 1264 l 388 1264 l 263 1078 l 143 1078 m 136 986 l 282 986 l 282 138 l 753 138 l 753 0 l 136 0 "},"Ľ":{"ha":833,"x_min":0,"x_max":0,"o":"m 136 986 l 282 986 l 282 138 l 753 138 l 753 0 l 136 0 m 542 986 l 676 986 l 599 618 l 499 618 "},"Ļ":{"ha":833,"x_min":0,"x_max":0,"o":"m 136 986 l 282 986 l 282 138 l 753 138 l 753 0 l 136 0 m 421 -208 l 369 -208 l 369 -72 l 521 -72 l 521 -200 l 429 -339 l 343 -339 "},"Ł":{"ha":833,"x_min":0,"x_max":0,"o":"m 136 406 l 36 354 l 36 472 l 136 524 l 136 986 l 282 986 l 282 597 l 486 700 l 486 583 l 282 479 l 282 138 l 753 138 l 753 0 l 136 0 "},"M":{"ha":833,"x_min":0,"x_max":0,"o":"m 207 761 l 207 0 l 67 0 l 67 986 l 261 986 l 417 349 l 572 986 l 767 986 l 767 0 l 626 0 l 626 761 l 472 119 l 361 119 "},"N":{"ha":833,"x_min":0,"x_max":0,"o":"m 94 986 l 272 986 l 596 207 l 596 986 l 739 986 l 739 0 l 561 0 l 238 779 l 238 0 l 94 0 "},"Ń":{"ha":833,"x_min":0,"x_max":0,"o":"m 443 1264 l 599 1264 l 474 1078 l 354 1078 m 94 986 l 272 986 l 596 207 l 596 986 l 739 986 l 739 0 l 561 0 l 238 779 l 238 0 l 94 0 "},"Ň":{"ha":833,"x_min":0,"x_max":0,"o":"m 325 1268 l 417 1144 l 508 1268 l 619 1268 l 489 1075 l 344 1075 l 214 1268 m 94 986 l 272 986 l 596 207 l 596 986 l 739 986 l 739 0 l 561 0 l 238 779 l 238 0 l 94 0 "},"Ņ":{"ha":833,"x_min":0,"x_max":0,"o":"m 94 986 l 272 986 l 596 207 l 596 986 l 739 986 l 739 0 l 561 0 l 238 779 l 238 0 l 94 0 m 392 -208 l 340 -208 l 340 -72 l 493 -72 l 493 -200 l 400 -339 l 314 -339 "},"Ñ":{"ha":833,"x_min":0,"x_max":0,"o":"m 500 1090 b 401 1132 463 1090 432 1107 b 332 1165 371 1156 357 1165 b 274 1081 300 1165 276 1144 l 194 1081 b 329 1253 197 1197 251 1253 b 438 1210 375 1253 404 1236 b 504 1178 465 1188 483 1178 b 560 1267 538 1178 554 1200 l 639 1267 b 500 1090 635 1151 583 1090 m 94 986 l 272 986 l 596 207 l 596 986 l 739 986 l 739 0 l 561 0 l 238 779 l 238 0 l 94 0 "},"Ŋ":{"ha":833,"x_min":0,"x_max":0,"o":"m 94 986 l 272 986 l 596 207 l 596 986 l 739 986 l 739 -10 b 531 -208 739 -131 657 -208 l 386 -208 l 386 -79 l 524 -79 b 601 -8 575 -79 601 -56 l 601 0 l 561 0 l 238 779 l 238 0 l 94 0 "},"O":{"ha":833,"x_min":0,"x_max":0,"o":"m 417 -22 b 50 492 182 -22 50 163 b 417 1008 50 824 182 1008 b 783 492 651 1008 783 824 b 417 -22 783 163 651 -22 m 417 114 b 632 492 556 114 632 242 b 417 872 632 742 556 872 b 201 492 278 872 201 742 b 417 114 201 242 278 114 "},"Ó":{"ha":833,"x_min":0,"x_max":0,"o":"m 443 1264 l 599 1264 l 474 1078 l 354 1078 m 417 -22 b 50 492 182 -22 50 163 b 417 1008 50 824 182 1008 b 783 492 651 1008 783 824 b 417 -22 783 163 651 -22 m 417 114 b 632 492 556 114 632 242 b 417 872 632 742 556 872 b 201 492 278 872 201 742 b 417 114 201 242 278 114 "},"Ô":{"ha":833,"x_min":0,"x_max":0,"o":"m 344 1268 l 488 1268 l 618 1075 l 508 1075 l 415 1199 l 324 1075 l 213 1075 m 417 -22 b 50 492 182 -22 50 163 b 417 1008 50 824 182 1008 b 783 492 651 1008 783 824 b 417 -22 783 163 651 -22 m 417 114 b 632 492 556 114 632 242 b 417 872 632 742 556 872 b 201 492 278 872 201 742 b 417 114 201 242 278 114 "},"Ö":{"ha":833,"x_min":0,"x_max":0,"o":"m 208 1238 l 353 1238 l 353 1092 l 208 1092 m 481 1238 l 625 1238 l 625 1092 l 481 1092 m 417 -22 b 50 492 182 -22 50 163 b 417 1008 50 824 182 1008 b 783 492 651 1008 783 824 b 417 -22 783 163 651 -22 m 417 114 b 632 492 556 114 632 242 b 417 872 632 742 556 872 b 201 492 278 872 201 742 b 417 114 201 242 278 114 "},"Ò":{"ha":833,"x_min":0,"x_max":0,"o":"m 239 1264 l 393 1264 l 483 1078 l 364 1078 m 417 -22 b 50 492 182 -22 50 163 b 417 1008 50 824 182 1008 b 783 492 651 1008 783 824 b 417 -22 783 163 651 -22 m 417 114 b 632 492 556 114 632 242 b 417 872 632 742 556 872 b 201 492 278 872 201 742 b 417 114 201 242 278 114 "},"Ő":{"ha":833,"x_min":0,"x_max":0,"o":"m 335 1261 l 489 1261 l 364 1075 l 244 1075 m 546 1261 l 700 1261 l 575 1075 l 456 1075 m 417 -22 b 50 492 182 -22 50 163 b 417 1008 50 824 182 1008 b 783 492 651 1008 783 824 b 417 -22 783 163 651 -22 m 417 114 b 632 492 556 114 632 242 b 417 872 632 742 556 872 b 201 492 278 872 201 742 b 417 114 201 242 278 114 "},"Ō":{"ha":833,"x_min":0,"x_max":0,"o":"m 225 1221 l 606 1221 l 606 1108 l 225 1108 m 417 -22 b 50 492 182 -22 50 163 b 417 1008 50 824 182 1008 b 783 492 651 1008 783 824 b 417 -22 783 163 651 -22 m 417 114 b 632 492 556 114 632 242 b 417 872 632 742 556 872 b 201 492 278 872 201 742 b 417 114 201 242 278 114 "},"Ø":{"ha":833,"x_min":0,"x_max":0,"o":"m 136 125 b 50 492 79 211 50 335 b 417 1008 50 824 182 1008 b 618 947 496 1008 564 988 l 654 1008 l 783 1008 l 697 861 b 783 492 754 774 783 650 b 417 -22 783 163 651 -22 b 215 39 338 -22 269 -1 l 179 -22 l 50 -22 m 201 492 b 226 279 201 407 210 336 l 543 819 b 417 872 510 854 468 872 b 201 492 278 872 201 742 m 417 114 b 632 492 556 114 632 242 b 606 706 632 578 624 649 l 289 165 b 417 114 324 131 365 114 "},"Õ":{"ha":833,"x_min":0,"x_max":0,"o":"m 500 1090 b 401 1132 463 1090 432 1107 b 332 1165 371 1156 357 1165 b 274 1081 300 1165 276 1144 l 194 1081 b 329 1253 197 1197 251 1253 b 438 1210 375 1253 404 1236 b 504 1178 465 1188 483 1178 b 560 1267 538 1178 554 1200 l 639 1267 b 500 1090 635 1151 583 1090 m 417 -22 b 50 492 182 -22 50 163 b 417 1008 50 824 182 1008 b 783 492 651 1008 783 824 b 417 -22 783 163 651 -22 m 417 114 b 632 492 556 114 632 242 b 417 872 632 742 556 872 b 201 492 278 872 201 742 b 417 114 201 242 278 114 "},"Œ":{"ha":833,"x_min":0,"x_max":0,"o":"m 294 -22 b 14 492 115 -22 14 154 b 294 1008 14 829 115 1008 b 451 929 358 1008 411 979 l 451 986 l 808 986 l 808 849 l 586 849 l 586 561 l 792 561 l 792 428 l 586 428 l 586 138 l 819 138 l 819 0 l 451 0 l 451 57 b 294 -22 411 6 358 -22 m 297 114 b 436 492 401 114 436 238 b 297 872 436 749 401 872 b 160 492 194 872 160 749 b 297 114 160 238 194 114 "},"P":{"ha":833,"x_min":0,"x_max":0,"o":"m 119 986 l 425 986 b 767 679 631 986 767 869 b 425 374 767 490 631 374 l 265 374 l 265 0 l 119 0 m 410 511 b 615 679 550 511 615 569 b 410 849 615 789 550 849 l 265 849 l 265 511 "},"Þ":{"ha":833,"x_min":0,"x_max":0,"o":"m 119 986 l 265 986 l 265 811 l 429 811 b 781 511 653 811 781 697 b 429 204 781 321 653 204 l 265 204 l 265 0 l 119 0 m 265 675 l 265 340 l 428 340 b 629 511 561 340 629 399 b 428 675 629 621 561 675 "},"Q":{"ha":833,"x_min":0,"x_max":0,"o":"m 417 -22 b 50 492 182 -22 50 163 b 417 1008 50 824 182 1008 b 783 492 651 1008 783 824 b 572 11 783 244 710 79 l 632 -165 l 510 -165 l 460 -19 b 417 -22 446 -21 432 -22 m 201 492 b 415 114 201 236 278 114 l 347 314 l 471 314 l 528 147 b 632 492 597 197 632 310 b 417 872 632 742 556 872 b 201 492 278 872 201 742 "},"R":{"ha":833,"x_min":0,"x_max":0,"o":"m 93 986 l 400 986 b 736 692 608 986 736 874 b 569 458 736 574 661 488 b 722 281 667 440 714 386 l 747 0 l 601 0 l 579 253 b 411 385 571 351 532 385 l 239 385 l 239 0 l 93 0 m 397 521 b 586 685 518 521 586 581 b 397 849 586 790 518 849 l 239 849 l 239 521 "},"Ŕ":{"ha":833,"x_min":0,"x_max":0,"o":"m 425 1264 l 579 1264 l 454 1078 l 335 1078 m 93 986 l 400 986 b 736 692 608 986 736 874 b 569 458 736 574 661 488 b 722 281 667 440 714 386 l 747 0 l 601 0 l 579 253 b 411 385 571 351 532 385 l 239 385 l 239 0 l 93 0 m 397 521 b 586 685 518 521 586 581 b 397 849 586 790 518 849 l 239 849 l 239 521 "},"Ř":{"ha":833,"x_min":0,"x_max":0,"o":"m 306 1268 l 399 1144 l 490 1268 l 601 1268 l 469 1075 l 326 1075 l 196 1268 m 93 986 l 400 986 b 736 692 608 986 736 874 b 569 458 736 574 661 488 b 722 281 667 440 714 386 l 747 0 l 601 0 l 579 253 b 411 385 571 351 532 385 l 239 385 l 239 0 l 93 0 m 397 521 b 586 685 518 521 586 581 b 397 849 586 790 518 849 l 239 849 l 239 521 "},"Ŗ":{"ha":833,"x_min":0,"x_max":0,"o":"m 93 986 l 400 986 b 736 692 608 986 736 874 b 569 458 736 574 661 488 b 722 281 667 440 714 386 l 747 0 l 601 0 l 579 253 b 411 385 571 351 532 385 l 239 385 l 239 0 l 93 0 m 397 521 b 586 685 518 521 586 581 b 397 849 586 790 518 849 l 239 849 l 239 521 m 396 -208 l 344 -208 l 344 -72 l 496 -72 l 496 -200 l 403 -339 l 317 -339 "},"S":{"ha":833,"x_min":0,"x_max":0,"o":"m 429 -22 b 60 321 215 -22 76 114 l 210 331 b 435 114 229 189 310 114 b 624 250 556 114 624 163 b 369 446 624 338 576 388 b 82 722 167 501 82 569 b 414 1008 82 892 207 1008 b 757 689 619 1008 738 879 l 607 681 b 410 872 592 794 528 872 b 232 729 301 872 232 815 b 456 563 232 643 281 611 b 774 250 692 499 774 411 b 429 -22 774 88 636 -22 "},"Ś":{"ha":833,"x_min":0,"x_max":0,"o":"m 444 1264 l 599 1264 l 474 1078 l 354 1078 m 429 -22 b 60 321 215 -22 76 114 l 210 331 b 435 114 229 189 310 114 b 624 250 556 114 624 163 b 369 446 624 338 576 388 b 82 722 167 501 82 569 b 414 1008 82 892 207 1008 b 757 689 619 1008 738 879 l 607 681 b 410 872 592 794 528 872 b 232 729 301 872 232 815 b 456 563 232 643 281 611 b 774 250 692 499 774 411 b 429 -22 774 88 636 -22 "},"Š":{"ha":833,"x_min":0,"x_max":0,"o":"m 325 1268 l 417 1144 l 510 1268 l 619 1268 l 489 1075 l 346 1075 l 214 1268 m 429 -22 b 60 321 215 -22 76 114 l 210 331 b 435 114 229 189 310 114 b 624 250 556 114 624 163 b 369 446 624 338 576 388 b 82 722 167 501 82 569 b 414 1008 82 892 207 1008 b 757 689 619 1008 738 879 l 607 681 b 410 872 592 794 528 872 b 232 729 301 872 232 815 b 456 563 232 643 281 611 b 774 250 692 499 774 411 b 429 -22 774 88 636 -22 "},"Ş":{"ha":833,"x_min":0,"x_max":0,"o":"m 407 -311 b 240 -200 317 -311 261 -264 l 318 -169 b 404 -225 333 -208 360 -225 b 476 -172 449 -225 476 -206 b 376 -112 476 -137 460 -112 l 331 -67 l 363 -18 b 60 321 186 8 75 138 l 210 331 b 435 114 229 189 310 114 b 624 250 556 114 624 163 b 369 446 624 338 576 388 b 82 722 167 501 82 569 b 414 1008 82 892 207 1008 b 757 689 619 1008 738 879 l 607 681 b 410 872 592 794 528 872 b 232 729 301 872 232 815 b 456 563 232 643 281 611 b 774 250 692 499 774 411 b 456 -22 774 94 647 -12 l 436 -47 b 569 -175 528 -53 569 -104 b 407 -311 569 -260 500 -311 "},"Ŝ":{"ha":833,"x_min":0,"x_max":0,"o":"m 344 1268 l 488 1268 l 618 1075 l 508 1075 l 415 1199 l 324 1075 l 213 1075 m 429 -22 b 60 321 215 -22 76 114 l 210 331 b 435 114 229 189 310 114 b 624 250 556 114 624 163 b 369 446 624 338 576 388 b 82 722 167 501 82 569 b 414 1008 82 892 207 1008 b 757 689 619 1008 738 879 l 607 681 b 410 872 592 794 528 872 b 232 729 301 872 232 815 b 456 563 232 643 281 611 b 774 250 692 499 774 411 b 429 -22 774 88 636 -22 "},"Ș":{"ha":833,"x_min":0,"x_max":0,"o":"m 429 -22 b 60 321 215 -22 76 114 l 210 331 b 435 114 229 189 310 114 b 624 250 556 114 624 163 b 369 446 624 338 576 388 b 82 722 167 501 82 569 b 414 1008 82 892 207 1008 b 757 689 619 1008 738 879 l 607 681 b 410 872 592 794 528 872 b 232 729 301 872 232 815 b 456 563 232 643 281 611 b 774 250 692 499 774 411 b 429 -22 774 88 636 -22 m 394 -208 l 343 -208 l 343 -72 l 494 -72 l 494 -200 l 401 -339 l 315 -339 "},"ẞ":{"ha":833,"x_min":0,"x_max":0,"o":"m 43 683 b 333 986 43 872 153 986 l 742 986 l 742 839 l 458 589 b 803 306 667 588 803 475 b 451 0 803 121 669 0 l 272 0 l 272 138 l 447 138 b 653 304 578 138 653 199 b 422 474 653 413 576 474 l 313 474 l 313 596 l 569 849 l 342 849 b 189 681 243 849 189 790 l 189 0 l 43 0 "},"T":{"ha":833,"x_min":0,"x_max":0,"o":"m 344 849 l 56 849 l 56 986 l 778 986 l 778 849 l 489 849 l 489 0 l 344 0 "},"Ŧ":{"ha":833,"x_min":0,"x_max":0,"o":"m 344 411 l 189 411 l 189 536 l 344 536 l 344 849 l 56 849 l 56 986 l 778 986 l 778 849 l 489 849 l 489 536 l 644 536 l 644 411 l 489 411 l 489 0 l 344 0 "},"Ť":{"ha":833,"x_min":0,"x_max":0,"o":"m 325 1268 l 417 1144 l 508 1268 l 619 1268 l 489 1075 l 344 1075 l 214 1268 m 344 849 l 56 849 l 56 986 l 778 986 l 778 849 l 489 849 l 489 0 l 344 0 "},"Ţ":{"ha":833,"x_min":0,"x_max":0,"o":"m 344 849 l 56 849 l 56 986 l 778 986 l 778 849 l 489 849 l 489 0 l 468 0 l 435 -47 b 568 -175 525 -53 568 -104 b 406 -311 568 -260 499 -311 b 238 -200 315 -311 258 -264 l 315 -169 b 403 -225 332 -208 357 -225 b 475 -172 447 -225 475 -206 b 374 -112 475 -137 458 -112 l 329 -67 l 371 0 l 344 0 "},"Ț":{"ha":833,"x_min":0,"x_max":0,"o":"m 344 849 l 56 849 l 56 986 l 778 986 l 778 849 l 489 849 l 489 0 l 344 0 m 392 -208 l 340 -208 l 340 -72 l 493 -72 l 493 -200 l 400 -339 l 314 -339 "},"U":{"ha":833,"x_min":0,"x_max":0,"o":"m 417 -22 b 81 343 207 -22 81 114 l 81 986 l 226 986 l 226 338 b 417 114 226 193 293 114 b 607 338 540 114 607 193 l 607 986 l 753 986 l 753 343 b 417 -22 753 114 626 -22 "},"Ú":{"ha":833,"x_min":0,"x_max":0,"o":"m 443 1264 l 599 1264 l 474 1078 l 354 1078 m 417 -22 b 81 343 207 -22 81 114 l 81 986 l 226 986 l 226 338 b 417 114 226 193 293 114 b 607 338 540 114 607 193 l 607 986 l 753 986 l 753 343 b 417 -22 753 114 626 -22 "},"Ŭ":{"ha":833,"x_min":0,"x_max":0,"o":"m 417 1079 b 217 1267 300 1079 222 1153 l 308 1267 b 417 1175 317 1201 357 1175 b 525 1267 476 1175 517 1201 l 617 1267 b 417 1079 611 1153 533 1079 m 417 -22 b 81 343 207 -22 81 114 l 81 986 l 226 986 l 226 338 b 417 114 226 193 293 114 b 607 338 540 114 607 193 l 607 986 l 753 986 l 753 343 b 417 -22 753 114 626 -22 "},"Û":{"ha":833,"x_min":0,"x_max":0,"o":"m 344 1268 l 488 1268 l 618 1075 l 508 1075 l 415 1199 l 324 1075 l 213 1075 m 417 -22 b 81 343 207 -22 81 114 l 81 986 l 226 986 l 226 338 b 417 114 226 193 293 114 b 607 338 540 114 607 193 l 607 986 l 753 986 l 753 343 b 417 -22 753 114 626 -22 "},"Ü":{"ha":833,"x_min":0,"x_max":0,"o":"m 208 1238 l 353 1238 l 353 1092 l 208 1092 m 481 1238 l 625 1238 l 625 1092 l 481 1092 m 417 -22 b 81 343 207 -22 81 114 l 81 986 l 226 986 l 226 338 b 417 114 226 193 293 114 b 607 338 540 114 607 193 l 607 986 l 753 986 l 753 343 b 417 -22 753 114 626 -22 "},"Ù":{"ha":833,"x_min":0,"x_max":0,"o":"m 239 1264 l 393 1264 l 483 1078 l 364 1078 m 417 -22 b 81 343 207 -22 81 114 l 81 986 l 226 986 l 226 338 b 417 114 226 193 293 114 b 607 338 540 114 607 193 l 607 986 l 753 986 l 753 343 b 417 -22 753 114 626 -22 "},"Ű":{"ha":833,"x_min":0,"x_max":0,"o":"m 335 1261 l 489 1261 l 364 1075 l 244 1075 m 546 1261 l 700 1261 l 575 1075 l 456 1075 m 417 -22 b 81 343 207 -22 81 114 l 81 986 l 226 986 l 226 338 b 417 114 226 193 293 114 b 607 338 540 114 607 193 l 607 986 l 753 986 l 753 343 b 417 -22 753 114 626 -22 "},"Ū":{"ha":833,"x_min":0,"x_max":0,"o":"m 225 1221 l 606 1221 l 606 1108 l 225 1108 m 417 -22 b 81 343 207 -22 81 114 l 81 986 l 226 986 l 226 338 b 417 114 226 193 293 114 b 607 338 540 114 607 193 l 607 986 l 753 986 l 753 343 b 417 -22 753 114 626 -22 "},"Ų":{"ha":833,"x_min":0,"x_max":0,"o":"m 467 -294 b 335 -181 385 -294 335 -251 b 392 -40 335 -132 354 -89 l 407 -22 b 81 343 203 -18 81 118 l 81 986 l 226 986 l 226 338 b 417 114 226 193 293 114 b 607 338 540 114 607 193 l 607 986 l 753 986 l 753 343 b 547 -1 753 167 678 44 l 500 -61 b 458 -151 465 -107 458 -129 b 499 -190 458 -178 474 -190 b 561 -171 518 -190 546 -183 l 596 -257 b 467 -294 572 -279 522 -294 "},"Ů":{"ha":833,"x_min":0,"x_max":0,"o":"m 417 1047 b 283 1179 340 1047 283 1104 b 417 1311 283 1254 340 1311 b 550 1179 492 1311 550 1254 b 417 1047 550 1104 492 1047 m 417 1121 b 474 1179 450 1121 474 1146 b 417 1236 474 1213 450 1236 b 360 1179 383 1236 360 1213 b 417 1121 360 1146 383 1121 m 417 -22 b 81 343 207 -22 81 114 l 81 986 l 226 986 l 226 338 b 417 114 226 193 293 114 b 607 338 540 114 607 193 l 607 986 l 753 986 l 753 343 b 417 -22 753 114 626 -22 "},"Ũ":{"ha":833,"x_min":0,"x_max":0,"o":"m 500 1090 b 401 1132 463 1090 432 1107 b 332 1165 371 1156 357 1165 b 274 1081 300 1165 276 1144 l 194 1081 b 329 1253 197 1197 251 1253 b 438 1210 375 1253 404 1236 b 504 1178 465 1188 483 1178 b 560 1267 538 1178 554 1200 l 639 1267 b 500 1090 635 1151 583 1090 m 417 -22 b 81 343 207 -22 81 114 l 81 986 l 226 986 l 226 338 b 417 114 226 193 293 114 b 607 338 540 114 607 193 l 607 986 l 753 986 l 753 343 b 417 -22 753 114 626 -22 "},"V":{"ha":833,"x_min":0,"x_max":0,"o":"m 38 986 l 192 986 l 417 194 l 642 986 l 796 986 l 503 0 l 331 0 "},"W":{"ha":833,"x_min":0,"x_max":0,"o":"m 39 986 l 185 986 l 260 188 l 353 875 l 481 875 l 574 188 l 649 986 l 794 986 l 689 0 l 499 0 l 417 600 l 335 0 l 144 0 "},"Ẃ":{"ha":833,"x_min":0,"x_max":0,"o":"m 443 1264 l 599 1264 l 474 1078 l 354 1078 m 39 986 l 185 986 l 260 188 l 353 875 l 481 875 l 574 188 l 649 986 l 794 986 l 689 0 l 499 0 l 417 600 l 335 0 l 144 0 "},"Ŵ":{"ha":833,"x_min":0,"x_max":0,"o":"m 344 1268 l 488 1268 l 618 1075 l 508 1075 l 415 1199 l 324 1075 l 213 1075 m 39 986 l 185 986 l 260 188 l 353 875 l 481 875 l 574 188 l 649 986 l 794 986 l 689 0 l 499 0 l 417 600 l 335 0 l 144 0 "},"Ẅ":{"ha":833,"x_min":0,"x_max":0,"o":"m 208 1238 l 353 1238 l 353 1092 l 208 1092 m 481 1238 l 625 1238 l 625 1092 l 481 1092 m 39 986 l 185 986 l 260 188 l 353 875 l 481 875 l 574 188 l 649 986 l 794 986 l 689 0 l 499 0 l 417 600 l 335 0 l 144 0 "},"Ẁ":{"ha":833,"x_min":0,"x_max":0,"o":"m 239 1264 l 393 1264 l 483 1078 l 364 1078 m 39 986 l 185 986 l 260 188 l 353 875 l 481 875 l 574 188 l 649 986 l 794 986 l 689 0 l 499 0 l 417 600 l 335 0 l 144 0 "},"X":{"ha":833,"x_min":0,"x_max":0,"o":"m 322 496 l 67 986 l 232 986 l 418 607 l 604 986 l 767 986 l 511 494 l 771 0 l 606 0 l 415 385 l 224 0 l 63 0 "},"Y":{"ha":833,"x_min":0,"x_max":0,"o":"m 344 406 l 51 986 l 213 986 l 417 556 l 621 986 l 782 986 l 490 406 l 490 0 l 344 0 "},"Ý":{"ha":833,"x_min":0,"x_max":0,"o":"m 443 1264 l 599 1264 l 474 1078 l 354 1078 m 344 406 l 51 986 l 213 986 l 417 556 l 621 986 l 782 986 l 490 406 l 490 0 l 344 0 "},"Ŷ":{"ha":833,"x_min":0,"x_max":0,"o":"m 344 1268 l 488 1268 l 618 1075 l 508 1075 l 415 1199 l 324 1075 l 213 1075 m 344 406 l 51 986 l 213 986 l 417 556 l 621 986 l 782 986 l 490 406 l 490 0 l 344 0 "},"Ÿ":{"ha":833,"x_min":0,"x_max":0,"o":"m 208 1238 l 353 1238 l 353 1092 l 208 1092 m 481 1238 l 625 1238 l 625 1092 l 481 1092 m 344 406 l 51 986 l 213 986 l 417 556 l 621 986 l 782 986 l 490 406 l 490 0 l 344 0 "},"Ỳ":{"ha":833,"x_min":0,"x_max":0,"o":"m 239 1264 l 393 1264 l 483 1078 l 364 1078 m 344 406 l 51 986 l 213 986 l 417 556 l 621 986 l 782 986 l 490 406 l 490 0 l 344 0 "},"Ỹ":{"ha":833,"x_min":0,"x_max":0,"o":"m 500 1090 b 401 1132 463 1090 432 1107 b 332 1165 371 1156 357 1165 b 274 1081 300 1165 276 1144 l 194 1081 b 329 1253 197 1197 251 1253 b 438 1210 375 1253 404 1236 b 504 1178 465 1188 483 1178 b 560 1267 538 1178 554 1200 l 639 1267 b 500 1090 635 1151 583 1090 m 344 406 l 51 986 l 213 986 l 417 556 l 621 986 l 782 986 l 490 406 l 490 0 l 344 0 "},"Z":{"ha":833,"x_min":0,"x_max":0,"o":"m 67 139 l 589 849 l 92 849 l 92 986 l 756 986 l 756 847 l 235 138 l 767 138 l 767 0 l 67 0 "},"Ź":{"ha":833,"x_min":0,"x_max":0,"o":"m 443 1264 l 599 1264 l 474 1078 l 354 1078 m 67 139 l 589 849 l 92 849 l 92 986 l 756 986 l 756 847 l 235 138 l 767 138 l 767 0 l 67 0 "},"Ž":{"ha":833,"x_min":0,"x_max":0,"o":"m 325 1268 l 417 1144 l 508 1268 l 619 1268 l 489 1075 l 344 1075 l 214 1268 m 67 139 l 589 849 l 92 849 l 92 986 l 756 986 l 756 847 l 235 138 l 767 138 l 767 0 l 67 0 "},"Ż":{"ha":833,"x_min":0,"x_max":0,"o":"m 343 1239 l 488 1239 l 488 1093 l 343 1093 m 67 139 l 589 849 l 92 849 l 92 986 l 756 986 l 756 847 l 235 138 l 767 138 l 767 0 l 67 0 "},"Ꞌ":{"ha":833,"x_min":0,"x_max":0,"o":"m 343 790 l 343 986 l 490 986 l 490 790 l 472 511 l 363 511 "},"a":{"ha":833,"x_min":0,"x_max":0,"o":"m 317 -17 b 71 186 178 -17 71 64 b 303 408 71 311 147 378 l 542 458 b 392 631 542 572 492 631 b 231 510 299 631 250 586 l 83 519 b 392 756 111 661 222 756 b 682 453 581 756 682 642 l 682 161 b 725 115 682 126 696 115 l 767 115 l 767 0 b 703 -4 756 -1 728 -4 b 551 106 618 -4 568 31 b 317 -17 514 33 424 -17 m 338 99 b 542 290 472 99 542 175 l 542 347 l 336 306 b 217 197 247 288 217 256 b 338 99 217 135 261 99 "},"á":{"ha":833,"x_min":0,"x_max":0,"o":"m 421 1017 l 576 1017 l 451 831 l 332 831 m 317 -17 b 71 186 178 -17 71 64 b 303 408 71 311 147 378 l 542 458 b 392 631 542 572 492 631 b 231 510 299 631 250 586 l 83 519 b 392 756 111 661 222 756 b 682 453 581 756 682 642 l 682 161 b 725 115 682 126 696 115 l 767 115 l 767 0 b 703 -4 756 -1 728 -4 b 551 106 618 -4 568 31 b 317 -17 514 33 424 -17 m 338 99 b 542 290 472 99 542 175 l 542 347 l 336 306 b 217 197 247 288 217 256 b 338 99 217 135 261 99 "},"ă":{"ha":833,"x_min":0,"x_max":0,"o":"m 394 832 b 194 1019 278 832 200 906 l 286 1019 b 394 928 294 954 335 928 b 503 1019 454 928 494 954 l 594 1019 b 394 832 589 906 511 832 m 317 -17 b 71 186 178 -17 71 64 b 303 408 71 311 147 378 l 542 458 b 392 631 542 572 492 631 b 231 510 299 631 250 586 l 83 519 b 392 756 111 661 222 756 b 682 453 581 756 682 642 l 682 161 b 725 115 682 126 696 115 l 767 115 l 767 0 b 703 -4 756 -1 728 -4 b 551 106 618 -4 568 31 b 317 -17 514 33 424 -17 m 338 99 b 542 290 472 99 542 175 l 542 347 l 336 306 b 217 197 247 288 217 256 b 338 99 217 135 261 99 "},"ǎ":{"ha":833,"x_min":0,"x_max":0,"o":"m 303 1021 l 394 897 l 486 1021 l 597 1021 l 467 828 l 322 828 l 192 1021 m 317 -17 b 71 186 178 -17 71 64 b 303 408 71 311 147 378 l 542 458 b 392 631 542 572 492 631 b 231 510 299 631 250 586 l 83 519 b 392 756 111 661 222 756 b 682 453 581 756 682 642 l 682 161 b 725 115 682 126 696 115 l 767 115 l 767 0 b 703 -4 756 -1 728 -4 b 551 106 618 -4 568 31 b 317 -17 514 33 424 -17 m 338 99 b 542 290 472 99 542 175 l 542 347 l 336 306 b 217 197 247 288 217 256 b 338 99 217 135 261 99 "},"â":{"ha":833,"x_min":0,"x_max":0,"o":"m 322 1021 l 465 1021 l 596 828 l 486 828 l 393 951 l 301 828 l 190 828 m 317 -17 b 71 186 178 -17 71 64 b 303 408 71 311 147 378 l 542 458 b 392 631 542 572 492 631 b 231 510 299 631 250 586 l 83 519 b 392 756 111 661 222 756 b 682 453 581 756 682 642 l 682 161 b 725 115 682 126 696 115 l 767 115 l 767 0 b 703 -4 756 -1 728 -4 b 551 106 618 -4 568 31 b 317 -17 514 33 424 -17 m 338 99 b 542 290 472 99 542 175 l 542 347 l 336 306 b 217 197 247 288 217 256 b 338 99 217 135 261 99 "},"ä":{"ha":833,"x_min":0,"x_max":0,"o":"m 186 990 l 331 990 l 331 844 l 186 844 m 458 990 l 603 990 l 603 844 l 458 844 m 317 -17 b 71 186 178 -17 71 64 b 303 408 71 311 147 378 l 542 458 b 392 631 542 572 492 631 b 231 510 299 631 250 586 l 83 519 b 392 756 111 661 222 756 b 682 453 581 756 682 642 l 682 161 b 725 115 682 126 696 115 l 767 115 l 767 0 b 703 -4 756 -1 728 -4 b 551 106 618 -4 568 31 b 317 -17 514 33 424 -17 m 338 99 b 542 290 472 99 542 175 l 542 347 l 336 306 b 217 197 247 288 217 256 b 338 99 217 135 261 99 "},"à":{"ha":833,"x_min":0,"x_max":0,"o":"m 217 1017 l 371 1017 l 461 831 l 342 831 m 317 -17 b 71 186 178 -17 71 64 b 303 408 71 311 147 378 l 542 458 b 392 631 542 572 492 631 b 231 510 299 631 250 586 l 83 519 b 392 756 111 661 222 756 b 682 453 581 756 682 642 l 682 161 b 725 115 682 126 696 115 l 767 115 l 767 0 b 703 -4 756 -1 728 -4 b 551 106 618 -4 568 31 b 317 -17 514 33 424 -17 m 338 99 b 542 290 472 99 542 175 l 542 347 l 336 306 b 217 197 247 288 217 256 b 338 99 217 135 261 99 "},"ā":{"ha":833,"x_min":0,"x_max":0,"o":"m 203 974 l 583 974 l 583 861 l 203 861 m 317 -17 b 71 186 178 -17 71 64 b 303 408 71 311 147 378 l 542 458 b 392 631 542 572 492 631 b 231 510 299 631 250 586 l 83 519 b 392 756 111 661 222 756 b 682 453 581 756 682 642 l 682 161 b 725 115 682 126 696 115 l 767 115 l 767 0 b 703 -4 756 -1 728 -4 b 551 106 618 -4 568 31 b 317 -17 514 33 424 -17 m 338 99 b 542 290 472 99 542 175 l 542 347 l 336 306 b 217 197 247 288 217 256 b 338 99 217 135 261 99 "},"ą":{"ha":833,"x_min":0,"x_max":0,"o":"m 317 -17 b 71 186 178 -17 71 64 b 303 408 71 311 147 378 l 542 458 b 392 631 542 572 492 631 b 231 510 299 631 250 586 l 83 519 b 392 756 111 661 222 756 b 682 453 581 756 682 642 l 682 161 b 725 115 682 126 696 115 l 767 115 l 767 0 l 719 -61 b 676 -151 685 -107 676 -129 b 717 -190 676 -178 692 -190 b 781 -171 738 -190 764 -183 l 814 -257 b 685 -294 790 -279 742 -294 b 554 -181 604 -294 554 -251 b 611 -40 554 -132 572 -89 l 646 3 b 551 106 596 17 564 50 b 317 -17 514 33 424 -17 m 338 99 b 542 290 472 99 542 175 l 542 347 l 336 306 b 217 197 247 288 217 256 b 338 99 217 135 261 99 "},"å":{"ha":833,"x_min":0,"x_max":0,"o":"m 394 800 b 261 932 318 800 261 857 b 394 1064 261 1007 318 1064 b 528 932 469 1064 528 1007 b 394 800 528 857 469 800 m 394 874 b 451 932 428 874 451 899 b 394 989 451 965 428 989 b 338 932 361 989 338 965 b 394 874 338 899 361 874 m 317 -17 b 71 186 178 -17 71 64 b 303 408 71 311 147 378 l 542 458 b 392 631 542 572 492 631 b 231 510 299 631 250 586 l 83 519 b 392 756 111 661 222 756 b 682 453 581 756 682 642 l 682 161 b 725 115 682 126 696 115 l 767 115 l 767 0 b 703 -4 756 -1 728 -4 b 551 106 618 -4 568 31 b 317 -17 514 33 424 -17 m 338 99 b 542 290 472 99 542 175 l 542 347 l 336 306 b 217 197 247 288 217 256 b 338 99 217 135 261 99 "},"ã":{"ha":833,"x_min":0,"x_max":0,"o":"m 478 843 b 379 885 440 843 410 860 b 310 918 349 908 335 918 b 251 833 278 918 254 897 l 172 833 b 307 1006 175 950 229 1006 b 415 963 353 1006 382 989 b 482 931 443 940 461 931 b 538 1019 515 931 532 953 l 617 1019 b 478 843 613 904 561 843 m 317 -17 b 71 186 178 -17 71 64 b 303 408 71 311 147 378 l 542 458 b 392 631 542 572 492 631 b 231 510 299 631 250 586 l 83 519 b 392 756 111 661 222 756 b 682 453 581 756 682 642 l 682 161 b 725 115 682 126 696 115 l 767 115 l 767 0 b 703 -4 756 -1 728 -4 b 551 106 618 -4 568 31 b 317 -17 514 33 424 -17 m 338 99 b 542 290 472 99 542 175 l 542 347 l 336 306 b 217 197 247 288 217 256 b 338 99 217 135 261 99 "},"æ":{"ha":833,"x_min":0,"x_max":0,"o":"m 200 -17 b 22 196 100 -17 22 46 b 221 421 22 317 96 400 l 333 439 b 247 631 333 575 307 631 b 161 510 190 631 172 582 l 31 518 b 247 756 54 676 126 756 b 411 667 321 756 376 726 b 581 756 451 725 508 756 b 811 388 722 756 811 638 l 811 326 l 474 326 b 579 113 479 186 518 113 b 667 225 628 113 653 142 l 803 214 b 581 -17 769 49 704 -17 b 383 121 490 -17 424 32 b 200 -17 354 33 290 -17 m 672 438 b 579 628 667 575 632 628 b 475 438 518 628 488 575 m 226 99 b 333 296 304 99 333 167 l 333 324 l 246 308 b 151 200 178 297 151 260 b 226 99 151 132 183 99 "},"b":{"ha":833,"x_min":0,"x_max":0,"o":"m 475 -17 b 249 113 371 -17 290 33 l 244 0 l 114 0 l 114 986 l 254 986 l 254 635 b 475 756 290 700 371 756 b 783 369 664 756 783 608 b 475 -17 783 131 664 -17 m 451 113 b 636 369 568 113 636 210 b 454 626 636 532 568 626 b 254 369 329 626 254 531 b 451 113 254 210 331 113 "},"c":{"ha":833,"x_min":0,"x_max":0,"o":"m 433 -17 b 89 369 226 -17 89 136 b 433 756 89 603 226 756 b 751 490 601 756 724 657 l 608 481 b 435 626 586 574 522 626 b 235 369 310 626 235 529 b 435 113 235 210 310 113 b 613 269 522 113 592 165 l 756 261 b 433 -17 728 93 603 -17 "},"ć":{"ha":833,"x_min":0,"x_max":0,"o":"m 460 1017 l 614 1017 l 489 831 l 369 831 m 433 -17 b 89 369 226 -17 89 136 b 433 756 89 603 226 756 b 751 490 601 756 724 657 l 608 481 b 435 626 586 574 522 626 b 235 369 310 626 235 529 b 435 113 235 210 310 113 b 613 269 522 113 592 165 l 756 261 b 433 -17 728 93 603 -17 "},"č":{"ha":833,"x_min":0,"x_max":0,"o":"m 340 1021 l 433 897 l 525 1021 l 636 1021 l 504 828 l 361 828 l 231 1021 m 433 -17 b 89 369 226 -17 89 136 b 433 756 89 603 226 756 b 751 490 601 756 724 657 l 608 481 b 435 626 586 574 522 626 b 235 369 310 626 235 529 b 435 113 235 210 310 113 b 613 269 522 113 592 165 l 756 261 b 433 -17 728 93 603 -17 "},"ç":{"ha":833,"x_min":0,"x_max":0,"o":"m 422 -311 b 254 -200 332 -311 275 -264 l 332 -169 b 418 -225 349 -208 374 -225 b 490 -172 464 -225 490 -206 b 390 -112 490 -137 474 -112 l 346 -67 l 379 -12 b 89 369 201 11 89 158 b 433 756 89 603 226 756 b 751 490 601 756 724 657 l 608 481 b 435 626 586 574 522 626 b 235 369 310 626 235 529 b 435 113 235 210 310 113 b 613 269 522 113 592 165 l 756 261 b 475 -14 731 107 622 1 l 451 -47 b 585 -175 542 -53 585 -104 b 422 -311 585 -260 514 -311 "},"ĉ":{"ha":833,"x_min":0,"x_max":0,"o":"m 360 1021 l 504 1021 l 635 828 l 524 828 l 432 951 l 340 828 l 229 828 m 433 -17 b 89 369 226 -17 89 136 b 433 756 89 603 226 756 b 751 490 601 756 724 657 l 608 481 b 435 626 586 574 522 626 b 235 369 310 626 235 529 b 435 113 235 210 310 113 b 613 269 522 113 592 165 l 756 261 b 433 -17 728 93 603 -17 "},"ċ":{"ha":833,"x_min":0,"x_max":0,"o":"m 360 992 l 504 992 l 504 846 l 360 846 m 433 -17 b 89 369 226 -17 89 136 b 433 756 89 603 226 756 b 751 490 601 756 724 657 l 608 481 b 435 626 586 574 522 626 b 235 369 310 626 235 529 b 435 113 235 210 310 113 b 613 269 522 113 592 165 l 756 261 b 433 -17 728 93 603 -17 "},"d":{"ha":833,"x_min":0,"x_max":0,"o":"m 358 -17 b 50 369 169 -17 50 131 b 358 756 50 608 169 756 b 579 635 463 756 543 700 l 579 986 l 719 986 l 719 0 l 589 0 l 585 113 b 358 -17 543 33 463 -17 m 382 113 b 579 369 503 113 579 210 b 379 626 579 531 504 626 b 197 369 265 626 197 532 b 382 113 197 210 265 113 "},"ď":{"ha":833,"x_min":0,"x_max":0,"o":"m 299 -17 b 22 369 128 -17 22 131 b 300 756 22 608 128 756 b 490 633 393 756 456 700 l 490 986 l 631 986 l 631 0 l 500 0 l 494 115 b 299 -17 457 35 393 -17 m 701 986 l 833 986 l 761 618 l 663 618 m 324 113 b 490 369 422 113 490 210 b 321 626 490 531 422 626 b 169 369 229 626 169 532 b 324 113 169 210 229 113 "},"đ":{"ha":833,"x_min":0,"x_max":0,"o":"m 358 -17 b 50 369 169 -17 50 131 b 358 756 50 608 169 756 b 579 635 463 756 543 700 l 579 806 l 375 806 l 375 908 l 579 908 l 579 986 l 719 986 l 719 908 l 808 908 l 808 806 l 719 806 l 719 0 l 589 0 l 585 113 b 358 -17 543 33 463 -17 m 382 113 b 579 369 503 113 579 210 b 379 626 579 531 504 626 b 197 369 265 626 197 532 b 382 113 197 210 265 113 "},"ð":{"ha":833,"x_min":0,"x_max":0,"o":"m 419 -17 b 81 338 214 -17 81 119 b 418 692 81 556 214 692 b 586 642 481 692 538 672 b 504 782 567 699 539 746 l 343 721 l 310 813 l 406 849 b 247 886 361 868 308 881 l 283 1003 b 550 904 393 992 482 957 l 733 974 l 768 882 l 626 828 b 757 357 719 711 757 546 b 419 -17 757 121 622 -17 m 419 111 b 611 350 539 111 611 189 b 419 564 611 482 539 564 b 226 338 297 564 226 482 b 419 111 226 193 297 111 "},"e":{"ha":833,"x_min":0,"x_max":0,"o":"m 426 -17 b 83 369 218 -17 83 135 b 422 756 83 603 217 756 b 756 367 618 756 756 611 l 756 328 l 231 328 b 428 113 239 186 313 113 b 596 225 515 113 574 157 l 743 215 b 426 -17 700 75 586 -17 m 604 440 b 422 626 593 567 521 626 b 231 440 318 626 249 563 "},"é":{"ha":833,"x_min":0,"x_max":0,"o":"m 450 1015 l 604 1015 l 479 828 l 360 828 m 426 -17 b 83 369 218 -17 83 135 b 422 756 83 603 217 756 b 756 367 618 756 756 611 l 756 328 l 231 328 b 428 113 239 186 313 113 b 596 225 515 113 574 157 l 743 215 b 426 -17 700 75 586 -17 m 604 440 b 422 626 593 567 521 626 b 231 440 318 626 249 563 "},"ě":{"ha":833,"x_min":0,"x_max":0,"o":"m 331 1019 l 424 896 l 515 1019 l 626 1019 l 494 825 l 351 825 l 221 1019 m 426 -17 b 83 369 218 -17 83 135 b 422 756 83 603 217 756 b 756 367 618 756 756 611 l 756 328 l 231 328 b 428 113 239 186 313 113 b 596 225 515 113 574 157 l 743 215 b 426 -17 700 75 586 -17 m 604 440 b 422 626 593 567 521 626 b 231 440 318 626 249 563 "},"ê":{"ha":833,"x_min":0,"x_max":0,"o":"m 350 1019 l 494 1019 l 625 825 l 514 825 l 422 949 l 331 825 l 219 825 m 426 -17 b 83 369 218 -17 83 135 b 422 756 83 603 217 756 b 756 367 618 756 756 611 l 756 328 l 231 328 b 428 113 239 186 313 113 b 596 225 515 113 574 157 l 743 215 b 426 -17 700 75 586 -17 m 604 440 b 422 626 593 567 521 626 b 231 440 318 626 249 563 "},"ë":{"ha":833,"x_min":0,"x_max":0,"o":"m 214 988 l 360 988 l 360 843 l 214 843 m 488 988 l 632 988 l 632 843 l 488 843 m 426 -17 b 83 369 218 -17 83 135 b 422 756 83 603 217 756 b 756 367 618 756 756 611 l 756 328 l 231 328 b 428 113 239 186 313 113 b 596 225 515 113 574 157 l 743 215 b 426 -17 700 75 586 -17 m 604 440 b 422 626 593 567 521 626 b 231 440 318 626 249 563 "},"ė":{"ha":833,"x_min":0,"x_max":0,"o":"m 350 989 l 494 989 l 494 843 l 350 843 m 426 -17 b 83 369 218 -17 83 135 b 422 756 83 603 217 756 b 756 367 618 756 756 611 l 756 328 l 231 328 b 428 113 239 186 313 113 b 596 225 515 113 574 157 l 743 215 b 426 -17 700 75 586 -17 m 604 440 b 422 626 593 567 521 626 b 231 440 318 626 249 563 "},"è":{"ha":833,"x_min":0,"x_max":0,"o":"m 246 1015 l 400 1015 l 490 828 l 371 828 m 426 -17 b 83 369 218 -17 83 135 b 422 756 83 603 217 756 b 756 367 618 756 756 611 l 756 328 l 231 328 b 428 113 239 186 313 113 b 596 225 515 113 574 157 l 743 215 b 426 -17 700 75 586 -17 m 604 440 b 422 626 593 567 521 626 b 231 440 318 626 249 563 "},"ē":{"ha":833,"x_min":0,"x_max":0,"o":"m 232 971 l 613 971 l 613 858 l 232 858 m 426 -17 b 83 369 218 -17 83 135 b 422 756 83 603 217 756 b 756 367 618 756 756 611 l 756 328 l 231 328 b 428 113 239 186 313 113 b 596 225 515 113 574 157 l 743 215 b 426 -17 700 75 586 -17 m 604 440 b 422 626 593 567 521 626 b 231 440 318 626 249 563 "},"ę":{"ha":833,"x_min":0,"x_max":0,"o":"m 426 -17 b 83 369 218 -17 83 135 b 422 756 83 603 217 756 b 756 367 618 756 756 611 l 756 328 l 231 328 b 428 113 239 186 313 113 b 596 225 515 113 574 157 l 743 215 b 603 29 718 135 669 69 l 558 -29 b 515 -119 524 -75 515 -97 b 556 -158 515 -146 531 -158 b 618 -139 575 -158 603 -151 l 653 -225 b 524 -262 629 -247 581 -262 b 392 -149 442 -262 392 -219 b 443 -17 392 -101 410 -61 b 426 -17 438 -17 432 -17 m 604 440 b 422 626 593 567 521 626 b 231 440 318 626 249 563 "},"ẽ":{"ha":833,"x_min":0,"x_max":0,"o":"m 507 840 b 408 882 469 840 439 857 b 339 915 378 907 364 915 b 281 831 307 915 283 896 l 200 831 b 336 1004 203 947 258 1004 b 444 960 381 1004 411 986 b 511 928 472 938 490 928 b 567 1017 543 928 561 950 l 646 1017 b 507 840 642 901 590 840 m 426 -17 b 83 369 218 -17 83 135 b 422 756 83 603 217 756 b 756 367 618 756 756 611 l 756 328 l 231 328 b 428 113 239 186 313 113 b 596 225 515 113 574 157 l 743 215 b 426 -17 700 75 586 -17 m 604 440 b 422 626 593 567 521 626 b 231 440 318 626 249 563 "},"ə":{"ha":833,"x_min":0,"x_max":0,"o":"m 407 756 b 750 369 615 756 750 604 b 411 -17 750 136 617 -17 b 78 372 215 -17 78 128 l 78 411 l 603 411 b 406 626 594 553 521 626 b 238 514 318 626 260 582 l 90 524 b 407 756 133 664 247 756 m 229 299 b 411 113 240 172 313 113 b 603 299 515 113 585 176 "},"f":{"ha":833,"x_min":0,"x_max":0,"o":"m 289 621 l 94 621 l 94 739 l 289 739 l 289 778 b 500 986 289 914 356 986 l 739 986 l 739 868 l 514 868 b 429 776 457 868 429 833 l 429 739 l 728 739 l 728 621 l 429 621 l 429 0 l 289 0 "},"g":{"ha":833,"x_min":0,"x_max":0,"o":"m 413 -225 b 97 -11 246 -225 129 -140 l 244 -1 b 413 -100 265 -64 311 -100 b 604 54 536 -100 604 -49 l 604 163 b 392 39 568 88 490 39 b 75 394 207 39 75 185 b 386 756 75 610 204 756 b 608 624 489 756 574 706 l 610 739 l 744 739 l 744 64 b 413 -225 744 -121 618 -225 m 411 164 b 604 396 526 164 603 250 b 411 631 606 543 528 631 b 222 396 292 631 222 543 b 411 164 222 250 293 164 "},"ğ":{"ha":833,"x_min":0,"x_max":0,"o":"m 418 832 b 218 1019 301 832 224 906 l 310 1019 b 418 928 317 954 357 928 b 526 1019 478 928 518 954 l 618 1019 b 418 832 613 906 535 832 m 413 -225 b 97 -11 246 -225 129 -140 l 244 -1 b 413 -100 265 -64 311 -100 b 604 54 536 -100 604 -49 l 604 163 b 392 39 568 88 490 39 b 75 394 207 39 75 185 b 386 756 75 610 204 756 b 608 624 489 756 574 706 l 610 739 l 744 739 l 744 64 b 413 -225 744 -121 618 -225 m 411 164 b 604 396 526 164 603 250 b 411 631 606 543 528 631 b 222 396 292 631 222 543 b 411 164 222 250 293 164 "},"ǧ":{"ha":833,"x_min":0,"x_max":0,"o":"m 325 1021 l 418 897 l 510 1021 l 621 1021 l 489 828 l 346 828 l 215 1021 m 413 -225 b 97 -11 246 -225 129 -140 l 244 -1 b 413 -100 265 -64 311 -100 b 604 54 536 -100 604 -49 l 604 163 b 392 39 568 88 490 39 b 75 394 207 39 75 185 b 386 756 75 610 204 756 b 608 624 489 756 574 706 l 610 739 l 744 739 l 744 64 b 413 -225 744 -121 618 -225 m 411 164 b 604 396 526 164 603 250 b 411 631 606 543 528 631 b 222 396 292 631 222 543 b 411 164 222 250 293 164 "},"ĝ":{"ha":833,"x_min":0,"x_max":0,"o":"m 344 1021 l 488 1021 l 619 828 l 508 828 l 417 951 l 324 828 l 214 828 m 413 -225 b 97 -11 246 -225 129 -140 l 244 -1 b 413 -100 265 -64 311 -100 b 604 54 536 -100 604 -49 l 604 163 b 392 39 568 88 490 39 b 75 394 207 39 75 185 b 386 756 75 610 204 756 b 608 624 489 756 574 706 l 610 739 l 744 739 l 744 64 b 413 -225 744 -121 618 -225 m 411 164 b 604 396 526 164 603 250 b 411 631 606 543 528 631 b 222 396 292 631 222 543 b 411 164 222 250 293 164 "},"ģ":{"ha":833,"x_min":0,"x_max":0,"o":"m 446 967 l 496 967 l 496 832 l 344 832 l 344 958 l 438 1099 l 524 1099 m 413 -225 b 97 -11 246 -225 129 -140 l 244 -1 b 413 -100 265 -64 311 -100 b 604 54 536 -100 604 -49 l 604 163 b 392 39 568 88 490 39 b 75 394 207 39 75 185 b 386 756 75 610 204 756 b 608 624 489 756 574 706 l 610 739 l 744 739 l 744 64 b 413 -225 744 -121 618 -225 m 411 164 b 604 396 526 164 603 250 b 411 631 606 543 528 631 b 222 396 292 631 222 543 b 411 164 222 250 293 164 "},"ġ":{"ha":833,"x_min":0,"x_max":0,"o":"m 344 992 l 489 992 l 489 846 l 344 846 m 413 -225 b 97 -11 246 -225 129 -140 l 244 -1 b 413 -100 265 -64 311 -100 b 604 54 536 -100 604 -49 l 604 163 b 392 39 568 88 490 39 b 75 394 207 39 75 185 b 386 756 75 610 204 756 b 608 624 489 756 574 706 l 610 739 l 744 739 l 744 64 b 413 -225 744 -121 618 -225 m 411 164 b 604 396 526 164 603 250 b 411 631 606 543 528 631 b 222 396 292 631 222 543 b 411 164 222 250 293 164 "},"ḡ":{"ha":833,"x_min":0,"x_max":0,"o":"m 226 974 l 607 974 l 607 861 l 226 861 m 413 -225 b 97 -11 246 -225 129 -140 l 244 -1 b 413 -100 265 -64 311 -100 b 604 54 536 -100 604 -49 l 604 163 b 392 39 568 88 490 39 b 75 394 207 39 75 185 b 386 756 75 610 204 756 b 608 624 489 756 574 706 l 610 739 l 744 739 l 744 64 b 413 -225 744 -121 618 -225 m 411 164 b 604 396 526 164 603 250 b 411 631 606 543 528 631 b 222 396 292 631 222 543 b 411 164 222 250 293 164 "},"ǥ":{"ha":833,"x_min":0,"x_max":0,"o":"m 410 -225 b 94 -11 243 -225 126 -140 l 242 -1 b 410 -100 263 -64 308 -100 b 601 54 533 -100 601 -49 l 601 163 b 389 39 565 88 488 39 b 72 394 204 39 72 185 b 383 756 72 610 201 756 b 606 624 486 756 571 706 l 607 739 l 742 739 l 742 443 l 808 443 l 808 338 l 742 338 l 742 64 b 410 -225 742 -121 615 -225 m 408 164 b 596 338 507 164 578 226 l 410 338 l 410 443 l 599 443 b 408 631 585 561 513 631 b 219 396 289 631 219 543 b 408 164 219 250 290 164 "},"h":{"ha":833,"x_min":0,"x_max":0,"o":"m 129 986 l 269 986 l 269 626 b 488 756 308 715 388 756 b 726 476 644 756 726 642 l 726 0 l 586 0 l 586 440 b 446 633 586 574 539 633 b 269 436 340 633 269 564 l 269 0 l 129 0 "},"ħ":{"ha":833,"x_min":0,"x_max":0,"o":"m 129 806 l 46 806 l 46 908 l 129 908 l 129 986 l 269 986 l 269 908 l 479 908 l 479 806 l 269 806 l 269 626 b 488 756 308 715 388 756 b 726 476 644 756 726 642 l 726 0 l 586 0 l 586 440 b 446 633 586 574 539 633 b 269 436 340 633 269 564 l 269 0 l 129 0 "},"ĥ":{"ha":833,"x_min":0,"x_max":0,"o":"m 131 1268 l 274 1268 l 406 1075 l 294 1075 l 203 1199 l 110 1075 l 0 1075 m 129 986 l 269 986 l 269 626 b 488 756 308 715 388 756 b 726 476 644 756 726 642 l 726 0 l 586 0 l 586 440 b 446 633 586 574 539 633 b 269 436 340 633 269 564 l 269 0 l 129 0 "},"i":{"ha":833,"x_min":0,"x_max":0,"o":"m 386 992 l 531 992 l 531 846 l 386 846 m 106 118 l 394 118 l 394 621 l 119 621 l 119 739 l 536 739 l 536 118 l 783 118 l 783 0 l 106 0 "},"ı":{"ha":833,"x_min":0,"x_max":0,"o":"m 106 118 l 394 118 l 394 621 l 119 621 l 119 739 l 536 739 l 536 118 l 783 118 l 783 0 l 106 0 "},"í":{"ha":833,"x_min":0,"x_max":0,"o":"m 486 1017 l 640 1017 l 515 831 l 396 831 m 106 118 l 394 118 l 394 621 l 119 621 l 119 739 l 536 739 l 536 118 l 783 118 l 783 0 l 106 0 "},"î":{"ha":833,"x_min":0,"x_max":0,"o":"m 386 1021 l 531 1021 l 661 828 l 550 828 l 458 951 l 367 828 l 256 828 m 106 118 l 394 118 l 394 621 l 119 621 l 119 739 l 536 739 l 536 118 l 783 118 l 783 0 l 106 0 "},"ï":{"ha":833,"x_min":0,"x_max":0,"o":"m 250 990 l 396 990 l 396 844 l 250 844 m 524 990 l 668 990 l 668 844 l 524 844 m 106 118 l 394 118 l 394 621 l 119 621 l 119 739 l 536 739 l 536 118 l 783 118 l 783 0 l 106 0 "},"ì":{"ha":833,"x_min":0,"x_max":0,"o":"m 282 1017 l 436 1017 l 526 831 l 407 831 m 106 118 l 394 118 l 394 621 l 119 621 l 119 739 l 536 739 l 536 118 l 783 118 l 783 0 l 106 0 "},"ī":{"ha":833,"x_min":0,"x_max":0,"o":"m 268 974 l 649 974 l 649 861 l 268 861 m 106 118 l 394 118 l 394 621 l 119 621 l 119 739 l 536 739 l 536 118 l 783 118 l 783 0 l 106 0 "},"į":{"ha":833,"x_min":0,"x_max":0,"o":"m 386 992 l 531 992 l 531 846 l 386 846 m 106 118 l 394 118 l 394 621 l 119 621 l 119 739 l 536 739 l 536 118 l 783 118 l 783 0 l 736 -61 b 693 -151 701 -107 693 -129 b 733 -190 693 -178 708 -190 b 797 -171 754 -190 781 -183 l 831 -257 b 701 -294 807 -279 758 -294 b 571 -181 621 -294 571 -251 b 628 -40 571 -132 589 -89 l 660 0 l 106 0 "},"ĩ":{"ha":833,"x_min":0,"x_max":0,"o":"m 543 843 b 444 885 506 843 475 860 b 375 918 414 908 400 918 b 317 833 343 918 319 897 l 236 833 b 372 1006 239 950 294 1006 b 481 963 417 1006 447 989 b 547 931 508 940 526 931 b 603 1019 579 931 597 953 l 682 1019 b 543 843 678 904 626 843 m 106 118 l 394 118 l 394 621 l 119 621 l 119 739 l 536 739 l 536 118 l 783 118 l 783 0 l 106 0 "},"j":{"ha":833,"x_min":0,"x_max":0,"o":"m 478 992 l 624 992 l 624 846 l 478 846 m 147 -90 l 372 -90 b 483 26 447 -90 483 -62 l 483 621 l 158 621 l 158 739 l 625 739 l 625 18 b 388 -208 625 -128 550 -208 l 147 -208 "},"ȷ":{"ha":833,"x_min":0,"x_max":0,"o":"m 147 -90 l 372 -90 b 483 26 447 -90 483 -62 l 483 621 l 158 621 l 158 739 l 625 739 l 625 18 b 388 -208 625 -128 550 -208 l 147 -208 "},"ĵ":{"ha":833,"x_min":0,"x_max":0,"o":"m 479 1021 l 622 1021 l 754 828 l 643 828 l 551 951 l 458 828 l 349 828 m 147 -90 l 372 -90 b 483 26 447 -90 483 -62 l 483 621 l 158 621 l 158 739 l 625 739 l 625 18 b 388 -208 625 -128 550 -208 l 147 -208 "},"k":{"ha":833,"x_min":0,"x_max":0,"o":"m 111 986 l 251 986 l 251 367 l 585 739 l 764 739 l 475 425 l 776 0 l 611 0 l 382 331 l 251 193 l 251 0 l 111 0 "},"ǩ":{"ha":833,"x_min":0,"x_max":0,"o":"m 93 1268 l 185 1144 l 278 1268 l 388 1268 l 257 1075 l 114 1075 l -18 1268 m 111 986 l 251 986 l 251 367 l 585 739 l 764 739 l 475 425 l 776 0 l 611 0 l 382 331 l 251 193 l 251 0 l 111 0 "},"ķ":{"ha":833,"x_min":0,"x_max":0,"o":"m 111 986 l 251 986 l 251 367 l 585 739 l 764 739 l 475 425 l 776 0 l 611 0 l 382 331 l 251 193 l 251 0 l 111 0 m 401 -208 l 350 -208 l 350 -72 l 501 -72 l 501 -200 l 410 -339 l 324 -339 "},"l":{"ha":833,"x_min":0,"x_max":0,"o":"m 78 118 l 367 118 l 367 776 b 275 868 367 835 333 868 l 106 868 l 106 986 l 290 986 b 507 769 433 986 507 913 l 507 118 l 756 118 l 756 0 l 78 0 "},"ĺ":{"ha":833,"x_min":0,"x_max":0,"o":"m 415 1264 l 571 1264 l 446 1078 l 326 1078 m 78 118 l 367 118 l 367 776 b 275 868 367 835 333 868 l 106 868 l 106 986 l 290 986 b 507 769 433 986 507 913 l 507 118 l 756 118 l 756 0 l 78 0 "},"ľ":{"ha":833,"x_min":0,"x_max":0,"o":"m 78 118 l 367 118 l 367 776 b 275 868 367 835 333 868 l 106 868 l 106 986 l 290 986 b 507 769 433 986 507 913 l 507 118 l 756 118 l 756 0 l 78 0 m 624 986 l 758 986 l 682 618 l 582 618 "},"ļ":{"ha":833,"x_min":0,"x_max":0,"o":"m 78 118 l 367 118 l 367 776 b 275 868 367 835 333 868 l 106 868 l 106 986 l 290 986 b 507 769 433 986 507 913 l 507 118 l 756 118 l 756 0 l 78 0 m 411 -208 l 360 -208 l 360 -72 l 511 -72 l 511 -200 l 418 -339 l 332 -339 "},"ł":{"ha":833,"x_min":0,"x_max":0,"o":"m 78 118 l 367 118 l 367 460 l 219 404 l 219 511 l 367 567 l 367 776 b 275 868 367 835 333 868 l 106 868 l 106 986 l 290 986 b 507 769 433 986 507 913 l 507 619 l 664 678 l 664 571 l 507 513 l 507 118 l 756 118 l 756 0 l 78 0 "},"m":{"ha":833,"x_min":0,"x_max":0,"o":"m 50 739 l 172 739 l 176 629 b 321 756 201 710 251 756 b 458 614 397 756 440 707 b 617 756 483 703 540 756 b 783 499 732 756 783 681 l 783 0 l 647 0 l 647 475 b 571 633 647 593 622 633 b 483 472 519 633 483 585 l 483 0 l 350 0 l 350 475 b 275 633 350 589 329 633 b 186 472 222 633 186 585 l 186 0 l 50 0 "},"n":{"ha":833,"x_min":0,"x_max":0,"o":"m 111 739 l 240 739 l 243 606 b 475 756 282 708 372 756 b 722 476 640 756 722 635 l 722 0 l 582 0 l 582 440 b 435 633 582 568 533 633 b 251 438 332 633 251 565 l 251 0 l 111 0 "},"ń":{"ha":833,"x_min":0,"x_max":0,"o":"m 443 1017 l 597 1017 l 472 831 l 353 831 m 111 739 l 240 739 l 243 606 b 475 756 282 708 372 756 b 722 476 640 756 722 635 l 722 0 l 582 0 l 582 440 b 435 633 582 568 533 633 b 251 438 332 633 251 565 l 251 0 l 111 0 "},"ň":{"ha":833,"x_min":0,"x_max":0,"o":"m 324 1021 l 415 897 l 508 1021 l 618 1021 l 488 828 l 344 828 l 213 1021 m 111 739 l 240 739 l 243 606 b 475 756 282 708 372 756 b 722 476 640 756 722 635 l 722 0 l 582 0 l 582 440 b 435 633 582 568 533 633 b 251 438 332 633 251 565 l 251 0 l 111 0 "},"ņ":{"ha":833,"x_min":0,"x_max":0,"o":"m 111 739 l 240 739 l 243 606 b 475 756 282 708 372 756 b 722 476 640 756 722 635 l 722 0 l 582 0 l 582 440 b 435 633 582 568 533 633 b 251 438 332 633 251 565 l 251 0 l 111 0 m 392 -208 l 340 -208 l 340 -72 l 492 -72 l 492 -200 l 399 -339 l 313 -339 "},"ñ":{"ha":833,"x_min":0,"x_max":0,"o":"m 500 843 b 400 885 463 843 432 860 b 331 918 371 908 357 918 b 272 833 299 918 275 897 l 193 833 b 329 1006 196 950 250 1006 b 436 963 374 1006 403 989 b 503 931 464 940 482 931 b 560 1019 536 931 554 953 l 639 1019 b 500 843 633 904 582 843 m 111 739 l 240 739 l 243 606 b 475 756 282 708 372 756 b 722 476 640 756 722 635 l 722 0 l 582 0 l 582 440 b 435 633 582 568 533 633 b 251 438 332 633 251 565 l 251 0 l 111 0 "},"ŋ":{"ha":833,"x_min":0,"x_max":0,"o":"m 111 739 l 240 739 l 243 606 b 475 756 282 708 372 756 b 722 476 640 756 722 635 l 722 -8 b 514 -208 722 -129 642 -208 l 394 -208 l 394 -90 l 501 -90 b 582 -6 551 -90 582 -57 l 582 440 b 435 633 582 568 533 633 b 251 438 332 633 251 565 l 251 0 l 111 0 "},"o":{"ha":833,"x_min":0,"x_max":0,"o":"m 417 -17 b 75 369 210 -17 75 133 b 417 756 75 606 210 756 b 758 369 622 756 758 606 b 417 -17 758 133 622 -17 m 417 113 b 611 369 540 113 611 208 b 417 626 611 531 540 626 b 222 369 292 626 222 531 b 417 113 222 208 292 113 "},"ó":{"ha":833,"x_min":0,"x_max":0,"o":"m 443 1017 l 599 1017 l 474 831 l 354 831 m 417 -17 b 75 369 210 -17 75 133 b 417 756 75 606 210 756 b 758 369 622 756 758 606 b 417 -17 758 133 622 -17 m 417 113 b 611 369 540 113 611 208 b 417 626 611 531 540 626 b 222 369 292 626 222 531 b 417 113 222 208 292 113 "},"ô":{"ha":833,"x_min":0,"x_max":0,"o":"m 344 1021 l 488 1021 l 618 828 l 508 828 l 415 951 l 324 828 l 213 828 m 417 -17 b 75 369 210 -17 75 133 b 417 756 75 606 210 756 b 758 369 622 756 758 606 b 417 -17 758 133 622 -17 m 417 113 b 611 369 540 113 611 208 b 417 626 611 531 540 626 b 222 369 292 626 222 531 b 417 113 222 208 292 113 "},"ö":{"ha":833,"x_min":0,"x_max":0,"o":"m 208 990 l 353 990 l 353 844 l 208 844 m 481 990 l 625 990 l 625 844 l 481 844 m 417 -17 b 75 369 210 -17 75 133 b 417 756 75 606 210 756 b 758 369 622 756 758 606 b 417 -17 758 133 622 -17 m 417 113 b 611 369 540 113 611 208 b 417 626 611 531 540 626 b 222 369 292 626 222 531 b 417 113 222 208 292 113 "},"ò":{"ha":833,"x_min":0,"x_max":0,"o":"m 239 1017 l 393 1017 l 483 831 l 364 831 m 417 -17 b 75 369 210 -17 75 133 b 417 756 75 606 210 756 b 758 369 622 756 758 606 b 417 -17 758 133 622 -17 m 417 113 b 611 369 540 113 611 208 b 417 626 611 531 540 626 b 222 369 292 626 222 531 b 417 113 222 208 292 113 "},"ő":{"ha":833,"x_min":0,"x_max":0,"o":"m 335 1014 l 489 1014 l 364 828 l 244 828 m 546 1014 l 700 1014 l 575 828 l 456 828 m 417 -17 b 75 369 210 -17 75 133 b 417 756 75 606 210 756 b 758 369 622 756 758 606 b 417 -17 758 133 622 -17 m 417 113 b 611 369 540 113 611 208 b 417 626 611 531 540 626 b 222 369 292 626 222 531 b 417 113 222 208 292 113 "},"ō":{"ha":833,"x_min":0,"x_max":0,"o":"m 225 974 l 606 974 l 606 861 l 225 861 m 417 -17 b 75 369 210 -17 75 133 b 417 756 75 606 210 756 b 758 369 622 756 758 606 b 417 -17 758 133 622 -17 m 417 113 b 611 369 540 113 611 208 b 417 626 611 531 540 626 b 222 369 292 626 222 531 b 417 113 222 208 292 113 "},"ø":{"ha":833,"x_min":0,"x_max":0,"o":"m 174 83 b 75 369 111 150 75 249 b 417 756 75 606 210 756 b 588 713 481 756 539 740 l 617 758 l 728 758 l 660 656 b 758 369 722 589 758 490 b 417 -17 758 133 622 -17 b 246 25 351 -17 294 -1 l 217 -19 l 106 -19 m 222 369 b 256 208 222 304 233 250 l 514 601 b 417 626 486 618 454 626 b 222 369 292 626 222 531 m 417 113 b 611 369 540 113 611 208 b 578 531 611 435 600 489 l 319 138 b 417 113 347 121 379 113 "},"õ":{"ha":833,"x_min":0,"x_max":0,"o":"m 500 843 b 401 885 463 843 432 860 b 332 918 371 908 357 918 b 274 833 300 918 276 897 l 194 833 b 329 1006 197 950 251 1006 b 438 963 375 1006 404 989 b 504 931 465 940 483 931 b 560 1019 538 931 554 953 l 639 1019 b 500 843 635 904 583 843 m 417 -17 b 75 369 210 -17 75 133 b 417 756 75 606 210 756 b 758 369 622 756 758 606 b 417 -17 758 133 622 -17 m 417 113 b 611 369 540 113 611 208 b 417 626 611 531 540 626 b 222 369 292 626 222 531 b 417 113 222 208 292 113 "},"œ":{"ha":833,"x_min":0,"x_max":0,"o":"m 247 -17 b 14 369 101 -17 14 125 b 247 756 14 614 101 756 b 414 656 315 756 374 719 b 590 756 456 719 515 756 b 821 386 735 756 821 631 l 821 326 l 483 326 b 589 113 489 186 528 113 b 678 225 638 113 663 142 l 813 214 b 590 -17 779 49 714 -17 b 414 86 514 -17 454 21 b 247 -17 372 21 315 -17 m 249 113 b 344 369 310 113 344 199 b 249 628 344 539 310 628 b 151 369 188 628 151 538 b 249 113 151 200 188 113 m 682 438 b 583 628 674 567 640 628 b 485 438 526 628 496 567 "},"p":{"ha":833,"x_min":0,"x_max":0,"o":"m 100 739 l 233 739 l 235 619 b 460 756 278 708 358 756 b 769 369 672 756 769 578 b 460 -17 769 161 672 -17 b 240 99 363 -17 281 25 l 240 -208 l 100 -208 m 433 113 b 622 369 551 113 622 204 b 433 626 622 535 551 626 b 240 369 317 626 240 540 b 433 113 240 199 315 113 "},"þ":{"ha":833,"x_min":0,"x_max":0,"o":"m 101 986 l 244 986 l 244 638 b 464 756 282 707 361 756 b 771 369 679 756 771 575 b 467 -17 771 161 675 -17 b 244 100 364 -17 286 26 l 244 -208 l 101 -208 m 431 113 b 624 369 568 113 624 231 b 431 631 624 514 568 631 b 233 369 292 631 233 507 b 431 113 233 233 294 113 "},"q":{"ha":833,"x_min":0,"x_max":0,"o":"m 593 -208 l 593 99 b 374 -17 553 25 471 -17 b 64 369 161 -17 64 161 b 374 756 64 578 161 756 b 599 619 475 756 556 708 l 600 739 l 733 739 l 733 -208 m 400 113 b 593 369 518 113 593 199 b 400 626 593 540 517 626 b 211 369 282 626 211 535 b 400 113 211 204 282 113 "},"r":{"ha":833,"x_min":0,"x_max":0,"o":"m 117 118 l 304 118 l 304 621 l 117 621 l 117 739 l 415 739 l 424 594 b 601 739 447 692 507 739 l 758 739 l 758 617 l 607 617 b 444 439 500 617 444 556 l 444 118 l 675 118 l 675 0 l 117 0 "},"ŕ":{"ha":833,"x_min":0,"x_max":0,"o":"m 499 1017 l 653 1017 l 528 831 l 408 831 m 117 118 l 304 118 l 304 621 l 117 621 l 117 739 l 415 739 l 424 594 b 601 739 447 692 507 739 l 758 739 l 758 617 l 607 617 b 444 439 500 617 444 556 l 444 118 l 675 118 l 675 0 l 117 0 "},"ř":{"ha":833,"x_min":0,"x_max":0,"o":"m 379 1021 l 471 897 l 564 1021 l 674 1021 l 543 828 l 400 828 l 268 1021 m 117 118 l 304 118 l 304 621 l 117 621 l 117 739 l 415 739 l 424 594 b 601 739 447 692 507 739 l 758 739 l 758 617 l 607 617 b 444 439 500 617 444 556 l 444 118 l 675 118 l 675 0 l 117 0 "},"ŗ":{"ha":833,"x_min":0,"x_max":0,"o":"m 117 118 l 304 118 l 304 621 l 117 621 l 117 739 l 415 739 l 424 594 b 601 739 447 692 507 739 l 758 739 l 758 617 l 607 617 b 444 439 500 617 444 556 l 444 118 l 675 118 l 675 0 l 117 0 m 351 -208 l 300 -208 l 300 -72 l 451 -72 l 451 -200 l 358 -339 l 272 -339 "},"s":{"ha":833,"x_min":0,"x_max":0,"o":"m 428 -17 b 104 232 229 -17 115 93 l 247 240 b 429 110 261 158 321 110 b 586 196 529 110 586 138 b 408 301 586 251 556 275 b 122 529 190 342 122 404 b 410 756 122 658 221 756 b 718 515 606 756 697 643 l 575 507 b 410 629 560 578 503 629 b 267 529 310 629 267 585 b 444 417 267 463 311 442 b 729 197 668 378 729 319 b 428 -17 729 64 607 -17 "},"ś":{"ha":833,"x_min":0,"x_max":0,"o":"m 446 1017 l 601 1017 l 476 831 l 357 831 m 428 -17 b 104 232 229 -17 115 93 l 247 240 b 429 110 261 158 321 110 b 586 196 529 110 586 138 b 408 301 586 251 556 275 b 122 529 190 342 122 404 b 410 756 122 658 221 756 b 718 515 606 756 697 643 l 575 507 b 410 629 560 578 503 629 b 267 529 310 629 267 585 b 444 417 267 463 311 442 b 729 197 668 378 729 319 b 428 -17 729 64 607 -17 "},"š":{"ha":833,"x_min":0,"x_max":0,"o":"m 328 1021 l 419 897 l 511 1021 l 622 1021 l 492 828 l 347 828 l 217 1021 m 428 -17 b 104 232 229 -17 115 93 l 247 240 b 429 110 261 158 321 110 b 586 196 529 110 586 138 b 408 301 586 251 556 275 b 122 529 190 342 122 404 b 410 756 122 658 221 756 b 718 515 606 756 697 643 l 575 507 b 410 629 560 578 503 629 b 267 529 310 629 267 585 b 444 417 267 463 311 442 b 729 197 668 378 729 319 b 428 -17 729 64 607 -17 "},"ş":{"ha":833,"x_min":0,"x_max":0,"o":"m 408 -311 b 240 -200 318 -311 261 -264 l 318 -169 b 406 -225 335 -208 360 -225 b 478 -172 450 -225 478 -206 b 376 -112 478 -137 461 -112 l 332 -67 l 365 -12 b 104 232 206 8 114 108 l 247 240 b 429 110 261 158 321 110 b 586 196 529 110 586 138 b 408 301 586 251 556 275 b 122 529 190 342 122 404 b 410 756 122 658 221 756 b 718 515 606 756 697 643 l 575 507 b 410 629 560 578 503 629 b 267 529 310 629 267 585 b 444 417 267 463 311 442 b 729 197 668 378 729 319 b 460 -15 729 71 622 -7 l 438 -47 b 571 -175 528 -53 571 -104 b 408 -311 571 -260 501 -311 "},"ŝ":{"ha":833,"x_min":0,"x_max":0,"o":"m 347 1021 l 490 1021 l 621 828 l 511 828 l 418 951 l 326 828 l 215 828 m 428 -17 b 104 232 229 -17 115 93 l 247 240 b 429 110 261 158 321 110 b 586 196 529 110 586 138 b 408 301 586 251 556 275 b 122 529 190 342 122 404 b 410 756 122 658 221 756 b 718 515 606 756 697 643 l 575 507 b 410 629 560 578 503 629 b 267 529 310 629 267 585 b 444 417 267 463 311 442 b 729 197 668 378 729 319 b 428 -17 729 64 607 -17 "},"ș":{"ha":833,"x_min":0,"x_max":0,"o":"m 428 -17 b 104 232 229 -17 115 93 l 247 240 b 429 110 261 158 321 110 b 586 196 529 110 586 138 b 408 301 586 251 556 275 b 122 529 190 342 122 404 b 410 756 122 658 221 756 b 718 515 606 756 697 643 l 575 507 b 410 629 560 578 503 629 b 267 529 310 629 267 585 b 444 417 267 463 311 442 b 729 197 668 378 729 319 b 428 -17 729 64 607 -17 m 394 -208 l 343 -208 l 343 -72 l 496 -72 l 496 -200 l 403 -339 l 317 -339 "},"ß":{"ha":833,"x_min":0,"x_max":0,"o":"m 97 679 b 411 1000 97 876 218 1000 b 708 740 599 1000 708 897 b 558 531 708 639 651 561 b 767 278 685 500 767 406 b 415 0 767 104 639 0 l 326 0 l 326 132 l 415 132 b 622 290 547 132 622 182 b 403 456 622 397 547 456 l 340 456 l 340 586 l 400 586 b 564 732 504 586 564 642 b 408 867 564 813 513 867 b 238 682 304 867 238 799 l 238 0 l 97 0 "},"t":{"ha":833,"x_min":0,"x_max":0,"o":"m 522 0 b 300 213 372 0 300 68 l 300 621 l 67 621 l 67 739 l 300 739 l 300 913 l 440 913 l 440 739 l 728 739 l 728 621 l 440 621 l 440 219 b 538 118 440 150 472 118 l 728 118 l 728 0 l 522 0 "},"ŧ":{"ha":833,"x_min":0,"x_max":0,"o":"m 140 451 l 300 451 l 300 621 l 67 621 l 67 739 l 300 739 l 300 913 l 440 913 l 440 739 l 728 739 l 728 621 l 440 621 l 440 451 l 661 451 l 661 347 l 440 347 l 440 219 b 538 118 440 150 472 118 l 728 118 l 728 0 l 522 0 b 300 213 372 0 300 68 l 300 347 l 140 347 "},"ť":{"ha":833,"x_min":0,"x_max":0,"o":"m 568 1147 l 701 1147 l 626 794 l 526 794 m 522 0 b 300 213 372 0 300 68 l 300 621 l 67 621 l 67 739 l 300 739 l 300 913 l 440 913 l 440 739 l 728 739 l 728 621 l 440 621 l 440 219 b 538 118 440 150 472 118 l 728 118 l 728 0 l 522 0 "},"ţ":{"ha":833,"x_min":0,"x_max":0,"o":"m 483 -311 b 315 -200 393 -311 336 -264 l 393 -169 b 481 -225 410 -208 435 -225 b 553 -172 525 -225 553 -206 b 451 -112 553 -137 536 -112 l 407 -67 l 453 6 b 300 213 349 25 300 93 l 300 621 l 67 621 l 67 739 l 300 739 l 300 913 l 440 913 l 440 739 l 728 739 l 728 621 l 440 621 l 440 219 b 538 118 440 150 472 118 l 728 118 l 728 0 l 546 0 l 513 -47 b 646 -175 603 -53 646 -104 b 483 -311 646 -260 576 -311 "},"ț":{"ha":833,"x_min":0,"x_max":0,"o":"m 522 0 b 300 213 372 0 300 68 l 300 621 l 67 621 l 67 739 l 300 739 l 300 913 l 440 913 l 440 739 l 728 739 l 728 621 l 440 621 l 440 219 b 538 118 440 150 472 118 l 728 118 l 728 0 l 522 0 m 469 -208 l 418 -208 l 418 -72 l 571 -72 l 571 -200 l 478 -339 l 392 -339 "},"u":{"ha":833,"x_min":0,"x_max":0,"o":"m 353 -17 b 118 261 210 -17 118 85 l 118 739 l 258 739 l 258 297 b 399 106 258 164 304 106 b 568 303 501 106 568 178 l 568 739 l 708 739 l 708 0 l 576 0 l 576 124 b 353 -17 538 33 460 -17 "},"ú":{"ha":833,"x_min":0,"x_max":0,"o":"m 435 1017 l 589 1017 l 464 831 l 344 831 m 353 -17 b 118 261 210 -17 118 85 l 118 739 l 258 739 l 258 297 b 399 106 258 164 304 106 b 568 303 501 106 568 178 l 568 739 l 708 739 l 708 0 l 576 0 l 576 124 b 353 -17 538 33 460 -17 "},"ŭ":{"ha":833,"x_min":0,"x_max":0,"o":"m 408 832 b 208 1019 292 832 214 906 l 300 1019 b 408 928 307 954 349 928 b 517 1019 468 928 508 954 l 608 1019 b 408 832 603 906 525 832 m 353 -17 b 118 261 210 -17 118 85 l 118 739 l 258 739 l 258 297 b 399 106 258 164 304 106 b 568 303 501 106 568 178 l 568 739 l 708 739 l 708 0 l 576 0 l 576 124 b 353 -17 538 33 460 -17 "},"û":{"ha":833,"x_min":0,"x_max":0,"o":"m 335 1021 l 479 1021 l 610 828 l 499 828 l 407 951 l 315 828 l 204 828 m 353 -17 b 118 261 210 -17 118 85 l 118 739 l 258 739 l 258 297 b 399 106 258 164 304 106 b 568 303 501 106 568 178 l 568 739 l 708 739 l 708 0 l 576 0 l 576 124 b 353 -17 538 33 460 -17 "},"ü":{"ha":833,"x_min":0,"x_max":0,"o":"m 199 990 l 344 990 l 344 844 l 199 844 m 472 990 l 617 990 l 617 844 l 472 844 m 353 -17 b 118 261 210 -17 118 85 l 118 739 l 258 739 l 258 297 b 399 106 258 164 304 106 b 568 303 501 106 568 178 l 568 739 l 708 739 l 708 0 l 576 0 l 576 124 b 353 -17 538 33 460 -17 "},"ù":{"ha":833,"x_min":0,"x_max":0,"o":"m 231 1017 l 385 1017 l 475 831 l 356 831 m 353 -17 b 118 261 210 -17 118 85 l 118 739 l 258 739 l 258 297 b 399 106 258 164 304 106 b 568 303 501 106 568 178 l 568 739 l 708 739 l 708 0 l 576 0 l 576 124 b 353 -17 538 33 460 -17 "},"ű":{"ha":833,"x_min":0,"x_max":0,"o":"m 326 1014 l 481 1014 l 356 828 l 236 828 m 538 1014 l 692 1014 l 567 828 l 447 828 m 353 -17 b 118 261 210 -17 118 85 l 118 739 l 258 739 l 258 297 b 399 106 258 164 304 106 b 568 303 501 106 568 178 l 568 739 l 708 739 l 708 0 l 576 0 l 576 124 b 353 -17 538 33 460 -17 "},"ū":{"ha":833,"x_min":0,"x_max":0,"o":"m 217 974 l 597 974 l 597 861 l 217 861 m 353 -17 b 118 261 210 -17 118 85 l 118 739 l 258 739 l 258 297 b 399 106 258 164 304 106 b 568 303 501 106 568 178 l 568 739 l 708 739 l 708 0 l 576 0 l 576 124 b 353 -17 538 33 460 -17 "},"ų":{"ha":833,"x_min":0,"x_max":0,"o":"m 353 -17 b 118 261 210 -17 118 85 l 118 739 l 258 739 l 258 297 b 399 106 258 164 304 106 b 568 303 501 106 568 178 l 568 739 l 708 739 l 708 0 l 661 -61 b 619 -151 626 -107 619 -129 b 660 -190 619 -178 635 -190 b 722 -171 679 -190 707 -183 l 757 -257 b 628 -294 733 -279 683 -294 b 496 -181 546 -294 496 -251 b 553 -40 496 -132 515 -89 l 586 0 l 576 0 l 576 124 b 353 -17 538 33 460 -17 "},"ů":{"ha":833,"x_min":0,"x_max":0,"o":"m 408 800 b 275 932 332 800 275 857 b 408 1064 275 1007 332 1064 b 542 932 483 1064 542 1007 b 408 800 542 857 483 800 m 408 874 b 465 932 442 874 465 899 b 408 989 465 965 442 989 b 350 932 375 989 350 965 b 408 874 350 899 375 874 m 353 -17 b 118 261 210 -17 118 85 l 118 739 l 258 739 l 258 297 b 399 106 258 164 304 106 b 568 303 501 106 568 178 l 568 739 l 708 739 l 708 0 l 576 0 l 576 124 b 353 -17 538 33 460 -17 "},"ũ":{"ha":833,"x_min":0,"x_max":0,"o":"m 492 843 b 393 885 454 843 424 860 b 324 918 363 908 349 918 b 265 833 292 918 268 897 l 185 833 b 321 1006 188 950 243 1006 b 429 963 365 1006 396 989 b 496 931 457 940 475 931 b 551 1019 528 931 546 953 l 631 1019 b 492 843 626 904 575 843 m 353 -17 b 118 261 210 -17 118 85 l 118 739 l 258 739 l 258 297 b 399 106 258 164 304 106 b 568 303 501 106 568 178 l 568 739 l 708 739 l 708 0 l 576 0 l 576 124 b 353 -17 538 33 460 -17 "},"v":{"ha":833,"x_min":0,"x_max":0,"o":"m 63 739 l 214 739 l 417 149 l 619 739 l 771 739 l 504 0 l 329 0 "},"w":{"ha":833,"x_min":0,"x_max":0,"o":"m 25 739 l 172 739 l 260 168 l 357 635 l 476 635 l 574 168 l 661 739 l 808 739 l 667 0 l 508 0 l 417 432 l 325 0 l 168 0 "},"ẃ":{"ha":833,"x_min":0,"x_max":0,"o":"m 443 1017 l 599 1017 l 474 831 l 354 831 m 25 739 l 172 739 l 260 168 l 357 635 l 476 635 l 574 168 l 661 739 l 808 739 l 667 0 l 508 0 l 417 432 l 325 0 l 168 0 "},"ŵ":{"ha":833,"x_min":0,"x_max":0,"o":"m 344 1021 l 488 1021 l 618 828 l 508 828 l 415 951 l 324 828 l 213 828 m 25 739 l 172 739 l 260 168 l 357 635 l 476 635 l 574 168 l 661 739 l 808 739 l 667 0 l 508 0 l 417 432 l 325 0 l 168 0 "},"ẅ":{"ha":833,"x_min":0,"x_max":0,"o":"m 208 990 l 353 990 l 353 844 l 208 844 m 481 990 l 625 990 l 625 844 l 481 844 m 25 739 l 172 739 l 260 168 l 357 635 l 476 635 l 574 168 l 661 739 l 808 739 l 667 0 l 508 0 l 417 432 l 325 0 l 168 0 "},"ẁ":{"ha":833,"x_min":0,"x_max":0,"o":"m 239 1017 l 393 1017 l 483 831 l 364 831 m 25 739 l 172 739 l 260 168 l 357 635 l 476 635 l 574 168 l 661 739 l 808 739 l 667 0 l 508 0 l 417 432 l 325 0 l 168 0 "},"x":{"ha":833,"x_min":0,"x_max":0,"o":"m 335 379 l 79 739 l 238 739 l 418 475 l 594 739 l 756 739 l 501 376 l 768 0 l 608 0 l 418 283 l 226 0 l 65 0 "},"y":{"ha":833,"x_min":0,"x_max":0,"o":"m 181 -90 l 271 -90 b 357 -40 321 -90 343 -76 l 382 25 l 335 25 l 65 739 l 217 739 l 426 157 l 622 739 l 772 739 l 478 -83 b 285 -208 447 -171 389 -208 l 181 -208 "},"ý":{"ha":833,"x_min":0,"x_max":0,"o":"m 449 1017 l 603 1017 l 478 831 l 358 831 m 181 -90 l 271 -90 b 357 -40 321 -90 343 -76 l 382 25 l 335 25 l 65 739 l 217 739 l 426 157 l 622 739 l 772 739 l 478 -83 b 285 -208 447 -171 389 -208 l 181 -208 "},"ŷ":{"ha":833,"x_min":0,"x_max":0,"o":"m 349 1021 l 492 1021 l 622 828 l 513 828 l 419 951 l 328 828 l 217 828 m 181 -90 l 271 -90 b 357 -40 321 -90 343 -76 l 382 25 l 335 25 l 65 739 l 217 739 l 426 157 l 622 739 l 772 739 l 478 -83 b 285 -208 447 -171 389 -208 l 181 -208 "},"ÿ":{"ha":833,"x_min":0,"x_max":0,"o":"m 213 990 l 357 990 l 357 844 l 213 844 m 485 990 l 631 990 l 631 844 l 485 844 m 181 -90 l 271 -90 b 357 -40 321 -90 343 -76 l 382 25 l 335 25 l 65 739 l 217 739 l 426 157 l 622 739 l 772 739 l 478 -83 b 285 -208 447 -171 389 -208 l 181 -208 "},"ỳ":{"ha":833,"x_min":0,"x_max":0,"o":"m 243 1017 l 397 1017 l 488 831 l 368 831 m 181 -90 l 271 -90 b 357 -40 321 -90 343 -76 l 382 25 l 335 25 l 65 739 l 217 739 l 426 157 l 622 739 l 772 739 l 478 -83 b 285 -208 447 -171 389 -208 l 181 -208 "},"ỹ":{"ha":833,"x_min":0,"x_max":0,"o":"m 506 843 b 406 885 467 843 438 860 b 336 918 375 908 363 918 b 278 833 304 918 281 897 l 199 833 b 333 1006 201 950 256 1006 b 442 963 379 1006 408 989 b 508 931 469 940 488 931 b 564 1019 542 931 560 953 l 644 1019 b 506 843 639 904 588 843 m 181 -90 l 271 -90 b 357 -40 321 -90 343 -76 l 382 25 l 335 25 l 65 739 l 217 739 l 426 157 l 622 739 l 772 739 l 478 -83 b 285 -208 447 -171 389 -208 l 181 -208 "},"z":{"ha":833,"x_min":0,"x_max":0,"o":"m 108 132 l 556 621 l 122 621 l 122 739 l 714 739 l 714 607 l 265 118 l 725 118 l 725 0 l 108 0 "},"ź":{"ha":833,"x_min":0,"x_max":0,"o":"m 446 1017 l 600 1017 l 475 831 l 356 831 m 108 132 l 556 621 l 122 621 l 122 739 l 714 739 l 714 607 l 265 118 l 725 118 l 725 0 l 108 0 "},"ž":{"ha":833,"x_min":0,"x_max":0,"o":"m 326 1021 l 418 897 l 511 1021 l 621 1021 l 490 828 l 347 828 l 215 1021 m 108 132 l 556 621 l 122 621 l 122 739 l 714 739 l 714 607 l 265 118 l 725 118 l 725 0 l 108 0 "},"ż":{"ha":833,"x_min":0,"x_max":0,"o":"m 344 992 l 490 992 l 490 846 l 344 846 m 108 132 l 556 621 l 122 621 l 122 739 l 714 739 l 714 607 l 265 118 l 725 118 l 725 0 l 108 0 "},"ꞌ":{"ha":833,"x_min":0,"x_max":0,"o":"m 343 790 l 343 986 l 490 986 l 490 790 l 472 511 l 363 511 "},"ª":{"ha":833,"x_min":0,"x_max":0,"o":"m 335 522 b 169 647 235 522 169 568 b 324 794 169 732 225 774 l 475 825 b 394 915 475 885 444 915 b 310 849 346 915 318 892 l 178 854 b 394 1008 194 956 272 1008 b 606 815 535 1008 606 940 l 606 650 b 631 615 606 624 614 615 l 644 615 l 644 526 b 596 522 638 525 618 522 b 493 604 547 522 503 540 b 335 522 471 557 415 522 m 360 608 b 475 715 426 608 475 649 l 475 743 l 368 719 b 303 658 324 710 303 688 b 360 608 303 628 322 608 "},"º":{"ha":833,"x_min":0,"x_max":0,"o":"m 417 522 b 175 765 268 522 175 617 b 417 1008 175 913 268 1008 b 658 765 564 1008 658 911 b 417 522 658 617 564 522 m 417 619 b 528 765 486 619 528 672 b 417 911 528 857 486 911 b 306 765 344 911 306 854 b 417 619 306 674 344 619 "},"А":{"ha":833,"x_min":0,"x_max":0,"o":"m 322 986 l 511 986 l 800 0 l 649 0 l 578 257 l 256 257 l 185 0 l 33 0 m 293 392 l 540 392 l 417 835 "},"Б":{"ha":833,"x_min":0,"x_max":0,"o":"m 108 986 l 728 986 l 728 857 l 254 857 l 254 613 l 414 613 b 756 307 619 613 756 496 b 414 0 756 117 619 0 l 108 0 m 399 138 b 604 307 539 138 604 197 b 399 475 604 417 539 475 l 254 475 l 254 138 "},"В":{"ha":833,"x_min":0,"x_max":0,"o":"m 115 986 l 401 986 b 733 718 619 986 733 888 b 550 508 733 611 665 529 b 775 274 696 490 775 401 b 435 0 775 100 649 0 l 115 0 m 404 568 b 582 708 526 568 582 619 b 404 850 582 800 526 850 l 261 850 l 261 568 m 436 136 b 624 281 563 136 624 190 b 436 433 624 376 558 433 l 261 433 l 261 136 "},"Г":{"ha":833,"x_min":0,"x_max":0,"o":"m 135 986 l 768 986 l 768 857 l 271 857 l 271 0 l 135 0 "},"Ѓ":{"ha":833,"x_min":0,"x_max":0,"o":"m 478 1264 l 633 1264 l 508 1078 l 389 1078 m 135 986 l 768 986 l 768 857 l 271 857 l 271 0 l 135 0 "},"Ґ":{"ha":833,"x_min":0,"x_max":0,"o":"m 135 986 l 646 986 l 646 1201 l 782 1201 l 782 857 l 271 857 l 271 0 l 135 0 "},"Ғ":{"ha":833,"x_min":0,"x_max":0,"o":"m 135 390 l 26 390 l 26 521 l 135 521 l 135 986 l 768 986 l 768 857 l 271 857 l 271 521 l 601 521 l 601 390 l 271 390 l 271 0 l 135 0 "},"Д":{"ha":833,"x_min":0,"x_max":0,"o":"m 17 129 l 63 129 b 185 313 133 129 171 189 l 257 986 l 688 986 l 688 129 l 807 129 l 807 -208 l 671 -208 l 671 0 l 153 0 l 153 -208 l 17 -208 m 551 129 l 551 857 l 381 857 l 321 299 b 265 129 313 225 294 169 "},"Е":{"ha":833,"x_min":0,"x_max":0,"o":"m 122 986 l 728 986 l 728 849 l 268 849 l 268 561 l 711 561 l 711 428 l 268 428 l 268 138 l 739 138 l 739 0 l 122 0 "},"Ѐ":{"ha":833,"x_min":0,"x_max":0,"o":"m 261 1265 l 415 1265 l 506 1079 l 386 1079 m 122 986 l 728 986 l 728 849 l 268 849 l 268 561 l 711 561 l 711 428 l 268 428 l 268 138 l 739 138 l 739 0 l 122 0 "},"Ё":{"ha":833,"x_min":0,"x_max":0,"o":"m 231 1239 l 375 1239 l 375 1093 l 231 1093 m 503 1239 l 647 1239 l 647 1093 l 503 1093 m 122 986 l 728 986 l 728 849 l 268 849 l 268 561 l 711 561 l 711 428 l 268 428 l 268 138 l 739 138 l 739 0 l 122 0 "},"Ж":{"ha":833,"x_min":0,"x_max":0,"o":"m 218 493 l 21 986 l 165 986 l 349 528 l 349 986 l 485 986 l 485 528 l 668 986 l 813 986 l 615 493 l 825 0 l 681 0 l 485 460 l 485 0 l 349 0 l 349 460 l 153 0 l 8 0 "},"З":{"ha":833,"x_min":0,"x_max":0,"o":"m 419 -22 b 44 260 213 -22 53 90 l 186 268 b 417 107 194 169 290 107 b 644 282 553 107 644 176 b 432 461 644 407 535 463 l 333 460 l 333 589 l 432 588 b 611 746 510 586 611 628 b 417 879 611 826 532 879 b 221 757 310 879 232 831 l 78 765 b 419 1008 96 908 238 1008 b 753 750 613 1008 753 903 b 572 533 753 640 690 567 b 786 272 711 494 786 397 b 419 -22 786 100 632 -22 "},"И":{"ha":833,"x_min":0,"x_max":0,"o":"m 596 0 l 596 779 l 272 0 l 94 0 l 94 986 l 238 986 l 238 207 l 561 986 l 739 986 l 739 0 "},"Й":{"ha":833,"x_min":0,"x_max":0,"o":"m 417 1079 b 217 1267 300 1079 222 1153 l 308 1267 b 417 1175 317 1201 357 1175 b 525 1267 476 1175 517 1201 l 617 1267 b 417 1079 611 1153 533 1079 m 596 0 l 596 779 l 272 0 l 94 0 l 94 986 l 238 986 l 238 207 l 561 986 l 739 986 l 739 0 "},"Ѝ":{"ha":833,"x_min":0,"x_max":0,"o":"m 239 1264 l 393 1264 l 483 1078 l 364 1078 m 596 0 l 596 779 l 272 0 l 94 0 l 94 986 l 238 986 l 238 207 l 561 986 l 739 986 l 739 0 "},"К":{"ha":833,"x_min":0,"x_max":0,"o":"m 75 986 l 211 986 l 211 506 l 604 986 l 776 986 l 372 493 l 790 0 l 617 0 l 211 482 l 211 0 l 75 0 "},"Ќ":{"ha":833,"x_min":0,"x_max":0,"o":"m 438 1264 l 592 1264 l 467 1078 l 347 1078 m 75 986 l 211 986 l 211 506 l 604 986 l 776 986 l 372 493 l 790 0 l 617 0 l 211 482 l 211 0 l 75 0 "},"Л":{"ha":833,"x_min":0,"x_max":0,"o":"m 26 138 l 103 138 b 186 238 154 138 181 176 l 250 986 l 764 986 l 764 0 l 628 0 l 628 858 l 376 858 l 322 217 b 122 0 311 85 250 0 l 26 0 "},"М":{"ha":833,"x_min":0,"x_max":0,"o":"m 207 761 l 207 0 l 67 0 l 67 986 l 261 986 l 417 349 l 572 986 l 767 986 l 767 0 l 626 0 l 626 761 l 472 119 l 361 119 "},"Н":{"ha":833,"x_min":0,"x_max":0,"o":"m 78 986 l 224 986 l 224 564 l 610 564 l 610 986 l 756 986 l 756 0 l 610 0 l 610 428 l 224 428 l 224 0 l 78 0 "},"О":{"ha":833,"x_min":0,"x_max":0,"o":"m 417 -22 b 50 492 182 -22 50 163 b 417 1008 50 824 182 1008 b 783 492 651 1008 783 824 b 417 -22 783 163 651 -22 m 417 114 b 632 492 556 114 632 242 b 417 872 632 742 556 872 b 201 492 278 872 201 742 b 417 114 201 242 278 114 "},"П":{"ha":833,"x_min":0,"x_max":0,"o":"m 90 986 l 743 986 l 743 0 l 607 0 l 607 857 l 226 857 l 226 0 l 90 0 "},"Р":{"ha":833,"x_min":0,"x_max":0,"o":"m 119 986 l 425 986 b 767 679 631 986 767 869 b 425 374 767 490 631 374 l 265 374 l 265 0 l 119 0 m 410 511 b 615 679 550 511 615 569 b 410 849 615 789 550 849 l 265 849 l 265 511 "},"С":{"ha":833,"x_min":0,"x_max":0,"o":"m 421 -22 b 50 492 183 -22 50 175 b 421 1008 50 810 183 1008 b 769 671 600 1008 729 885 l 617 663 b 421 872 589 800 514 872 b 201 492 278 872 201 735 b 421 114 201 250 278 114 b 624 343 522 114 599 193 l 775 336 b 421 -22 740 111 610 -22 "},"Т":{"ha":833,"x_min":0,"x_max":0,"o":"m 344 849 l 56 849 l 56 986 l 778 986 l 778 849 l 489 849 l 489 0 l 344 0 "},"У":{"ha":833,"x_min":0,"x_max":0,"o":"m 188 129 l 274 129 b 349 182 311 129 333 143 l 381 272 l 331 272 l 64 986 l 214 986 l 425 400 l 628 986 l 776 986 l 468 122 b 292 0 439 39 382 0 l 188 0 "},"Ў":{"ha":833,"x_min":0,"x_max":0,"o":"m 422 1079 b 222 1267 306 1079 228 1153 l 314 1267 b 422 1175 322 1201 363 1175 b 531 1267 482 1175 524 1201 l 622 1267 b 422 1079 617 1153 539 1079 m 188 129 l 274 129 b 349 182 311 129 333 143 l 381 272 l 331 272 l 64 986 l 214 986 l 425 400 l 628 986 l 776 986 l 468 122 b 292 0 439 39 382 0 l 188 0 "},"Ф":{"ha":833,"x_min":0,"x_max":0,"o":"m 347 106 b 33 493 153 133 33 276 b 347 881 33 710 153 853 l 347 986 l 483 986 l 483 881 b 800 493 681 854 800 710 b 483 106 800 276 681 132 l 483 0 l 347 0 m 657 493 b 483 747 657 629 592 721 l 483 239 b 657 493 592 265 657 357 m 176 493 b 347 239 176 358 240 267 l 347 747 b 176 493 240 719 176 628 "},"Х":{"ha":833,"x_min":0,"x_max":0,"o":"m 322 496 l 67 986 l 232 986 l 418 607 l 604 986 l 767 986 l 511 494 l 771 0 l 606 0 l 415 385 l 224 0 l 63 0 "},"Ц":{"ha":833,"x_min":0,"x_max":0,"o":"m 678 0 l 71 0 l 71 986 l 207 986 l 207 129 l 589 129 l 589 986 l 725 986 l 725 129 l 814 129 l 814 -208 l 678 -208 "},"Ч":{"ha":833,"x_min":0,"x_max":0,"o":"m 600 461 b 351 331 556 382 461 331 b 69 644 185 331 69 451 l 69 986 l 206 986 l 206 661 b 361 461 206 538 272 461 b 600 663 499 461 600 543 l 600 986 l 736 986 l 736 0 l 600 0 "},"Ш":{"ha":833,"x_min":0,"x_max":0,"o":"m 69 986 l 206 986 l 206 129 l 351 129 l 351 986 l 482 986 l 482 129 l 628 129 l 628 986 l 764 986 l 764 0 l 69 0 "},"Щ":{"ha":833,"x_min":0,"x_max":0,"o":"m 44 986 l 179 986 l 179 129 l 324 129 l 324 986 l 453 986 l 453 129 l 597 129 l 597 986 l 733 986 l 733 129 l 814 129 l 814 -208 l 678 -208 l 678 0 l 44 0 "},"Џ":{"ha":833,"x_min":0,"x_max":0,"o":"m 349 0 l 90 0 l 90 986 l 226 986 l 226 129 l 607 129 l 607 986 l 743 986 l 743 0 l 485 0 l 485 -208 l 349 -208 "},"Ь":{"ha":833,"x_min":0,"x_max":0,"o":"m 265 986 l 265 613 l 425 613 b 767 307 631 613 767 496 b 425 0 767 117 631 0 l 119 0 l 119 986 m 265 138 l 410 138 b 615 307 550 138 615 197 b 410 475 615 417 550 475 l 265 475 "},"Ы":{"ha":833,"x_min":0,"x_max":0,"o":"m 43 986 l 181 986 l 181 613 l 238 613 b 579 304 456 613 579 500 b 238 0 579 111 456 0 l 43 0 m 654 986 l 790 986 l 790 0 l 654 0 m 238 129 b 436 304 371 129 436 189 b 238 483 436 422 371 483 l 181 483 l 181 129 "},"Ъ":{"ha":833,"x_min":0,"x_max":0,"o":"m 38 986 l 289 986 l 289 613 l 450 613 b 790 307 654 613 790 496 b 450 0 790 117 654 0 l 143 0 l 143 857 l 38 857 m 289 138 l 433 138 b 639 307 574 138 639 197 b 433 475 639 417 574 475 l 289 475 "},"Љ":{"ha":833,"x_min":0,"x_max":0,"o":"m 6 138 l 39 138 b 122 238 89 138 119 176 l 154 986 l 519 986 l 521 613 l 557 613 b 828 304 732 613 828 499 b 557 0 828 113 732 0 l 383 0 l 383 858 l 282 858 l 258 217 b 58 0 253 85 186 0 l 6 0 m 544 129 b 678 304 638 129 678 188 b 544 483 678 424 638 483 l 521 483 l 521 129 "},"Њ":{"ha":833,"x_min":0,"x_max":0,"o":"m 25 986 l 158 986 l 158 613 l 311 613 l 311 986 l 446 986 l 446 613 l 494 613 b 808 304 707 613 808 499 b 494 0 808 113 707 0 l 311 0 l 311 483 l 158 483 l 158 0 l 25 0 m 479 129 b 657 304 614 129 657 188 b 479 483 657 424 614 483 l 446 483 l 446 129 "},"Ѕ":{"ha":833,"x_min":0,"x_max":0,"o":"m 429 -22 b 60 321 215 -22 76 114 l 210 331 b 435 114 229 189 310 114 b 624 250 556 114 624 163 b 369 446 624 338 576 388 b 82 722 167 501 82 569 b 414 1008 82 892 207 1008 b 757 689 619 1008 738 879 l 607 681 b 410 872 592 794 528 872 b 232 729 301 872 232 815 b 456 563 232 643 281 611 b 774 250 692 499 774 411 b 429 -22 774 88 636 -22 "},"Є":{"ha":833,"x_min":0,"x_max":0,"o":"m 417 -22 b 50 492 182 -22 50 167 b 417 1008 50 819 182 1008 b 774 639 614 1008 738 875 l 629 639 b 417 879 603 793 529 879 b 194 557 286 879 208 764 l 475 557 l 475 426 l 194 426 b 417 107 208 221 286 107 b 629 346 529 107 603 192 l 774 346 b 417 -22 739 111 614 -22 "},"Э":{"ha":833,"x_min":0,"x_max":0,"o":"m 417 -22 b 60 346 219 -22 94 111 l 204 346 b 417 107 231 192 304 107 b 639 426 547 107 625 221 l 358 426 l 358 557 l 639 557 b 417 879 625 764 547 879 b 204 639 304 879 231 793 l 60 639 b 417 1008 96 875 219 1008 b 783 492 651 1008 783 819 b 417 -22 783 167 651 -22 "},"І":{"ha":833,"x_min":0,"x_max":0,"o":"m 108 138 l 344 138 l 344 849 l 108 849 l 108 986 l 725 986 l 725 849 l 489 849 l 489 138 l 725 138 l 725 0 l 108 0 "},"Ї":{"ha":833,"x_min":0,"x_max":0,"o":"m 208 1238 l 353 1238 l 353 1092 l 208 1092 m 481 1238 l 625 1238 l 625 1092 l 481 1092 m 108 138 l 344 138 l 344 849 l 108 849 l 108 986 l 725 986 l 725 849 l 489 849 l 489 138 l 725 138 l 725 0 l 108 0 "},"Ј":{"ha":833,"x_min":0,"x_max":0,"o":"m 382 -22 b 53 329 183 -22 58 113 l 197 340 b 383 114 201 186 260 114 b 565 335 506 114 565 186 l 565 986 l 711 986 l 711 335 b 382 -22 711 113 588 -22 "},"Ћ":{"ha":833,"x_min":0,"x_max":0,"o":"m 164 857 l 7 857 l 7 986 l 503 986 l 503 857 l 300 857 l 300 533 b 510 656 339 607 418 656 b 792 342 676 656 792 535 l 792 0 l 656 0 l 656 325 b 489 525 656 444 586 525 b 300 324 379 525 300 443 l 300 0 l 164 0 "},"Ю":{"ha":833,"x_min":0,"x_max":0,"o":"m 26 986 l 163 986 l 163 558 l 272 558 b 538 1008 282 871 364 1008 b 807 492 725 1008 807 851 b 538 -22 807 135 725 -22 b 272 428 364 -22 282 117 l 163 428 l 163 0 l 26 0 m 538 107 b 667 492 631 107 667 215 b 538 879 667 769 631 879 b 413 492 447 879 413 769 b 538 107 413 215 447 107 "},"Я":{"ha":833,"x_min":0,"x_max":0,"o":"m 593 0 l 593 385 l 418 385 l 217 0 l 57 0 l 286 414 b 86 685 161 460 86 544 b 424 986 86 876 213 986 l 739 986 l 739 0 m 593 849 l 425 849 b 238 685 296 849 238 790 b 425 521 238 578 294 521 l 593 521 "},"Ђ":{"ha":833,"x_min":0,"x_max":0,"o":"m 164 857 l 7 857 l 7 986 l 503 986 l 503 857 l 300 857 l 300 535 b 504 656 338 610 413 656 b 819 333 690 656 819 525 b 431 0 819 128 669 0 l 431 129 b 676 332 585 129 676 208 b 493 525 676 451 606 525 b 300 321 379 525 300 442 l 300 0 l 164 0 "},"Ѣ":{"ha":833,"x_min":0,"x_max":0,"o":"m 22 857 l 151 857 l 151 986 l 297 986 l 297 857 l 517 857 l 517 735 l 297 735 l 297 613 l 458 613 b 799 307 663 613 799 496 b 458 0 799 117 663 0 l 151 0 l 151 735 l 22 735 m 297 138 l 442 138 b 649 307 582 138 649 197 b 442 475 649 417 582 475 l 297 475 "},"Ѫ":{"ha":833,"x_min":0,"x_max":0,"o":"m 132 388 b 269 538 164 483 211 531 l 88 857 l 88 986 l 746 986 l 746 857 l 564 538 b 700 388 622 529 668 483 l 832 0 l 689 0 l 581 325 b 504 408 560 389 539 408 l 485 408 l 485 0 l 349 0 l 349 408 l 329 408 b 251 325 293 408 271 389 l 144 0 l 1 0 m 417 554 l 589 857 l 244 857 "},"Ѳ":{"ha":833,"x_min":0,"x_max":0,"o":"m 417 -22 b 50 492 182 -22 50 163 b 417 1008 50 824 182 1008 b 783 492 651 1008 783 824 b 417 -22 783 163 651 -22 m 393 575 b 632 518 543 517 574 510 b 417 872 626 751 550 872 b 207 604 300 872 228 781 b 393 575 263 610 336 597 m 417 114 b 626 382 533 114 607 204 b 401 440 579 381 531 392 b 215 471 336 464 265 476 b 201 468 211 471 206 469 b 417 114 206 233 282 114 "},"Ѵ":{"ha":833,"x_min":0,"x_max":0,"o":"m 18 986 l 163 986 l 394 219 l 568 796 b 765 986 603 915 676 986 l 826 986 l 826 857 l 808 857 b 693 733 751 857 721 825 l 467 0 l 324 0 "},"Җ":{"ha":833,"x_min":0,"x_max":0,"o":"m 208 493 l 19 986 l 157 986 l 333 528 l 333 986 l 464 986 l 464 528 l 639 986 l 778 986 l 588 493 l 744 108 l 822 108 l 822 -208 l 688 -208 l 688 0 l 650 0 l 464 460 l 464 0 l 333 0 l 333 460 l 146 0 l 8 0 "},"Қ":{"ha":833,"x_min":0,"x_max":0,"o":"m 58 986 l 194 986 l 194 506 l 588 986 l 760 986 l 356 493 l 681 108 l 800 108 l 800 -208 l 664 -208 l 664 0 l 600 0 l 194 482 l 194 0 l 58 0 "},"Ң":{"ha":833,"x_min":0,"x_max":0,"o":"m 54 986 l 200 986 l 200 564 l 588 564 l 588 986 l 732 986 l 732 108 l 815 108 l 815 -208 l 679 -208 l 679 0 l 588 0 l 588 428 l 200 428 l 200 0 l 54 0 "},"Ү":{"ha":833,"x_min":0,"x_max":0,"o":"m 344 406 l 51 986 l 213 986 l 417 556 l 621 986 l 782 986 l 490 406 l 490 0 l 344 0 "},"Ұ":{"ha":833,"x_min":0,"x_max":0,"o":"m 113 435 l 329 435 l 50 986 l 211 986 l 415 556 l 619 986 l 781 986 l 504 435 l 718 435 l 718 306 l 489 306 l 489 0 l 343 0 l 343 306 l 113 306 "},"Ҳ":{"ha":833,"x_min":0,"x_max":0,"o":"m 319 496 l 64 986 l 229 986 l 415 607 l 601 986 l 764 986 l 508 494 l 711 108 l 808 108 l 808 -208 l 672 -208 l 672 0 l 603 0 l 413 385 l 221 0 l 60 0 "},"Ҷ":{"ha":833,"x_min":0,"x_max":0,"o":"m 578 461 b 329 331 533 382 439 331 b 47 644 163 331 47 451 l 47 986 l 183 986 l 183 661 b 339 461 183 538 250 461 b 578 663 476 461 578 543 l 578 986 l 714 986 l 714 108 l 813 108 l 813 -208 l 676 -208 l 676 0 l 578 0 "},"Һ":{"ha":833,"x_min":0,"x_max":0,"o":"m 233 525 b 482 656 278 604 372 656 b 764 342 649 656 764 535 l 764 0 l 628 0 l 628 325 b 472 525 628 449 561 525 b 233 324 335 525 233 443 l 233 0 l 97 0 l 97 986 l 233 986 "},"Ӏ":{"ha":833,"x_min":0,"x_max":0,"o":"m 108 138 l 344 138 l 344 849 l 108 849 l 108 986 l 725 986 l 725 849 l 489 849 l 489 138 l 725 138 l 725 0 l 108 0 "},"Ә":{"ha":833,"x_min":0,"x_max":0,"o":"m 426 -22 b 50 475 188 -22 50 175 l 50 549 l 643 549 b 418 872 643 738 560 872 b 222 678 314 872 250 794 l 67 693 b 413 1008 121 889 244 1008 b 794 493 654 1008 794 822 b 426 -22 794 175 643 -22 m 426 114 b 642 415 558 114 642 228 l 206 415 b 426 114 206 225 290 114 "},"Ӣ":{"ha":833,"x_min":0,"x_max":0,"o":"m 225 1221 l 606 1221 l 606 1108 l 225 1108 m 596 0 l 596 779 l 272 0 l 94 0 l 94 986 l 238 986 l 238 207 l 561 986 l 739 986 l 739 0 "},"Ө":{"ha":833,"x_min":0,"x_max":0,"o":"m 417 -22 b 50 492 182 -22 50 163 b 417 1008 50 824 182 1008 b 783 492 651 1008 783 824 b 417 -22 783 163 651 -22 m 417 872 b 203 554 290 872 215 764 l 631 554 b 417 872 618 764 543 872 m 417 114 b 631 425 542 114 617 218 l 203 425 b 417 114 217 218 292 114 "},"Ӯ":{"ha":833,"x_min":0,"x_max":0,"o":"m 231 1221 l 613 1221 l 613 1108 l 231 1108 m 188 129 l 274 129 b 349 182 311 129 333 143 l 381 272 l 331 272 l 64 986 l 214 986 l 425 400 l 628 986 l 776 986 l 468 122 b 292 0 439 39 382 0 l 188 0 "},"а":{"ha":833,"x_min":0,"x_max":0,"o":"m 317 -17 b 71 186 178 -17 71 64 b 303 408 71 311 147 378 l 542 458 b 392 631 542 572 492 631 b 231 510 299 631 250 586 l 83 519 b 392 756 111 661 222 756 b 682 453 581 756 682 642 l 682 161 b 725 115 682 126 696 115 l 767 115 l 767 0 b 703 -4 756 -1 728 -4 b 551 106 618 -4 568 31 b 317 -17 514 33 424 -17 m 338 99 b 542 290 472 99 542 175 l 542 347 l 336 306 b 217 197 247 288 217 256 b 338 99 217 135 261 99 "},"б":{"ha":833,"x_min":0,"x_max":0,"o":"m 418 -22 b 179 90 328 -22 250 11 b 76 436 111 161 76 286 b 317 907 76 699 151 829 b 435 1060 407 949 435 981 l 568 1061 b 411 808 568 943 528 869 b 217 550 311 756 231 719 b 438 675 264 631 339 675 b 757 329 625 675 757 535 b 418 -22 757 113 613 -22 m 417 101 b 618 329 536 101 618 194 b 422 551 618 461 538 551 b 221 329 304 551 222 461 b 417 101 218 194 299 101 "},"в":{"ha":833,"x_min":0,"x_max":0,"o":"m 126 739 l 424 739 b 706 533 599 739 706 661 b 543 382 706 449 644 393 b 736 210 664 371 736 307 b 456 0 736 79 631 0 l 126 0 m 426 431 b 565 528 513 431 565 468 b 426 622 565 588 513 622 l 258 622 l 258 431 m 464 117 b 596 215 546 117 596 156 b 464 321 596 281 546 321 l 258 321 l 258 117 "},"г":{"ha":833,"x_min":0,"x_max":0,"o":"m 200 739 l 725 739 l 725 622 l 335 622 l 335 0 l 200 0 "},"ѓ":{"ha":833,"x_min":0,"x_max":0,"o":"m 490 1017 l 644 1017 l 519 831 l 400 831 m 200 739 l 725 739 l 725 622 l 335 622 l 335 0 l 200 0 "},"ґ":{"ha":833,"x_min":0,"x_max":0,"o":"m 200 739 l 588 739 l 588 954 l 725 954 l 725 622 l 335 622 l 335 0 l 200 0 "},"ғ":{"ha":833,"x_min":0,"x_max":0,"o":"m 200 310 l 56 310 l 56 426 l 200 426 l 200 739 l 725 739 l 725 622 l 335 622 l 335 426 l 489 426 l 489 310 l 335 310 l 335 0 l 200 0 "},"д":{"ha":833,"x_min":0,"x_max":0,"o":"m 26 117 l 88 117 b 190 253 146 117 178 161 l 256 739 l 689 739 l 689 117 l 807 117 l 807 -210 l 675 -210 l 675 0 l 161 0 l 158 -210 l 26 -210 m 321 243 b 276 117 314 192 299 150 l 557 117 l 557 622 l 374 622 l 321 243 "},"е":{"ha":833,"x_min":0,"x_max":0,"o":"m 426 -17 b 83 369 218 -17 83 135 b 422 756 83 603 217 756 b 756 367 618 756 756 611 l 756 328 l 231 328 b 428 113 239 186 313 113 b 596 225 515 113 574 157 l 743 215 b 426 -17 700 75 586 -17 m 604 440 b 422 626 593 567 521 626 b 231 440 318 626 249 563 "},"ѐ":{"ha":833,"x_min":0,"x_max":0,"o":"m 246 1015 l 400 1015 l 490 828 l 371 828 m 426 -17 b 83 369 218 -17 83 135 b 422 756 83 603 217 756 b 756 367 618 756 756 611 l 756 328 l 231 328 b 428 113 239 186 313 113 b 596 225 515 113 574 157 l 743 215 b 426 -17 700 75 586 -17 m 604 440 b 422 626 593 567 521 626 b 231 440 318 626 249 563 "},"ё":{"ha":833,"x_min":0,"x_max":0,"o":"m 214 988 l 360 988 l 360 843 l 214 843 m 488 988 l 632 988 l 632 843 l 488 843 m 426 -17 b 83 369 218 -17 83 135 b 422 756 83 603 217 756 b 756 367 618 756 756 611 l 756 328 l 231 328 b 428 113 239 186 313 113 b 596 225 515 113 574 157 l 743 215 b 426 -17 700 75 586 -17 m 604 440 b 422 626 593 567 521 626 b 231 440 318 626 249 563 "},"ж":{"ha":833,"x_min":0,"x_max":0,"o":"m 217 369 l 22 739 l 171 739 l 350 390 l 350 739 l 483 739 l 483 392 l 663 739 l 811 739 l 617 369 l 821 0 l 672 0 l 483 349 l 483 0 l 350 0 l 350 350 l 161 0 l 13 0 "},"з":{"ha":833,"x_min":0,"x_max":0,"o":"m 415 -17 b 104 214 231 -17 111 72 l 243 219 b 415 107 249 151 314 107 b 585 214 518 107 585 147 b 424 333 585 289 521 335 l 351 332 l 351 449 l 424 447 b 560 544 506 446 560 485 b 414 635 560 600 503 635 b 272 553 332 635 278 601 l 129 560 b 415 756 143 681 253 756 b 699 549 589 756 699 676 b 550 397 699 478 643 422 b 724 203 657 367 724 296 b 415 -17 724 68 604 -17 "},"и":{"ha":833,"x_min":0,"x_max":0,"o":"m 125 739 l 257 739 l 257 206 l 560 739 l 710 739 l 710 0 l 578 0 l 578 522 l 282 0 l 125 0 "},"й":{"ha":833,"x_min":0,"x_max":0,"o":"m 418 832 b 218 1019 301 832 224 906 l 310 1019 b 418 928 318 954 358 928 b 526 1019 478 928 518 954 l 618 1019 b 418 832 613 906 535 832 m 125 739 l 257 739 l 257 206 l 560 739 l 710 739 l 710 0 l 578 0 l 578 522 l 282 0 l 125 0 "},"ѝ":{"ha":833,"x_min":0,"x_max":0,"o":"m 240 1017 l 394 1017 l 485 831 l 365 831 m 125 739 l 257 739 l 257 206 l 560 739 l 710 739 l 710 0 l 578 0 l 578 522 l 282 0 l 125 0 "},"к":{"ha":833,"x_min":0,"x_max":0,"o":"m 117 739 l 251 739 l 251 381 l 581 739 l 760 739 l 415 369 l 776 0 l 594 0 l 251 358 l 251 0 l 117 0 "},"ќ":{"ha":833,"x_min":0,"x_max":0,"o":"m 442 1017 l 596 1017 l 471 831 l 351 831 m 117 739 l 251 739 l 251 381 l 581 739 l 760 739 l 415 369 l 776 0 l 594 0 l 251 358 l 251 0 l 117 0 "},"л":{"ha":833,"x_min":0,"x_max":0,"o":"m 35 128 l 94 128 b 175 228 142 128 168 163 l 231 739 l 740 739 l 740 0 l 608 0 l 608 622 l 350 622 l 307 206 b 122 0 293 71 233 0 l 35 0 "},"м":{"ha":833,"x_min":0,"x_max":0,"o":"m 58 739 l 224 739 l 424 161 l 622 739 l 786 739 l 786 0 l 654 0 l 654 450 l 496 0 l 350 0 l 188 456 l 179 0 l 47 0 "},"н":{"ha":833,"x_min":0,"x_max":0,"o":"m 117 739 l 251 739 l 251 426 l 582 426 l 582 739 l 717 739 l 717 0 l 582 0 l 582 310 l 251 310 l 251 0 l 117 0 "},"о":{"ha":833,"x_min":0,"x_max":0,"o":"m 417 -17 b 75 369 210 -17 75 133 b 417 756 75 606 210 756 b 758 369 622 756 758 606 b 417 -17 758 133 622 -17 m 417 113 b 611 369 540 113 611 208 b 417 626 611 531 540 626 b 222 369 292 626 222 531 b 417 113 222 208 292 113 "},"п":{"ha":833,"x_min":0,"x_max":0,"o":"m 115 739 l 718 739 l 718 0 l 585 0 l 585 622 l 249 622 l 249 0 l 115 0 "},"р":{"ha":833,"x_min":0,"x_max":0,"o":"m 100 739 l 233 739 l 235 619 b 460 756 278 708 358 756 b 769 369 672 756 769 578 b 460 -17 769 161 672 -17 b 240 99 363 -17 281 25 l 240 -208 l 100 -208 m 433 113 b 622 369 551 113 622 204 b 433 626 622 535 551 626 b 240 369 317 626 240 540 b 433 113 240 199 315 113 "},"с":{"ha":833,"x_min":0,"x_max":0,"o":"m 433 -17 b 89 369 226 -17 89 136 b 433 756 89 603 226 756 b 751 490 601 756 724 657 l 608 481 b 435 626 586 574 522 626 b 235 369 310 626 235 529 b 435 113 235 210 310 113 b 613 269 522 113 592 165 l 756 261 b 433 -17 728 93 603 -17 "},"т":{"ha":833,"x_min":0,"x_max":0,"o":"m 350 619 l 90 619 l 90 739 l 744 739 l 744 619 l 485 619 l 485 0 l 350 0 "},"у":{"ha":833,"x_min":0,"x_max":0,"o":"m 181 -90 l 271 -90 b 357 -40 321 -90 343 -76 l 382 25 l 335 25 l 65 739 l 217 739 l 426 157 l 622 739 l 772 739 l 478 -83 b 285 -208 447 -171 389 -208 l 181 -208 "},"ў":{"ha":833,"x_min":0,"x_max":0,"o":"m 421 832 b 221 1019 304 832 226 906 l 313 1019 b 421 928 321 954 361 928 b 529 1019 481 928 522 954 l 621 1019 b 421 832 615 906 538 832 m 181 -90 l 271 -90 b 357 -40 321 -90 343 -76 l 382 25 l 335 25 l 65 739 l 217 739 l 426 157 l 622 739 l 772 739 l 478 -83 b 285 -208 447 -171 389 -208 l 181 -208 "},"ф":{"ha":833,"x_min":0,"x_max":0,"o":"m 350 36 b 28 374 154 60 28 189 b 350 711 28 558 154 688 l 350 986 l 483 986 l 483 710 b 806 374 679 686 806 557 b 483 38 806 190 679 61 l 483 -208 l 350 -208 m 168 374 b 350 167 168 263 236 186 l 350 581 b 168 374 236 561 168 485 m 664 374 b 483 581 664 483 597 560 l 483 167 b 664 374 597 188 664 264 "},"х":{"ha":833,"x_min":0,"x_max":0,"o":"m 335 379 l 79 739 l 238 739 l 418 475 l 594 739 l 756 739 l 501 376 l 768 0 l 608 0 l 418 283 l 226 0 l 65 0 "},"ц":{"ha":833,"x_min":0,"x_max":0,"o":"m 681 0 l 110 0 l 110 739 l 243 739 l 243 117 l 579 117 l 579 739 l 713 739 l 713 117 l 813 117 l 813 -208 l 681 -208 "},"ч":{"ha":833,"x_min":0,"x_max":0,"o":"m 581 347 b 367 221 542 271 463 221 b 92 535 197 221 92 342 l 92 739 l 225 739 l 225 546 b 381 343 225 422 285 343 b 581 547 501 343 581 422 l 581 739 l 713 739 l 713 0 l 581 0 "},"ш":{"ha":833,"x_min":0,"x_max":0,"o":"m 71 739 l 203 739 l 203 117 l 351 117 l 351 739 l 482 739 l 482 117 l 629 117 l 629 739 l 763 739 l 763 0 l 71 0 "},"щ":{"ha":833,"x_min":0,"x_max":0,"o":"m 68 739 l 199 739 l 199 117 l 344 117 l 344 739 l 475 739 l 475 117 l 621 117 l 621 739 l 753 739 l 753 117 l 819 117 l 819 -210 l 688 -210 l 688 0 l 68 0 "},"џ":{"ha":833,"x_min":0,"x_max":0,"o":"m 350 0 l 115 0 l 115 739 l 249 739 l 249 117 l 585 117 l 585 739 l 718 739 l 718 0 l 483 0 l 483 -208 l 350 -208 "},"ь":{"ha":833,"x_min":0,"x_max":0,"o":"m 108 739 l 240 739 l 240 469 l 435 469 b 751 233 636 469 751 383 b 435 0 751 85 636 0 l 108 0 m 428 118 b 611 235 550 118 611 156 b 428 353 611 314 550 353 l 240 353 l 240 118 "},"ы":{"ha":833,"x_min":0,"x_max":0,"o":"m 44 739 l 176 739 l 176 469 l 272 469 b 589 233 478 469 589 386 b 272 0 589 82 476 0 l 44 0 m 657 739 l 789 739 l 789 0 l 657 0 m 267 118 b 450 235 390 118 450 156 b 267 353 450 314 390 353 l 176 353 l 176 118 "},"ъ":{"ha":833,"x_min":0,"x_max":0,"o":"m 132 622 l 14 622 l 14 739 l 264 739 l 264 469 l 458 469 b 775 233 660 469 775 383 b 458 0 775 85 660 0 l 132 0 m 453 118 b 636 235 574 118 636 156 b 453 353 636 314 574 353 l 264 353 l 264 118 "},"љ":{"ha":833,"x_min":0,"x_max":0,"o":"m 6 128 l 17 128 b 97 228 63 128 90 161 l 149 739 l 506 739 l 506 469 l 574 469 b 829 233 738 469 829 385 b 574 0 829 83 738 0 l 372 0 l 372 622 l 269 622 l 229 206 b 44 0 215 69 154 0 l 6 0 m 575 118 b 692 235 650 118 692 160 b 575 353 692 310 650 353 l 506 353 l 506 118 "},"њ":{"ha":833,"x_min":0,"x_max":0,"o":"m 26 739 l 158 739 l 158 469 l 358 469 l 358 739 l 492 739 l 492 469 l 560 469 b 815 233 724 469 815 385 b 560 0 815 83 724 0 l 358 0 l 358 353 l 158 353 l 158 0 l 26 0 m 561 118 b 678 235 636 118 678 160 b 561 353 678 310 636 353 l 492 353 l 492 118 "},"ѕ":{"ha":833,"x_min":0,"x_max":0,"o":"m 428 -17 b 104 232 229 -17 115 93 l 247 240 b 429 110 261 158 321 110 b 586 196 529 110 586 138 b 408 301 586 251 556 275 b 122 529 190 342 122 404 b 410 756 122 658 221 756 b 718 515 606 756 697 643 l 575 507 b 410 629 560 578 503 629 b 267 529 310 629 267 585 b 444 417 267 463 311 442 b 729 197 668 378 729 319 b 428 -17 729 64 607 -17 "},"є":{"ha":833,"x_min":0,"x_max":0,"o":"m 422 -17 b 81 369 218 -17 81 135 b 422 756 81 604 218 756 b 751 476 592 756 717 649 l 610 476 b 422 632 583 576 517 632 b 224 429 311 632 240 557 l 457 429 l 457 310 l 224 310 b 422 107 240 182 311 107 b 608 258 515 107 582 163 l 750 258 b 422 -17 715 88 590 -17 "},"э":{"ha":833,"x_min":0,"x_max":0,"o":"m 411 -17 b 83 258 243 -17 118 88 l 225 258 b 411 107 251 163 318 107 b 610 310 522 107 593 182 l 376 310 l 376 429 l 610 429 b 411 632 593 557 522 632 b 224 476 317 632 250 576 l 82 476 b 411 756 117 649 242 756 b 753 369 615 756 753 604 b 411 -17 753 135 615 -17 "},"і":{"ha":833,"x_min":0,"x_max":0,"o":"m 386 992 l 531 992 l 531 846 l 386 846 m 106 118 l 394 118 l 394 621 l 119 621 l 119 739 l 536 739 l 536 118 l 783 118 l 783 0 l 106 0 "},"ї":{"ha":833,"x_min":0,"x_max":0,"o":"m 250 990 l 396 990 l 396 844 l 250 844 m 524 990 l 668 990 l 668 844 l 524 844 m 106 118 l 394 118 l 394 621 l 119 621 l 119 739 l 536 739 l 536 118 l 783 118 l 783 0 l 106 0 "},"ј":{"ha":833,"x_min":0,"x_max":0,"o":"m 478 992 l 624 992 l 624 846 l 478 846 m 147 -90 l 372 -90 b 483 26 447 -90 483 -62 l 483 621 l 158 621 l 158 739 l 625 739 l 625 18 b 388 -208 625 -128 550 -208 l 147 -208 "},"ћ":{"ha":833,"x_min":0,"x_max":0,"o":"m 129 806 l 46 806 l 46 908 l 129 908 l 129 986 l 269 986 l 269 908 l 479 908 l 479 806 l 269 806 l 269 626 b 488 756 308 715 388 756 b 726 476 644 756 726 642 l 726 0 l 586 0 l 586 440 b 446 633 586 574 539 633 b 269 436 340 633 269 564 l 269 0 l 129 0 "},"ю":{"ha":833,"x_min":0,"x_max":0,"o":"m 25 739 l 157 739 l 157 428 l 238 428 b 517 756 253 639 351 756 b 797 369 697 756 797 618 b 517 -17 797 121 697 -17 b 238 311 351 -17 253 100 l 157 311 l 157 0 l 25 0 m 517 107 b 660 369 608 107 660 200 b 517 632 660 539 608 632 b 374 369 424 632 374 539 b 517 107 374 200 424 107 "},"я":{"ha":833,"x_min":0,"x_max":0,"o":"m 286 304 b 126 513 183 344 126 419 b 424 739 126 658 233 739 l 708 739 l 708 0 l 576 0 l 576 279 l 424 279 l 261 0 l 108 0 m 576 396 l 576 624 l 421 624 b 267 510 322 624 267 582 b 421 396 267 438 322 396 "},"ђ":{"ha":833,"x_min":0,"x_max":0,"o":"m 136 810 l 29 810 l 29 918 l 136 918 l 136 990 l 268 990 l 268 918 l 414 918 l 414 810 l 268 810 l 268 632 b 483 756 308 715 392 756 b 721 475 629 756 721 647 l 721 10 b 529 -210 721 -125 654 -210 l 453 -210 l 453 -92 l 507 -92 b 589 10 557 -92 589 -53 l 589 424 b 446 625 589 557 542 625 b 268 424 339 625 268 553 l 268 0 l 136 0 "},"ѣ":{"ha":833,"x_min":0,"x_max":0,"o":"m 176 738 l 13 738 l 13 857 l 176 857 l 176 990 l 308 990 l 308 857 l 472 857 l 472 738 l 308 738 l 308 497 l 486 497 b 811 247 693 497 811 406 b 486 0 811 89 693 0 l 176 0 m 489 118 b 672 247 606 118 672 164 b 489 381 672 332 606 381 l 308 381 l 308 118 "},"ѫ":{"ha":833,"x_min":0,"x_max":0,"o":"m 125 290 b 267 401 147 356 206 393 l 60 622 l 60 739 l 775 739 l 775 622 l 568 401 b 708 290 629 393 686 356 l 814 0 l 667 0 l 592 235 b 504 294 575 283 549 294 l 483 294 l 483 0 l 349 0 l 349 294 l 328 294 b 242 235 285 294 257 283 l 167 0 l 18 0 m 417 404 l 621 622 l 213 622 "},"ѳ":{"ha":833,"x_min":0,"x_max":0,"o":"m 417 -17 b 75 369 210 -17 75 133 b 417 756 75 606 210 756 b 758 369 622 756 758 606 b 417 -17 758 133 622 -17 m 388 436 b 583 381 513 379 533 376 b 611 386 593 381 603 383 b 417 626 607 538 536 626 b 231 463 318 626 254 567 b 388 436 278 467 338 458 m 417 113 b 599 263 510 113 574 167 b 396 315 553 258 519 261 b 243 346 342 340 283 349 b 222 343 236 344 229 344 b 417 113 231 197 300 113 "},"ѵ":{"ha":833,"x_min":0,"x_max":0,"o":"m 50 739 l 192 739 l 396 151 l 538 558 b 776 739 576 674 661 739 l 807 739 l 807 619 l 793 619 b 664 518 732 619 689 585 l 475 0 l 318 0 "},"җ":{"ha":833,"x_min":0,"x_max":0,"o":"m 215 369 l 22 739 l 169 739 l 347 390 l 347 739 l 479 739 l 479 392 l 657 739 l 804 739 l 611 369 l 757 103 l 821 103 l 821 -208 l 689 -208 l 689 0 l 667 0 l 479 349 l 479 0 l 347 0 l 347 350 l 160 0 l 13 0 "},"қ":{"ha":833,"x_min":0,"x_max":0,"o":"m 115 739 l 250 739 l 250 381 l 579 739 l 760 739 l 414 369 l 675 103 l 782 103 l 782 -208 l 649 -208 l 649 0 l 593 0 l 250 358 l 250 0 l 115 0 "},"ң":{"ha":833,"x_min":0,"x_max":0,"o":"m 114 739 l 249 739 l 249 426 l 579 426 l 579 739 l 714 739 l 714 103 l 806 103 l 806 -208 l 674 -208 l 674 0 l 579 0 l 579 310 l 249 310 l 249 0 l 114 0 "},"ү":{"ha":833,"x_min":0,"x_max":0,"o":"m 350 3 l 69 739 l 213 739 l 417 165 l 621 739 l 764 739 l 483 3 l 483 -208 l 350 -208 "},"ұ":{"ha":833,"x_min":0,"x_max":0,"o":"m 179 60 l 328 60 l 69 739 l 213 739 l 417 165 l 621 739 l 764 739 l 506 60 l 653 60 l 653 -57 l 483 -57 l 483 -208 l 350 -208 l 350 -57 l 179 -57 "},"ҳ":{"ha":833,"x_min":0,"x_max":0,"o":"m 335 379 l 79 739 l 238 739 l 418 475 l 594 739 l 756 739 l 501 376 l 694 103 l 796 103 l 796 -208 l 664 -208 l 664 0 l 608 0 l 418 283 l 226 0 l 65 0 "},"ҷ":{"ha":833,"x_min":0,"x_max":0,"o":"m 575 347 b 364 221 538 271 460 221 b 92 535 196 221 92 342 l 92 739 l 222 739 l 222 546 b 376 343 222 422 282 343 b 575 547 499 343 575 422 l 575 739 l 707 739 l 707 103 l 807 103 l 807 -210 l 675 -210 l 675 0 l 575 0 "},"һ":{"ha":833,"x_min":0,"x_max":0,"o":"m 129 986 l 269 986 l 269 626 b 488 756 308 715 388 756 b 726 476 644 756 726 642 l 726 0 l 586 0 l 586 440 b 446 633 586 574 539 633 b 269 436 340 633 269 564 l 269 0 l 129 0 "},"ӏ":{"ha":833,"x_min":0,"x_max":0,"o":"m 108 138 l 344 138 l 344 849 l 108 849 l 108 986 l 725 986 l 725 849 l 489 849 l 489 138 l 725 138 l 725 0 l 108 0 "},"ә":{"ha":833,"x_min":0,"x_max":0,"o":"m 407 756 b 750 369 615 756 750 604 b 411 -17 750 136 617 -17 b 78 372 215 -17 78 128 l 78 411 l 603 411 b 406 626 594 553 521 626 b 238 514 318 626 260 582 l 90 524 b 407 756 133 664 247 756 m 229 299 b 411 113 240 172 313 113 b 603 299 515 113 585 176 "},"ӣ":{"ha":833,"x_min":0,"x_max":0,"o":"m 226 974 l 607 974 l 607 861 l 226 861 m 125 739 l 257 739 l 257 206 l 560 739 l 710 739 l 710 0 l 578 0 l 578 522 l 282 0 l 125 0 "},"ө":{"ha":833,"x_min":0,"x_max":0,"o":"m 417 -17 b 75 369 210 -17 75 133 b 417 756 75 606 210 756 b 758 369 622 756 758 606 b 417 -17 758 133 622 -17 m 417 626 b 225 428 308 626 240 554 l 608 428 b 417 626 593 554 524 626 m 417 113 b 608 311 524 113 593 185 l 225 311 b 417 113 240 185 308 113 "},"ӯ":{"ha":833,"x_min":0,"x_max":0,"o":"m 229 974 l 611 974 l 611 861 l 229 861 m 181 -90 l 271 -90 b 357 -40 321 -90 343 -76 l 382 25 l 335 25 l 65 739 l 217 739 l 426 157 l 622 739 l 772 739 l 478 -83 b 285 -208 447 -171 389 -208 l 181 -208 "},"Λ":{"ha":833,"x_min":0,"x_max":0,"o":"m 332 986 l 501 986 l 800 0 l 660 0 l 417 836 l 174 0 l 33 0 "},"Ω":{"ha":833,"x_min":0,"x_max":0,"o":"m 14 129 l 204 129 b 13 519 89 204 13 364 b 417 1008 13 806 181 1008 b 821 519 653 1008 821 806 b 629 129 821 364 744 204 l 818 129 l 818 0 l 469 0 l 469 131 b 678 508 586 136 678 301 b 417 879 678 726 571 879 b 156 508 263 879 156 726 b 364 131 156 301 246 136 l 364 0 l 14 0 "},"λ":{"ha":833,"x_min":0,"x_max":0,"o":"m 343 693 l 311 797 b 225 875 296 847 275 875 l 142 875 l 142 990 l 228 990 b 444 804 344 990 403 939 l 635 194 b 719 117 651 144 671 117 l 769 117 l 769 0 l 717 0 b 501 188 601 0 543 53 l 404 500 l 214 0 l 74 0 "},"π":{"ha":833,"x_min":0,"x_max":0,"o":"m 167 625 l 22 625 l 22 742 l 808 742 l 808 625 l 671 625 l 671 215 b 763 118 671 154 703 118 l 807 118 l 807 0 l 764 0 b 539 218 606 0 539 83 l 539 625 l 299 625 l 299 0 l 167 0 "},"ℇ":{"ha":833,"x_min":0,"x_max":0,"o":"m 425 -22 b 67 272 211 -22 67 100 b 276 532 67 400 140 493 b 100 750 161 565 100 640 b 425 1008 100 903 232 1008 b 754 871 550 1008 681 953 l 665 763 b 428 883 608 833 510 883 b 242 744 313 883 242 829 b 428 582 242 628 339 581 l 499 583 l 499 461 l 428 463 b 208 283 294 465 208 394 b 428 103 208 176 294 103 b 700 238 519 103 632 156 l 785 126 b 425 -22 713 39 567 -22 "},"⓿":{"ha":833,"x_min":0,"x_max":0,"o":"m 417 -22 b 19 493 172 -22 19 176 b 417 1008 19 810 172 1008 b 814 493 660 1008 814 810 b 417 -22 814 176 660 -22 m 418 211 b 643 492 556 211 643 318 b 418 771 643 667 556 771 b 193 492 281 771 193 667 b 418 211 193 318 281 211 m 314 393 b 300 492 304 421 300 454 b 418 679 300 618 340 679 b 478 663 442 679 461 674 l 314 393 m 418 303 b 358 324 396 303 375 310 l 524 593 b 536 492 532 565 536 532 b 418 303 536 367 496 303 "},"❶":{"ha":833,"x_min":0,"x_max":0,"o":"m 417 -22 b 19 493 172 -22 19 176 b 417 1008 19 810 172 1008 b 814 493 660 1008 814 810 b 417 -22 814 176 660 -22 m 499 222 l 499 761 l 415 761 b 290 640 415 686 372 640 l 254 640 l 254 560 l 392 561 l 392 222 "},"❷":{"ha":833,"x_min":0,"x_max":0,"o":"m 417 -22 b 19 493 172 -22 19 176 b 417 1008 19 810 172 1008 b 814 493 660 1008 814 810 b 417 -22 814 176 660 -22 m 600 222 l 600 314 l 344 314 b 419 408 344 344 365 379 l 478 439 b 608 613 558 481 608 525 b 428 771 608 706 543 771 b 229 594 308 771 240 703 l 329 590 b 428 682 338 653 367 682 b 506 611 472 682 506 656 b 439 517 506 563 489 544 l 369 479 b 229 222 247 414 229 349 "},"❸":{"ha":833,"x_min":0,"x_max":0,"o":"m 417 -22 b 19 493 172 -22 19 176 b 417 1008 19 810 172 1008 b 814 493 660 1008 814 810 b 417 -22 814 176 660 -22 m 417 211 b 618 375 538 211 618 275 b 497 508 618 439 588 488 b 593 625 560 525 593 560 b 410 771 593 711 533 771 b 225 622 299 771 236 710 l 329 615 b 411 681 332 653 361 681 b 488 611 463 681 488 653 b 411 544 488 567 457 544 l 375 544 l 375 460 l 411 460 b 513 379 481 460 513 428 b 417 300 513 331 478 300 b 321 369 353 300 325 328 l 218 365 b 417 211 225 271 271 211 "},"❹":{"ha":833,"x_min":0,"x_max":0,"o":"m 417 -22 b 19 493 172 -22 19 176 b 417 1008 19 810 172 1008 b 814 493 660 1008 814 810 b 417 -22 814 176 660 -22 m 561 222 l 561 340 l 633 340 l 633 431 l 561 431 l 561 760 l 453 760 l 203 421 l 203 340 l 454 340 l 454 222 m 454 617 l 454 431 l 311 431 "},"❺":{"ha":833,"x_min":0,"x_max":0,"o":"m 417 -22 b 19 493 172 -22 19 176 b 417 1008 19 810 172 1008 b 814 493 660 1008 814 810 b 417 -22 814 176 660 -22 m 411 211 b 614 397 535 211 614 281 b 443 579 614 503 557 579 b 340 543 400 579 361 565 l 357 671 l 581 671 l 581 760 l 264 760 l 231 446 l 329 446 b 424 497 350 478 376 497 b 510 399 482 497 510 456 b 414 300 510 333 472 300 b 325 361 364 300 335 321 l 222 356 b 411 211 231 264 299 211 "},"❻":{"ha":833,"x_min":0,"x_max":0,"o":"m 417 -22 b 19 493 172 -22 19 176 b 417 1008 19 810 172 1008 b 814 493 660 1008 814 810 b 417 -22 814 176 660 -22 m 417 211 b 626 401 540 211 626 281 b 435 589 626 528 546 589 b 315 535 376 589 335 565 b 435 683 321 629 365 683 b 524 626 486 683 514 664 l 621 636 b 436 771 601 725 549 771 b 210 464 276 771 210 636 b 417 211 210 297 290 211 m 419 300 b 317 404 356 300 315 342 b 421 504 318 467 360 504 b 525 404 489 504 525 468 b 419 300 525 342 486 300 "},"❼":{"ha":833,"x_min":0,"x_max":0,"o":"m 417 -22 b 19 493 172 -22 19 176 b 417 1008 19 810 172 1008 b 814 493 660 1008 814 810 b 417 -22 814 176 660 -22 m 433 222 b 603 686 433 410 494 550 l 603 761 l 233 761 l 233 669 l 486 669 b 329 222 386 540 329 385 "},"❽":{"ha":833,"x_min":0,"x_max":0,"o":"m 417 -22 b 19 493 172 -22 19 176 b 417 1008 19 810 172 1008 b 814 493 660 1008 814 810 b 417 -22 814 176 660 -22 m 418 211 b 626 367 557 211 626 269 b 513 513 626 433 583 485 b 601 632 568 531 601 564 b 418 771 601 718 542 771 b 235 632 296 771 235 718 b 324 513 235 564 268 531 b 210 367 251 486 210 435 b 418 211 210 269 279 211 m 418 550 b 340 619 369 550 340 574 b 418 682 340 658 368 682 b 496 619 468 682 496 658 b 418 550 496 574 467 550 m 418 300 b 317 376 354 300 317 325 b 418 465 317 426 354 465 b 519 376 482 465 519 426 b 418 300 519 325 482 300 "},"❾":{"ha":833,"x_min":0,"x_max":0,"o":"m 417 -22 b 19 493 172 -22 19 176 b 417 1008 19 810 172 1008 b 814 493 660 1008 814 810 b 417 -22 814 176 660 -22 m 400 211 b 626 518 560 211 626 346 b 419 771 626 685 546 771 b 210 581 296 771 210 701 b 401 393 210 454 290 393 b 521 447 460 393 501 417 b 401 299 515 353 471 299 b 313 356 350 299 322 318 l 215 346 b 400 211 235 257 288 211 m 415 478 b 311 578 347 478 311 514 b 417 682 311 640 350 682 b 519 578 481 682 521 640 b 415 478 518 515 476 478 "},"⓪":{"ha":833,"x_min":0,"x_max":0,"o":"m 417 -22 b 17 493 168 -22 17 165 b 417 1008 17 821 168 1008 b 817 493 665 1008 817 821 b 417 -22 817 165 665 -22 m 417 74 b 719 493 603 74 719 222 b 417 913 719 764 603 913 b 114 493 229 913 114 764 b 417 74 114 222 229 74 m 418 211 b 193 492 281 211 193 318 b 418 771 193 667 279 771 b 643 492 556 771 643 667 b 418 211 643 318 554 211 m 300 492 b 314 393 300 454 304 421 l 478 663 b 418 679 461 674 440 679 b 300 492 339 679 300 618 m 418 303 b 536 492 494 303 536 367 b 522 594 536 532 532 567 l 358 322 b 418 303 375 310 396 303 "},"①":{"ha":833,"x_min":0,"x_max":0,"o":"m 417 -22 b 17 493 168 -22 17 165 b 417 1008 17 821 168 1008 b 817 493 665 1008 817 821 b 417 -22 817 165 665 -22 m 417 74 b 719 493 603 74 719 222 b 417 913 719 764 603 913 b 114 493 229 913 114 764 b 417 74 114 222 229 74 m 328 561 l 190 560 l 190 640 l 225 640 b 351 761 307 640 351 686 l 433 761 l 433 222 l 328 222 "},"②":{"ha":833,"x_min":0,"x_max":0,"o":"m 417 -22 b 17 493 168 -22 17 165 b 417 1008 17 821 168 1008 b 817 493 665 1008 817 821 b 417 -22 817 165 665 -22 m 417 74 b 719 493 603 74 719 222 b 417 913 719 764 603 913 b 114 493 229 913 114 764 b 417 74 114 222 229 74 m 229 222 b 369 479 229 349 247 414 l 439 517 b 506 611 489 544 506 563 b 428 682 506 656 472 682 b 329 590 367 682 338 653 l 229 594 b 428 771 240 703 308 771 b 608 613 543 771 608 706 b 478 439 608 525 558 481 l 419 408 b 344 314 365 379 344 344 l 600 314 l 600 222 l 229 222 "},"③":{"ha":833,"x_min":0,"x_max":0,"o":"m 417 -22 b 17 493 168 -22 17 165 b 417 1008 17 821 168 1008 b 817 493 665 1008 817 821 b 417 -22 817 165 665 -22 m 417 74 b 719 493 603 74 719 222 b 417 913 719 764 603 913 b 114 493 229 913 114 764 b 417 74 114 222 229 74 m 417 211 b 218 365 271 211 224 271 l 321 369 b 417 300 325 328 353 300 b 513 379 478 300 513 331 b 410 460 513 428 481 460 l 375 460 l 375 544 l 410 544 b 488 611 457 544 488 567 b 411 681 488 653 463 681 b 328 615 360 681 332 653 l 225 622 b 410 771 236 710 299 771 b 593 625 533 771 593 711 b 497 508 593 560 560 525 b 618 375 588 488 618 439 b 417 211 618 275 538 211 "},"④":{"ha":833,"x_min":0,"x_max":0,"o":"m 417 -22 b 17 493 168 -22 17 165 b 417 1008 17 821 168 1008 b 817 493 665 1008 817 821 b 417 -22 817 165 665 -22 m 417 74 b 719 493 603 74 719 222 b 417 913 719 764 603 913 b 114 493 229 913 114 764 b 417 74 114 222 229 74 m 429 340 l 178 340 l 178 421 l 428 760 l 536 760 l 536 431 l 608 431 l 608 340 l 536 340 l 536 222 l 429 222 m 429 431 l 429 617 l 286 431 "},"⑤":{"ha":833,"x_min":0,"x_max":0,"o":"m 417 -22 b 17 493 168 -22 17 165 b 417 1008 17 821 168 1008 b 817 493 665 1008 817 821 b 417 -22 817 165 665 -22 m 417 74 b 719 493 603 74 719 222 b 417 913 719 764 603 913 b 114 493 229 913 114 764 b 417 74 114 222 229 74 m 411 211 b 222 356 299 211 231 264 l 325 361 b 414 300 335 321 364 300 b 510 399 472 300 510 333 b 424 497 510 456 482 497 b 329 446 376 497 350 478 l 231 446 l 264 760 l 581 760 l 581 671 l 357 671 l 340 543 b 443 579 361 565 400 579 b 614 397 557 579 614 503 b 411 211 614 281 535 211 "},"⑥":{"ha":833,"x_min":0,"x_max":0,"o":"m 417 -22 b 17 493 168 -22 17 165 b 417 1008 17 821 168 1008 b 817 493 665 1008 817 821 b 417 -22 817 165 665 -22 m 417 74 b 719 493 603 74 719 222 b 417 913 719 764 603 913 b 114 493 229 913 114 764 b 417 74 114 222 229 74 m 417 211 b 208 464 290 211 208 297 b 435 771 208 636 275 771 b 621 636 547 771 600 725 l 522 626 b 433 683 513 664 485 683 b 314 535 364 683 319 629 b 433 589 333 565 375 589 b 625 401 544 589 625 528 b 417 211 625 281 539 211 m 418 300 b 524 404 485 300 524 342 b 419 504 524 468 488 504 b 315 404 358 504 317 467 b 418 300 314 342 354 300 "},"⑦":{"ha":833,"x_min":0,"x_max":0,"o":"m 417 -22 b 17 493 168 -22 17 165 b 417 1008 17 821 168 1008 b 817 493 665 1008 817 821 b 417 -22 817 165 665 -22 m 417 74 b 719 493 603 74 719 222 b 417 913 719 764 603 913 b 114 493 229 913 114 764 b 417 74 114 222 229 74 m 329 222 b 486 669 329 385 386 540 l 233 669 l 233 761 l 603 761 l 603 686 b 433 222 494 550 433 410 l 329 222 "},"⑧":{"ha":833,"x_min":0,"x_max":0,"o":"m 417 -22 b 17 493 168 -22 17 165 b 417 1008 17 821 168 1008 b 817 493 665 1008 817 821 b 417 -22 817 165 665 -22 m 417 74 b 719 493 603 74 719 222 b 417 913 719 764 603 913 b 114 493 229 913 114 764 b 417 74 114 222 229 74 m 418 211 b 210 367 279 211 210 269 b 324 513 210 435 251 486 b 235 632 268 531 235 564 b 418 771 235 718 296 771 b 601 632 542 771 601 718 b 513 513 601 564 568 531 b 626 367 583 485 626 433 b 418 211 626 269 557 211 m 418 550 b 496 619 467 550 496 574 b 418 682 496 658 468 682 b 340 619 368 682 340 658 b 418 550 340 574 369 550 m 418 300 b 519 376 482 300 519 325 b 418 465 519 426 482 465 b 317 376 354 465 317 426 b 418 300 317 325 354 300 "},"⑨":{"ha":833,"x_min":0,"x_max":0,"o":"m 417 -22 b 17 493 168 -22 17 165 b 417 1008 17 821 168 1008 b 817 493 665 1008 817 821 b 417 -22 817 165 665 -22 m 417 74 b 719 493 603 74 719 222 b 417 913 719 764 603 913 b 114 493 229 913 114 764 b 417 74 114 222 229 74 m 419 771 b 628 518 546 771 628 685 b 401 211 628 346 561 211 b 215 346 289 211 235 257 l 314 356 b 403 299 324 318 351 299 b 522 447 472 299 517 353 b 403 393 503 417 461 393 b 211 581 290 393 211 454 b 419 771 211 701 297 771 m 418 682 b 313 578 351 682 313 640 b 417 478 313 514 349 478 b 521 578 478 478 519 515 b 418 682 522 640 482 682 "},"⁄":{"ha":833,"x_min":0,"x_max":0,"o":"m 663 986 l 781 986 l 592 631 l 474 631 m 242 354 l 360 354 l 171 0 l 53 0 "},"½":{"ha":833,"x_min":0,"x_max":0,"o":"m 147 788 l 10 786 l 10 867 l 44 867 b 171 988 126 867 171 913 l 253 988 l 253 449 l 147 449 m 660 986 l 778 986 l 588 631 l 471 631 m 394 0 b 535 257 394 126 413 192 l 604 294 b 671 389 654 322 671 340 b 593 460 671 433 638 460 b 494 368 532 460 503 431 l 394 372 b 593 549 406 481 474 549 b 774 390 708 549 774 483 b 643 217 774 303 724 258 l 585 186 b 510 92 531 157 510 122 l 765 92 l 765 0 l 394 0 m 239 354 l 356 354 l 167 0 l 50 0 "},"⅓":{"ha":833,"x_min":0,"x_max":0,"o":"m 144 788 l 8 786 l 8 867 l 43 867 b 168 988 125 867 168 913 l 251 988 l 251 449 l 144 449 m 661 986 l 779 986 l 590 631 l 472 631 m 572 -11 b 374 143 428 -11 381 49 l 478 147 b 572 78 481 106 508 78 b 668 157 633 78 668 108 b 567 238 668 206 636 238 l 531 238 l 531 322 l 567 322 b 644 389 613 322 644 344 b 567 458 644 431 618 458 b 485 393 517 458 489 431 l 381 400 b 567 549 392 488 454 549 b 749 403 689 549 749 489 b 653 286 749 338 715 303 b 774 153 743 265 774 217 b 572 -11 774 53 693 -11 m 240 354 l 358 354 l 168 0 l 51 0 "},"⅔":{"ha":833,"x_min":0,"x_max":0,"o":"m 21 449 b 163 706 21 575 40 640 l 232 743 b 299 838 282 771 299 789 b 221 908 299 882 264 908 b 122 817 160 908 129 879 l 21 821 b 221 997 32 929 100 997 b 401 839 335 997 401 932 b 271 665 401 751 351 707 l 213 635 b 138 540 158 606 138 571 l 393 540 l 393 449 l 21 449 m 657 986 l 775 986 l 585 631 l 468 631 m 613 -11 b 414 143 467 -11 419 49 l 517 147 b 613 78 521 106 547 78 b 707 157 674 78 707 108 b 606 238 707 206 675 238 l 569 238 l 569 322 l 606 322 b 683 389 653 322 683 344 b 606 458 683 431 658 458 b 524 393 556 458 528 431 l 421 400 b 606 549 432 488 493 549 b 789 403 729 549 789 489 b 692 286 789 338 754 303 b 814 153 782 265 814 217 b 613 -11 814 53 732 -11 m 236 354 l 353 354 l 164 0 l 47 0 "},"¼":{"ha":833,"x_min":0,"x_max":0,"o":"m 144 788 l 8 786 l 8 867 l 43 867 b 168 988 125 867 168 913 l 251 988 l 251 449 l 144 449 m 660 986 l 778 986 l 588 631 l 471 631 m 571 118 l 319 118 l 319 199 l 571 538 l 678 538 l 678 208 l 750 208 l 750 118 l 678 118 l 678 0 l 571 0 m 571 208 l 571 394 l 428 208 m 239 354 l 356 354 l 167 0 l 50 0 "},"¾":{"ha":833,"x_min":0,"x_max":0,"o":"m 226 438 b 28 592 81 438 35 497 l 131 596 b 226 526 135 554 163 526 b 322 606 288 526 322 557 b 221 686 322 654 290 686 l 185 686 l 185 771 l 221 771 b 297 838 267 771 297 793 b 221 907 297 879 272 907 b 139 842 171 907 142 879 l 35 849 b 219 997 46 936 108 997 b 403 851 343 997 403 938 b 307 735 403 786 369 751 b 428 601 397 714 428 665 b 226 438 428 501 347 438 m 681 986 l 797 986 l 608 631 l 490 631 m 601 118 l 350 118 l 350 199 l 601 538 l 708 538 l 708 208 l 781 208 l 781 118 l 708 118 l 708 0 l 601 0 m 601 208 l 601 394 l 458 208 m 258 354 l 376 354 l 188 0 l 69 0 "},"⅕":{"ha":833,"x_min":0,"x_max":0,"o":"m 135 788 l -1 786 l -1 867 l 33 867 b 158 988 115 867 158 913 l 242 988 l 242 449 l 135 449 m 657 986 l 775 986 l 585 631 l 468 631 m 579 -11 b 389 133 465 -11 397 42 l 493 139 b 582 78 503 99 532 78 b 678 176 640 78 678 111 b 592 275 678 233 649 275 b 496 224 544 275 517 256 l 399 224 l 432 538 l 749 538 l 749 449 l 524 449 l 507 321 b 611 357 529 343 568 357 b 781 175 725 357 781 281 b 579 -11 781 58 703 -11 m 236 354 l 353 354 l 164 0 l 47 0 "},"⅛":{"ha":833,"x_min":0,"x_max":0,"o":"m 122 788 l -14 786 l -14 867 l 21 867 b 146 988 103 867 146 913 l 229 988 l 229 449 l 122 449 m 646 986 l 764 986 l 575 631 l 457 631 m 589 -11 b 381 144 450 -11 381 47 b 494 290 381 213 422 264 b 406 410 439 308 406 342 b 589 549 406 496 467 549 b 772 410 713 549 772 496 b 683 290 772 342 739 308 b 797 144 754 263 797 211 b 589 -11 797 47 728 -11 m 589 328 b 667 397 638 328 667 351 b 589 460 667 436 639 460 b 511 397 539 460 511 436 b 589 328 511 351 540 328 m 225 354 l 343 354 l 154 0 l 36 0 m 589 78 b 690 154 653 78 690 103 b 589 243 690 204 653 243 b 488 154 525 243 488 204 b 589 78 488 103 525 78 "},"⅜":{"ha":833,"x_min":0,"x_max":0,"o":"m 213 438 b 22 582 99 438 31 490 l 125 588 b 215 526 135 547 165 526 b 310 625 274 526 310 560 b 224 724 310 682 282 724 b 129 672 176 724 150 704 l 32 672 l 65 986 l 381 986 l 381 897 l 157 897 l 140 769 b 244 806 163 792 200 806 b 414 624 357 806 414 729 b 213 438 414 507 336 438 m 660 986 l 778 986 l 589 631 l 471 631 m 603 -11 b 394 144 464 -11 394 47 b 508 290 394 213 436 264 b 419 410 453 308 419 342 b 603 549 419 496 481 549 b 786 410 726 549 786 496 b 697 290 786 342 753 308 b 811 144 768 263 811 211 b 603 -11 811 47 742 -11 m 603 328 b 681 397 651 328 681 351 b 603 460 681 436 653 460 b 525 397 553 460 525 436 b 603 328 525 351 554 328 m 239 354 l 357 354 l 168 0 l 50 0 m 603 78 b 704 154 667 78 704 103 b 603 243 704 204 667 243 b 501 154 539 243 501 204 b 603 78 501 103 539 78 "},"⅝":{"ha":833,"x_min":0,"x_max":0,"o":"m 221 438 b 22 592 75 438 29 497 l 125 596 b 221 526 129 554 157 526 b 317 606 282 526 317 557 b 215 686 317 654 285 686 l 179 686 l 179 771 l 215 771 b 292 838 261 771 292 793 b 215 907 292 879 267 907 b 133 842 165 907 136 879 l 29 849 b 214 997 40 936 103 997 b 397 851 338 997 397 938 b 301 735 397 786 364 751 b 422 601 392 714 422 665 b 221 438 422 501 342 438 m 654 986 l 772 986 l 583 631 l 465 631 m 603 -11 b 394 144 464 -11 394 47 b 508 290 394 213 436 264 b 419 410 453 308 419 342 b 603 549 419 496 481 549 b 786 410 726 549 786 496 b 697 290 786 342 753 308 b 811 144 768 263 811 211 b 603 -11 811 47 742 -11 m 603 328 b 681 397 651 328 681 351 b 603 460 681 436 653 460 b 525 397 553 460 525 436 b 603 328 525 351 554 328 m 233 354 l 351 354 l 163 0 l 44 0 m 603 78 b 704 154 667 78 704 103 b 603 243 704 204 667 243 b 501 154 539 243 501 204 b 603 78 501 103 539 78 "},"⅞":{"ha":833,"x_min":0,"x_max":0,"o":"m 128 447 b 285 894 128 610 185 765 l 32 894 l 32 986 l 400 986 l 400 911 b 232 447 293 775 232 635 l 128 447 m 636 986 l 753 986 l 564 631 l 447 631 m 600 -11 b 392 144 461 -11 392 47 b 506 290 392 213 435 264 b 418 410 451 308 418 342 b 600 549 418 496 478 549 b 783 410 725 549 783 496 b 694 290 783 342 750 308 b 808 144 765 263 808 211 b 600 -11 808 47 740 -11 m 600 328 b 678 397 650 328 678 351 b 600 460 678 436 651 460 b 522 397 550 460 522 436 b 600 328 522 351 551 328 m 215 354 l 332 354 l 143 0 l 25 0 m 600 78 b 703 154 665 78 703 103 b 600 243 703 204 665 243 b 499 154 536 243 499 204 b 600 78 499 103 536 78 "},"₀":{"ha":833,"x_min":0,"x_max":0,"o":"m 417 -150 b 192 131 279 -150 192 -43 b 417 410 192 306 279 410 b 642 131 554 410 642 306 b 417 -150 642 -43 554 -150 m 299 131 b 313 32 299 93 304 60 l 476 301 b 417 318 460 313 440 318 b 299 131 339 318 299 257 m 417 -58 b 535 131 494 -58 535 6 b 521 233 535 171 531 206 l 357 -39 b 417 -58 374 -51 394 -58 "},"₁":{"ha":833,"x_min":0,"x_max":0,"o":"m 368 200 l 231 199 l 231 279 l 267 279 b 392 400 349 279 392 325 l 475 400 l 475 -139 l 368 -139 "},"₂":{"ha":833,"x_min":0,"x_max":0,"o":"m 228 -139 b 368 118 228 -12 246 53 l 438 156 b 504 250 488 183 504 201 b 426 321 504 294 471 321 b 328 229 365 321 336 292 l 228 233 b 426 410 239 342 307 410 b 607 251 542 410 607 344 b 476 78 607 164 557 119 l 418 47 b 343 -47 364 18 343 -17 l 599 -47 l 599 -139 l 228 -139 "},"₃":{"ha":833,"x_min":0,"x_max":0,"o":"m 415 -150 b 217 4 269 -150 224 -90 l 319 8 b 415 -61 324 -33 351 -61 b 511 18 476 -61 511 -31 b 410 99 511 67 479 99 l 374 99 l 374 183 l 410 183 b 486 250 456 183 486 206 b 410 319 486 292 461 319 b 328 254 360 319 331 292 l 224 261 b 408 410 235 349 297 410 b 592 264 532 410 592 350 b 496 147 592 199 558 164 b 617 14 586 126 617 78 b 415 -150 617 -86 536 -150 "},"₄":{"ha":833,"x_min":0,"x_max":0,"o":"m 428 -21 l 176 -21 l 176 60 l 428 399 l 535 399 l 535 69 l 607 69 l 607 -21 l 535 -21 l 535 -139 l 428 -139 m 428 69 l 428 256 l 285 69 "},"₅":{"ha":833,"x_min":0,"x_max":0,"o":"m 411 -150 b 221 -6 297 -150 229 -97 l 325 0 b 414 -61 335 -40 364 -61 b 510 38 472 -61 510 -28 b 424 136 510 94 481 136 b 329 85 376 136 349 117 l 231 85 l 264 399 l 581 399 l 581 310 l 357 310 l 340 182 b 443 218 361 204 400 218 b 613 36 557 218 613 142 b 411 -150 613 -81 535 -150 "},"₆":{"ha":833,"x_min":0,"x_max":0,"o":"m 415 -150 b 207 103 289 -150 207 -64 b 433 410 207 275 274 410 b 619 275 546 410 600 364 l 521 265 b 432 322 511 303 483 322 b 313 174 363 322 318 268 b 432 228 332 204 374 228 b 624 40 544 228 624 167 b 415 -150 624 -81 538 -150 m 417 -61 b 522 43 483 -61 522 -19 b 418 143 522 107 486 143 b 314 43 357 143 315 106 b 417 -61 313 -19 353 -61 "},"₇":{"ha":833,"x_min":0,"x_max":0,"o":"m 328 -139 b 485 308 328 24 385 179 l 232 308 l 232 400 l 601 400 l 601 325 b 432 -139 493 189 432 49 l 328 -139 "},"₈":{"ha":833,"x_min":0,"x_max":0,"o":"m 417 -150 b 208 6 278 -150 208 -92 b 322 151 208 74 250 125 b 233 271 267 169 233 203 b 417 410 233 357 294 410 b 600 271 540 410 600 357 b 511 151 600 203 567 169 b 625 6 582 124 625 72 b 417 -150 625 -92 556 -150 m 417 189 b 494 258 465 189 494 213 b 417 321 494 297 467 321 b 339 258 367 321 339 297 b 417 189 339 213 368 189 m 417 -61 b 518 15 481 -61 518 -36 b 417 104 518 65 481 104 b 315 15 353 104 315 65 b 417 -61 315 -36 353 -61 "},"₉":{"ha":833,"x_min":0,"x_max":0,"o":"m 418 410 b 626 157 544 410 626 324 b 400 -150 626 -15 560 -150 b 214 -15 288 -150 233 -104 l 313 -6 b 401 -62 322 -43 350 -62 b 521 86 471 -62 515 -8 b 401 32 501 56 460 32 b 210 219 289 32 210 93 b 418 410 210 340 296 410 m 417 321 b 311 217 350 321 311 279 b 415 117 311 153 347 117 b 519 217 476 117 518 154 b 417 321 521 279 481 321 "},"⁰":{"ha":833,"x_min":0,"x_max":0,"o":"m 417 438 b 192 718 279 438 192 544 b 417 997 192 893 279 997 b 642 718 554 997 642 893 b 417 438 642 544 554 438 m 299 718 b 313 619 299 681 304 647 l 476 889 b 417 906 460 900 440 906 b 299 718 339 906 299 844 m 417 529 b 535 718 494 529 535 593 b 521 821 535 758 531 793 l 357 549 b 417 529 374 536 394 529 "},"¹":{"ha":833,"x_min":0,"x_max":0,"o":"m 368 788 l 231 786 l 231 867 l 267 867 b 392 988 349 867 392 913 l 475 988 l 475 449 l 368 449 "},"²":{"ha":833,"x_min":0,"x_max":0,"o":"m 228 449 b 368 706 228 575 246 640 l 438 743 b 504 838 488 771 504 789 b 426 908 504 882 471 908 b 328 817 365 908 336 879 l 228 821 b 426 997 239 929 307 997 b 607 839 542 997 607 932 b 476 665 607 751 557 707 l 418 635 b 343 540 364 606 343 571 l 599 540 l 599 449 l 228 449 "},"³":{"ha":833,"x_min":0,"x_max":0,"o":"m 415 438 b 217 592 269 438 224 497 l 319 596 b 415 526 324 554 351 526 b 511 606 476 526 511 557 b 410 686 511 654 479 686 l 374 686 l 374 771 l 410 771 b 486 838 456 771 486 793 b 410 907 486 879 461 907 b 328 842 360 907 331 879 l 224 849 b 408 997 235 936 297 997 b 592 851 532 997 592 938 b 496 735 592 786 558 751 b 617 601 586 714 617 665 b 415 438 617 501 536 438 "},"⁴":{"ha":833,"x_min":0,"x_max":0,"o":"m 428 567 l 176 567 l 176 647 l 428 986 l 535 986 l 535 657 l 607 657 l 607 567 l 535 567 l 535 449 l 428 449 m 428 657 l 428 843 l 285 657 "},"⁵":{"ha":833,"x_min":0,"x_max":0,"o":"m 411 438 b 221 582 297 438 229 490 l 325 588 b 414 526 335 547 364 526 b 510 625 472 526 510 560 b 424 724 510 682 481 724 b 329 672 376 724 349 704 l 231 672 l 264 986 l 581 986 l 581 897 l 357 897 l 340 769 b 443 806 361 792 400 806 b 613 624 557 806 613 729 b 411 438 613 507 535 438 "},"⁶":{"ha":833,"x_min":0,"x_max":0,"o":"m 415 438 b 207 690 289 438 207 524 b 433 997 207 863 274 997 b 619 863 546 997 600 951 l 521 853 b 432 910 511 890 483 910 b 313 761 363 910 318 856 b 432 815 332 792 374 815 b 624 628 544 815 624 754 b 415 438 624 507 538 438 m 417 526 b 522 631 483 526 522 568 b 418 731 522 694 486 731 b 314 631 357 731 315 693 b 417 526 313 568 353 526 "},"⁷":{"ha":833,"x_min":0,"x_max":0,"o":"m 328 447 b 485 894 328 610 385 765 l 232 894 l 232 986 l 601 986 l 601 911 b 432 447 493 775 432 635 l 328 447 "},"⁸":{"ha":833,"x_min":0,"x_max":0,"o":"m 417 438 b 208 593 278 438 208 496 b 322 739 208 661 250 713 b 233 858 267 757 233 790 b 417 997 233 944 294 997 b 600 858 540 997 600 944 b 511 739 600 790 567 757 b 625 593 582 711 625 660 b 417 438 625 496 556 438 m 417 776 b 494 846 465 776 494 800 b 417 908 494 885 467 908 b 339 846 367 908 339 885 b 417 776 339 800 368 776 m 417 526 b 518 603 481 526 518 551 b 417 692 518 653 481 692 b 315 603 353 692 315 653 b 417 526 315 551 353 526 "},"⁹":{"ha":833,"x_min":0,"x_max":0,"o":"m 418 997 b 625 744 544 997 625 911 b 399 438 625 572 558 438 b 214 572 286 438 233 483 l 311 582 b 400 525 321 544 349 525 b 519 674 469 525 514 579 b 400 619 500 643 458 619 b 208 807 289 619 208 681 b 418 997 208 928 294 997 m 415 908 b 310 804 349 908 310 867 b 414 704 310 740 346 704 b 518 804 475 704 517 742 b 415 908 519 867 479 908 "}," ":{"ha":833,"x_min":0,"x_max":0,"o":""}," ":{"ha":833,"x_min":0,"x_max":0,"o":""},".":{"ha":833,"x_min":0,"x_max":0,"o":"m 322 183 l 511 183 l 511 0 l 322 0 "},",":{"ha":833,"x_min":0,"x_max":0,"o":"m 406 0 l 325 0 l 325 183 l 508 183 l 508 15 l 422 -225 l 328 -225 "},":":{"ha":833,"x_min":0,"x_max":0,"o":"m 322 710 l 511 710 l 511 526 l 322 526 m 322 183 l 511 183 l 511 0 l 322 0 "},";":{"ha":833,"x_min":0,"x_max":0,"o":"m 322 710 l 511 710 l 511 526 l 322 526 m 406 0 l 325 0 l 325 183 l 508 183 l 508 15 l 422 -225 l 328 -225 "},"…":{"ha":833,"x_min":0,"x_max":0,"o":"m 56 183 l 243 183 l 243 0 l 56 0 m 322 183 l 510 183 l 510 0 l 322 0 m 590 183 l 778 183 l 778 0 l 590 0 "},"!":{"ha":833,"x_min":0,"x_max":0,"o":"m 369 299 b 346 669 361 392 346 558 l 346 986 l 488 986 l 488 669 b 464 299 488 558 474 392 l 369 299 m 322 183 l 511 183 l 511 0 l 322 0 "},"¡":{"ha":833,"x_min":0,"x_max":0,"o":"m 511 761 l 511 578 l 322 578 l 322 761 m 464 463 b 488 92 474 369 488 203 l 488 -225 l 346 -225 l 346 92 b 369 463 346 203 361 369 "},"?":{"ha":833,"x_min":0,"x_max":0,"o":"m 344 285 b 476 553 344 422 381 494 b 600 724 581 614 600 646 b 436 875 600 810 543 875 b 233 686 308 875 247 810 l 85 694 b 436 1008 101 878 229 1008 b 749 725 626 1008 749 890 b 579 472 749 607 696 546 b 481 285 501 424 481 381 l 344 285 m 319 183 l 508 183 l 508 0 l 319 0 "},"¿":{"ha":833,"x_min":0,"x_max":0,"o":"m 514 575 l 325 575 l 325 758 l 514 758 m 397 -225 b 85 39 207 -225 85 -121 b 254 299 85 161 138 225 b 353 478 332 347 353 389 l 489 478 b 357 219 489 346 453 276 b 233 40 253 157 233 122 b 397 -92 233 -40 290 -92 b 600 97 525 -92 586 -26 l 749 89 b 397 -225 732 -94 604 -225 "},"·":{"ha":833,"x_min":0,"x_max":0,"o":"m 322 513 l 511 513 l 511 331 l 322 331 "},"•":{"ha":833,"x_min":0,"x_max":0,"o":"m 417 265 b 253 428 326 265 253 338 b 417 590 253 519 326 590 b 581 428 507 590 581 519 b 417 265 581 338 507 265 "},"*":{"ha":833,"x_min":0,"x_max":0,"o":"m 189 450 l 322 632 l 111 632 l 111 743 l 322 743 l 189 925 l 281 986 l 417 790 l 554 986 l 644 925 l 511 743 l 722 743 l 722 632 l 511 632 l 644 450 l 554 389 l 417 585 l 281 389 "},"〃":{"ha":833,"x_min":0,"x_max":0,"o":"m 483 668 l 625 668 l 500 390 l 397 390 m 294 668 l 436 668 l 311 390 l 208 390 "},"#":{"ha":833,"x_min":0,"x_max":0,"o":"m 178 263 l 61 263 l 79 378 l 199 378 l 239 603 l 117 603 l 135 718 l 260 718 l 308 986 l 425 986 l 376 718 l 539 718 l 586 986 l 704 986 l 657 718 l 772 718 l 754 603 l 636 603 l 594 378 l 717 378 l 699 263 l 575 263 l 526 0 l 408 0 l 456 263 l 294 263 l 249 0 l 129 0 m 476 378 l 518 603 l 356 603 l 315 378 "},"/":{"ha":833,"x_min":0,"x_max":0,"o":"m 560 1042 l 693 1042 l 274 -153 l 140 -153 "},"\\":{"ha":833,"x_min":0,"x_max":0,"o":"m 560 -153 l 140 1042 l 274 1042 l 693 -153 "},"-":{"ha":833,"x_min":0,"x_max":0,"o":"m 164 469 l 669 469 l 669 340 l 164 340 "},"–":{"ha":833,"x_min":0,"x_max":0,"o":"m 136 469 l 697 469 l 697 342 l 136 342 "},"—":{"ha":833,"x_min":0,"x_max":0,"o":"m 28 469 l 806 469 l 806 342 l 28 342 "},"_":{"ha":833,"x_min":0,"x_max":0,"o":"m 106 0 l 728 0 l 728 -128 l 106 -128 "},"〜":{"ha":833,"x_min":0,"x_max":0,"o":"m 583 299 b 414 358 535 299 478 318 b 250 422 346 401 292 422 b 96 307 196 422 142 381 l 8 394 b 250 550 58 492 156 550 b 419 490 299 550 356 531 b 583 426 488 447 542 426 b 738 542 638 426 692 468 l 825 454 b 583 299 776 357 678 299 "},"(":{"ha":833,"x_min":0,"x_max":0,"o":"m 481 -153 b 211 444 268 40 211 242 b 481 1042 211 647 268 849 l 622 1042 b 360 444 418 843 360 643 b 622 -153 360 246 418 47 l 481 -153 "},")":{"ha":833,"x_min":0,"x_max":0,"o":"m 211 -153 b 474 444 415 47 474 246 b 211 1042 474 643 415 843 l 353 1042 b 622 444 565 849 622 647 b 353 -153 622 242 565 40 "},"{":{"ha":833,"x_min":0,"x_max":0,"o":"m 560 -169 b 322 76 392 -169 322 -68 l 322 215 b 150 371 322 333 290 371 l 150 504 b 322 660 290 504 322 543 l 322 799 b 560 1046 322 943 392 1046 l 683 1046 l 683 917 l 572 917 b 458 793 489 917 458 874 l 458 672 b 274 443 458 536 406 454 l 274 433 b 458 203 406 421 458 339 l 458 83 b 572 -42 458 -1 490 -42 l 683 -42 l 683 -169 l 560 -169 "},"}":{"ha":833,"x_min":0,"x_max":0,"o":"m 150 -169 l 150 -42 l 261 -42 b 375 83 343 -42 375 -1 l 375 203 b 560 433 375 339 428 421 l 560 443 b 375 672 428 454 375 536 l 375 793 b 261 917 375 874 344 917 l 150 917 l 150 1046 l 274 1046 b 511 799 442 1046 511 943 l 511 660 b 683 504 511 543 543 504 l 683 371 b 511 215 543 371 511 333 l 511 76 b 274 -169 511 -68 442 -169 "},"[":{"ha":833,"x_min":0,"x_max":0,"o":"m 183 -153 l 183 1042 l 650 1042 l 650 922 l 322 922 l 322 -33 l 650 -33 l 650 -153 "},"]":{"ha":833,"x_min":0,"x_max":0,"o":"m 183 -33 l 511 -33 l 511 922 l 183 922 l 183 1042 l 650 1042 l 650 -153 l 183 -153 "},"‚":{"ha":833,"x_min":0,"x_max":0,"o":"m 406 0 l 325 0 l 325 183 l 508 183 l 508 15 l 422 -225 l 328 -225 "},"„":{"ha":833,"x_min":0,"x_max":0,"o":"m 261 0 l 181 0 l 181 183 l 364 183 l 364 15 l 278 -225 l 183 -225 m 550 0 l 469 0 l 469 183 l 653 183 l 653 15 l 567 -225 l 472 -225 "},"“":{"ha":833,"x_min":0,"x_max":0,"o":"m 572 792 l 653 792 l 653 608 l 469 608 l 469 775 l 556 1017 l 650 1017 m 283 792 l 364 792 l 364 608 l 181 608 l 181 775 l 267 1017 l 361 1017 "},"”":{"ha":833,"x_min":0,"x_max":0,"o":"m 261 803 l 181 803 l 181 986 l 364 986 l 364 819 l 278 578 l 183 578 m 550 803 l 469 803 l 469 986 l 653 986 l 653 819 l 567 578 l 472 578 "},"‘":{"ha":833,"x_min":0,"x_max":0,"o":"m 436 790 l 517 790 l 517 607 l 333 607 l 333 775 l 419 1015 l 514 1015 "},"’":{"ha":833,"x_min":0,"x_max":0,"o":"m 397 803 l 317 803 l 317 986 l 500 986 l 500 819 l 414 578 l 319 578 "},"«":{"ha":833,"x_min":0,"x_max":0,"o":"m 293 106 l 97 339 l 97 428 l 293 661 l 451 661 l 215 383 l 451 106 m 578 106 l 382 339 l 382 428 l 578 661 l 736 661 l 500 383 l 736 106 "},"»":{"ha":833,"x_min":0,"x_max":0,"o":"m 618 383 l 382 661 l 540 661 l 736 428 l 736 339 l 540 106 l 382 106 m 333 383 l 97 661 l 256 661 l 451 428 l 451 339 l 256 106 l 97 106 "},"‹":{"ha":833,"x_min":0,"x_max":0,"o":"m 436 106 l 239 339 l 239 428 l 436 661 l 594 661 l 358 383 l 594 106 "},"›":{"ha":833,"x_min":0,"x_max":0,"o":"m 475 383 l 239 661 l 397 661 l 594 428 l 594 339 l 397 106 l 239 106 "},"\"":{"ha":833,"x_min":0,"x_max":0,"o":"m 472 986 l 619 986 l 619 832 l 586 479 l 478 479 m 214 832 l 214 986 l 361 986 l 356 479 l 247 479 "},"'":{"ha":833,"x_min":0,"x_max":0,"o":"m 339 835 l 339 986 l 494 986 l 494 835 l 475 479 l 358 479 "},"ƒ":{"ha":833,"x_min":0,"x_max":0,"o":"m 103 125 l 232 125 b 315 201 281 125 310 151 l 360 607 l 206 607 l 206 725 l 372 725 l 381 796 b 594 986 394 919 469 988 l 731 985 l 731 861 l 601 861 b 517 783 551 861 522 833 l 510 725 l 731 725 l 731 607 l 497 607 l 450 189 b 235 -1 436 65 361 -3 l 103 0 "},"฿":{"ha":833,"x_min":0,"x_max":0,"o":"m 86 986 l 325 986 l 325 1118 l 425 1118 l 425 985 b 707 718 610 969 707 874 b 522 508 707 611 638 529 b 747 274 668 490 747 401 b 425 0 747 106 628 6 l 425 -126 l 325 -126 l 325 0 l 86 0 m 325 568 l 325 850 l 229 850 l 229 568 m 561 708 b 425 847 561 789 518 838 l 425 571 b 561 708 518 581 561 629 m 325 136 l 325 433 l 229 433 l 229 136 m 601 281 b 425 433 601 374 540 429 l 425 136 b 601 281 544 140 601 193 "},"":{"ha":833,"x_min":0,"x_max":0,"o":"m 146 0 b 11 135 68 0 11 57 l 11 676 b 146 811 11 754 68 811 l 688 811 b 822 676 765 811 822 754 l 822 135 b 688 0 822 57 765 0 l 146 0 m 713 172 l 415 688 l 119 172 "},"@":{"ha":833,"x_min":0,"x_max":0,"o":"m 597 -103 b 379 -156 519 -139 450 -156 b 25 339 175 -156 25 -11 b 461 986 25 765 213 986 b 808 529 688 986 808 800 b 608 107 808 215 728 107 b 490 221 553 107 510 151 b 349 111 464 150 408 111 b 199 349 254 111 199 200 b 404 696 199 536 286 696 b 506 632 454 696 490 671 l 513 693 l 617 693 b 583 300 599 518 583 381 b 628 206 583 238 601 206 b 708 524 674 206 708 288 b 456 886 708 744 632 886 b 125 342 269 886 125 706 b 382 -57 125 58 226 -57 b 561 -7 439 -57 499 -40 l 597 -103 m 383 204 b 489 469 439 204 489 322 b 421 599 489 554 465 599 b 317 358 364 599 317 488 b 383 204 317 263 340 204 "},"&":{"ha":833,"x_min":0,"x_max":0,"o":"m 326 -22 b 22 239 135 -22 22 72 b 218 544 22 368 74 444 b 119 772 158 622 119 686 b 374 1008 119 918 215 1008 b 615 792 533 1008 615 924 b 410 511 615 682 554 606 l 607 257 b 656 447 638 297 656 363 l 792 432 b 689 147 788 324 746 215 l 808 0 l 647 0 l 599 60 b 326 -22 547 11 457 -22 m 338 608 b 471 779 433 668 471 715 b 374 874 471 840 435 874 b 267 772 306 874 267 836 b 338 608 267 722 283 678 m 344 110 b 514 163 428 110 483 132 l 296 440 b 172 249 208 381 172 326 b 344 110 172 165 225 110 "},"¶":{"ha":833,"x_min":0,"x_max":0,"o":"m 353 426 b 94 706 207 426 94 535 b 358 986 94 878 213 986 l 708 986 l 708 0 l 578 0 l 578 863 l 483 863 l 483 0 l 353 0 "},"§":{"ha":833,"x_min":0,"x_max":0,"o":"m 432 -90 b 100 160 236 -90 114 14 l 247 169 b 431 35 261 86 321 35 b 582 128 542 35 582 71 b 385 250 582 182 531 219 b 122 464 196 289 121 353 b 247 635 124 539 165 597 b 125 789 165 672 125 725 b 424 1008 125 925 243 1008 b 732 767 594 1008 711 919 l 586 758 b 413 885 572 839 508 885 b 276 794 332 885 276 847 b 439 683 276 740 314 714 b 732 449 649 632 732 578 b 618 293 732 375 694 324 b 731 121 696 256 731 203 b 432 -90 731 -4 607 -90 m 463 351 b 597 454 543 351 597 392 b 392 574 597 538 486 574 b 260 472 318 574 260 528 b 463 351 260 413 310 353 "},"©":{"ha":833,"x_min":0,"x_max":0,"o":"m 415 -17 b 11 496 172 -17 11 193 b 415 1008 11 799 172 1008 b 822 496 658 1008 822 799 b 415 -17 822 193 658 -17 m 415 75 b 724 496 606 75 724 242 b 415 917 724 751 606 917 b 110 496 225 917 110 751 b 415 75 110 242 225 75 m 417 206 b 181 494 279 206 181 324 b 417 785 181 664 279 785 b 649 576 536 785 635 704 l 536 569 b 419 681 526 642 483 681 b 297 494 339 681 297 607 b 419 308 297 382 339 308 b 540 432 485 308 529 351 l 653 425 b 417 206 636 290 539 206 "},"®":{"ha":833,"x_min":0,"x_max":0,"o":"m 418 240 b 33 625 204 240 33 413 b 418 1008 33 838 204 1008 b 800 625 631 1008 800 838 b 418 240 800 413 631 240 m 418 318 b 715 625 594 318 715 457 b 418 931 715 792 594 931 b 118 625 240 931 118 792 b 418 318 118 457 240 318 m 263 832 l 410 832 b 582 703 517 832 582 783 b 496 588 582 646 551 603 l 597 417 l 497 417 l 408 575 l 353 575 l 353 417 l 263 417 m 414 646 b 494 704 464 646 494 667 b 414 758 494 740 464 758 l 351 758 l 351 646 "},"℗":{"ha":833,"x_min":0,"x_max":0,"o":"m 418 240 b 33 625 204 240 33 413 b 418 1008 33 838 204 1008 b 800 625 631 1008 800 838 b 418 240 800 413 631 240 m 418 318 b 715 625 594 318 715 457 b 418 931 715 792 594 931 b 118 625 240 931 118 792 b 418 318 118 457 240 318 m 285 832 l 432 832 b 604 703 542 832 604 783 b 432 575 604 619 542 575 l 374 575 l 374 417 l 285 417 m 436 646 b 517 704 486 646 517 667 b 436 758 517 740 486 758 l 374 758 l 374 646 "},"™":{"ha":833,"x_min":0,"x_max":0,"o":"m 365 986 l 465 986 l 582 621 l 701 986 l 800 986 l 800 499 l 708 499 l 708 751 l 625 499 l 540 499 l 456 753 l 456 499 l 365 499 m 124 897 l 17 897 l 17 986 l 326 986 l 326 897 l 217 897 l 217 499 l 124 499 "},"°":{"ha":833,"x_min":0,"x_max":0,"o":"m 417 551 b 189 781 293 551 189 650 b 417 1008 189 910 293 1008 b 644 781 542 1008 644 910 b 417 551 644 650 542 551 m 417 668 b 528 781 478 668 528 714 b 417 894 528 847 476 894 b 306 781 357 894 306 847 b 417 668 306 714 356 668 "},"′":{"ha":833,"x_min":0,"x_max":0,"o":"m 376 986 l 518 986 l 443 667 l 317 667 "},"″":{"ha":833,"x_min":0,"x_max":0,"o":"m 278 986 l 419 986 l 344 667 l 218 667 m 475 986 l 617 986 l 542 667 l 414 667 "},"|":{"ha":833,"x_min":0,"x_max":0,"o":"m 350 1042 l 483 1042 l 483 -153 l 350 -153 "},"¦":{"ha":833,"x_min":0,"x_max":0,"o":"m 351 1042 l 482 1042 l 482 549 l 351 549 m 351 340 l 482 340 l 482 -153 l 351 -153 "},"†":{"ha":833,"x_min":0,"x_max":0,"o":"m 347 615 l 131 615 l 131 739 l 347 739 l 347 986 l 486 986 l 486 739 l 703 739 l 703 615 l 486 615 l 486 0 l 347 0 "},"‡":{"ha":833,"x_min":0,"x_max":0,"o":"m 131 361 l 347 361 l 347 615 l 131 615 l 131 739 l 347 739 l 347 986 l 486 986 l 486 739 l 703 739 l 703 615 l 486 615 l 486 361 l 703 361 l 703 238 l 486 238 l 486 0 l 347 0 l 347 238 l 131 238 "},"№":{"ha":833,"x_min":0,"x_max":0,"o":"m 649 522 b 475 765 531 522 475 614 b 649 1008 475 915 531 1008 b 822 765 765 1008 822 914 b 649 522 822 614 765 522 m 11 986 l 175 986 l 308 275 l 308 986 l 436 986 l 436 0 l 272 0 l 139 711 l 139 0 l 11 0 m 649 619 b 706 765 690 619 706 669 b 649 911 706 860 690 911 b 590 765 604 911 590 857 b 649 619 590 671 604 619 m 497 404 l 799 404 l 799 289 l 497 289 "},"␣":{"ha":833,"x_min":0,"x_max":0,"o":"m 51 0 l 167 0 l 167 -151 l 667 -151 l 667 0 l 782 0 l 782 -265 l 51 -265 "},"␌":{"ha":833,"x_min":0,"x_max":0,"o":"m 110 875 l 393 875 l 393 804 l 182 804 l 182 676 l 381 676 l 381 606 l 182 606 l 182 417 l 110 417 m 461 557 l 744 557 l 744 486 l 532 486 l 532 358 l 732 358 l 732 288 l 532 288 l 532 99 l 461 99 "},"⌧":{"ha":833,"x_min":0,"x_max":0,"o":"m 19 986 l 814 986 l 814 0 l 19 0 m 713 101 l 713 885 l 121 885 l 121 101 m 213 367 l 336 492 l 211 617 l 292 697 l 417 572 l 542 696 l 621 617 l 497 493 l 622 367 l 542 286 l 417 413 l 292 288 "},"⌫":{"ha":833,"x_min":0,"x_max":0,"o":"m 6 490 l 219 986 l 822 986 l 822 0 l 219 0 m 721 101 l 721 885 l 288 885 l 117 492 l 288 101 m 251 369 l 372 492 l 250 614 l 331 694 l 453 572 l 575 693 l 653 614 l 532 493 l 654 369 l 575 289 l 453 413 l 331 290 "},"⌦":{"ha":833,"x_min":0,"x_max":0,"o":"m 11 0 l 11 986 l 614 986 l 828 490 l 614 0 m 717 492 l 546 885 l 113 885 l 113 101 l 546 101 m 179 369 l 301 493 l 181 614 l 258 693 l 381 572 l 503 694 l 583 614 l 461 492 l 582 369 l 503 290 l 381 413 l 258 289 "},"⏎":{"ha":833,"x_min":0,"x_max":0,"o":"m 6 414 l 415 846 l 415 579 l 494 579 l 494 986 l 825 986 l 825 249 l 415 249 l 415 -21 m 326 592 l 157 413 l 326 233 l 326 363 l 710 363 l 710 869 l 608 869 l 608 464 l 326 464 "},"␋":{"ha":833,"x_min":0,"x_max":0,"o":"m 72 875 l 149 875 l 250 529 l 351 875 l 428 875 l 288 417 l 213 417 m 557 486 l 426 486 l 426 557 l 761 557 l 761 486 l 631 486 l 631 99 l 557 99 "},"¢":{"ha":833,"x_min":0,"x_max":0,"o":"m 329 119 b 83 493 178 161 83 299 b 393 878 83 713 206 861 l 404 1008 l 504 1008 l 493 874 b 746 613 626 851 721 758 l 603 604 b 482 742 586 676 543 725 l 439 236 b 607 393 522 240 586 293 l 750 383 b 428 107 722 215 597 107 l 417 -17 l 317 -17 m 229 493 b 340 256 229 375 269 292 l 382 744 b 229 493 285 722 229 632 "},"¤":{"ha":833,"x_min":0,"x_max":0,"o":"m 43 228 l 171 356 b 118 524 138 404 118 461 b 171 692 118 586 138 644 l 43 821 l 121 897 l 250 769 b 417 821 297 803 356 821 b 583 769 479 821 536 803 l 713 897 l 792 821 l 663 692 b 715 524 696 643 715 586 b 663 356 715 461 696 404 l 792 228 l 713 150 l 585 278 b 417 225 538 244 479 225 b 249 278 354 225 297 244 l 121 150 m 417 338 b 601 524 517 338 601 421 b 417 708 601 625 517 708 b 232 524 314 708 232 625 b 417 338 232 421 314 338 "},"$":{"ha":833,"x_min":0,"x_max":0,"o":"m 364 -15 b 60 321 188 10 75 136 l 207 331 b 364 122 222 217 276 146 l 364 436 b 83 711 169 488 83 571 b 364 986 83 865 188 969 l 364 1113 l 471 1113 l 471 985 b 757 678 640 964 739 847 l 610 669 b 471 847 597 763 554 828 l 471 546 b 774 250 694 482 774 407 b 471 -18 774 99 654 -4 l 471 -125 l 364 -125 m 226 718 b 364 578 226 647 257 614 l 364 851 b 226 718 278 839 226 792 m 629 250 b 471 406 629 324 600 364 l 471 115 b 629 250 575 124 629 172 "},"€":{"ha":833,"x_min":0,"x_max":0,"o":"m 11 432 l 85 432 b 83 492 83 451 83 471 b 83 539 83 508 83 524 l 11 539 l 11 644 l 93 644 b 439 1008 126 872 243 1008 b 788 671 619 1008 749 885 l 635 663 b 439 872 607 800 533 872 b 244 644 331 872 268 792 l 525 644 l 510 539 l 235 539 b 233 492 235 524 233 508 b 235 432 233 471 235 451 l 497 432 l 482 326 l 247 326 b 439 114 272 189 333 114 b 643 343 542 114 618 193 l 794 336 b 439 -22 760 111 629 -22 b 96 326 246 -22 132 108 l 11 326 "},"₴":{"ha":833,"x_min":0,"x_max":0,"o":"m 25 643 l 593 643 b 621 736 607 667 621 699 b 436 876 621 817 569 876 b 233 726 319 876 261 822 l 85 739 b 432 1008 124 901 232 1008 b 756 739 640 1008 756 899 b 731 643 756 697 743 664 l 808 643 l 808 538 l 25 538 m 404 -17 b 69 246 203 -17 69 86 b 85 326 69 274 75 308 l 25 326 l 25 432 l 808 432 l 808 326 l 228 326 b 210 256 214 306 210 279 b 399 115 210 169 288 115 b 613 251 499 115 578 168 l 765 240 b 404 -17 726 85 589 -17 "},"₱":{"ha":833,"x_min":0,"x_max":0,"o":"m 142 515 l 36 515 l 36 613 l 142 613 l 142 678 l 36 678 l 36 775 l 142 775 l 142 986 l 379 986 b 676 775 532 986 638 913 l 797 775 l 797 678 l 692 678 b 693 647 693 668 693 658 b 692 613 693 636 693 624 l 797 613 l 797 515 l 675 515 b 379 304 636 378 531 304 l 288 304 l 288 0 l 142 0 m 288 775 l 518 775 b 378 854 493 829 446 854 l 288 854 m 542 647 b 540 678 542 658 542 668 l 288 678 l 288 613 l 540 613 b 542 647 542 624 542 635 m 378 438 b 518 515 444 438 492 461 l 288 515 l 288 438 "},"₽":{"ha":833,"x_min":0,"x_max":0,"o":"m 147 158 l 39 158 l 39 267 l 147 267 l 147 986 l 453 986 b 794 679 658 986 794 869 b 453 374 794 490 658 374 l 293 374 l 293 267 l 522 267 l 522 158 l 293 158 l 293 0 l 147 0 m 438 511 b 643 679 578 511 643 569 b 438 849 643 789 578 849 l 293 849 l 293 511 "},"₹":{"ha":833,"x_min":0,"x_max":0,"o":"m 39 379 l 39 508 l 319 508 b 522 628 433 508 501 550 l 39 628 l 39 736 l 524 736 b 319 857 504 815 436 857 l 39 857 l 39 986 l 794 986 l 794 881 l 606 881 b 668 736 639 842 661 793 l 794 736 l 794 628 l 667 628 b 326 379 643 472 518 379 l 222 379 l 653 0 l 463 0 "},"₪":{"ha":833,"x_min":0,"x_max":0,"o":"m 246 771 l 365 771 l 365 119 l 603 119 b 686 206 654 119 686 151 l 686 986 l 806 986 l 806 208 b 597 0 806 81 725 0 l 246 0 m 28 986 l 379 986 b 586 778 506 986 586 906 l 586 215 l 467 215 l 467 781 b 383 867 467 833 435 867 l 147 867 l 147 0 l 28 0 "},"£":{"ha":833,"x_min":0,"x_max":0,"o":"m 57 128 b 219 385 163 186 219 275 b 214 438 219 401 217 419 l 57 438 l 57 543 l 190 543 b 149 732 165 615 149 676 b 450 1008 149 890 274 1008 b 776 754 657 1008 754 894 l 611 744 b 454 871 590 829 528 871 b 296 713 360 871 296 806 b 336 543 296 668 314 613 l 572 543 l 572 438 l 351 438 b 206 142 350 288 315 196 l 760 142 l 760 1 l 57 0 "},"¥":{"ha":833,"x_min":0,"x_max":0,"o":"m 100 303 l 344 303 l 344 397 l 100 397 l 100 511 l 292 511 l 51 986 l 213 986 l 417 556 l 621 986 l 782 986 l 543 511 l 735 511 l 735 397 l 490 397 l 490 303 l 735 303 l 735 190 l 490 190 l 490 0 l 344 0 l 344 190 l 100 190 "},"+":{"ha":833,"x_min":0,"x_max":0,"o":"m 82 469 l 353 469 l 353 740 l 481 740 l 481 469 l 751 469 l 751 342 l 481 342 l 481 71 l 353 71 l 353 342 l 82 342 "},"−":{"ha":833,"x_min":0,"x_max":0,"o":"m 106 469 l 728 469 l 728 342 l 106 342 "},"×":{"ha":833,"x_min":0,"x_max":0,"o":"m 326 406 l 115 617 l 206 708 l 417 496 l 628 708 l 718 617 l 507 406 l 718 194 l 628 104 l 417 315 l 206 104 l 115 194 "},"÷":{"ha":833,"x_min":0,"x_max":0,"o":"m 417 568 b 319 663 357 568 319 608 b 417 757 319 717 357 757 b 514 663 476 757 514 717 b 417 568 514 608 476 568 m 92 468 l 742 468 l 742 343 l 92 343 m 417 54 b 319 149 357 54 319 94 b 417 243 319 204 357 243 b 514 149 476 243 514 204 b 417 54 514 94 476 54 "},"=":{"ha":833,"x_min":0,"x_max":0,"o":"m 110 625 l 724 625 l 724 501 l 110 501 m 110 325 l 724 325 l 724 201 l 110 201 "},"≠":{"ha":833,"x_min":0,"x_max":0,"o":"m 110 325 l 331 325 l 383 501 l 110 501 l 110 625 l 419 625 l 465 781 l 585 781 l 539 625 l 724 625 l 724 501 l 503 501 l 450 325 l 724 325 l 724 201 l 414 201 l 368 44 l 249 44 l 294 201 l 110 201 "},">":{"ha":833,"x_min":0,"x_max":0,"o":"m 99 176 l 611 403 l 99 628 l 99 765 l 735 486 l 735 318 l 99 39 "},"<":{"ha":833,"x_min":0,"x_max":0,"o":"m 99 318 l 99 486 l 735 765 l 735 628 l 222 403 l 735 176 l 735 39 "},"≥":{"ha":833,"x_min":0,"x_max":0,"o":"m 99 300 l 614 469 l 99 639 l 99 775 l 732 556 l 732 385 l 99 165 m 99 118 l 735 118 l 735 0 l 99 0 "},"≤":{"ha":833,"x_min":0,"x_max":0,"o":"m 58 385 l 58 556 l 692 775 l 692 639 l 176 469 l 692 300 l 692 165 m 56 0 l 56 118 l 692 118 l 692 0 "},"±":{"ha":833,"x_min":0,"x_max":0,"o":"m 353 418 l 96 418 l 96 544 l 353 544 l 353 796 l 481 796 l 481 544 l 738 544 l 738 418 l 481 418 l 481 165 l 353 165 m 96 118 l 738 118 l 738 0 l 96 0 "},"≈":{"ha":833,"x_min":0,"x_max":0,"o":"m 593 482 b 447 563 531 482 500 503 b 356 631 394 626 383 631 b 286 494 311 631 286 583 l 164 494 b 349 749 164 646 238 749 b 496 667 415 749 450 724 b 589 600 542 610 556 600 b 657 736 633 600 657 646 l 779 736 b 593 482 779 583 706 482 m 593 176 b 447 257 531 176 500 197 b 356 325 394 321 383 325 b 286 189 311 325 286 278 l 164 189 b 349 443 164 340 238 443 b 496 361 415 443 450 418 b 589 294 542 304 556 294 b 657 431 633 294 657 340 l 779 431 b 593 176 779 278 706 176 "},"~":{"ha":833,"x_min":0,"x_max":0,"o":"m 539 329 b 393 410 476 329 446 350 b 301 478 340 474 329 478 b 232 342 257 478 232 431 l 110 342 b 294 596 110 493 183 596 b 442 514 361 596 396 571 b 535 447 488 457 501 447 b 603 583 579 447 603 493 l 725 583 b 539 329 725 431 651 329 "},"¬":{"ha":833,"x_min":0,"x_max":0,"o":"m 596 331 l 122 331 l 122 446 l 711 446 l 711 92 l 596 92 "},"^":{"ha":833,"x_min":0,"x_max":0,"o":"m 335 986 l 499 986 l 689 518 l 556 518 l 417 869 l 278 518 l 144 518 "},"∞":{"ha":833,"x_min":0,"x_max":0,"o":"m 210 153 b 11 376 94 153 11 251 b 210 600 11 501 94 600 b 417 460 288 600 371 549 b 626 599 464 549 546 599 b 822 376 739 600 822 501 b 626 153 822 251 739 153 b 417 293 550 153 461 200 b 210 153 371 200 285 153 m 214 275 b 363 376 267 275 326 317 b 214 478 326 435 267 476 b 129 376 163 478 129 436 b 214 275 129 317 163 275 m 621 275 b 704 376 669 276 704 318 b 621 476 704 433 669 475 b 469 376 568 478 510 436 b 621 275 508 315 568 274 "},"∫":{"ha":833,"x_min":0,"x_max":0,"o":"m 142 -208 l 154 -83 l 224 -83 b 306 -7 272 -83 299 -67 l 394 796 b 607 986 408 919 481 986 l 692 986 l 679 861 l 615 861 b 529 785 564 861 535 833 l 439 -18 b 226 -208 425 -142 356 -208 "},"∆":{"ha":833,"x_min":0,"x_max":0,"o":"m 14 131 l 335 986 l 499 986 l 819 131 l 819 0 l 14 0 m 708 128 l 417 869 l 125 128 "},"∏":{"ha":833,"x_min":0,"x_max":0,"o":"m 169 858 l 25 858 l 25 986 l 808 986 l 808 858 l 668 858 l 668 -208 l 539 -208 l 539 858 l 300 858 l 300 -208 l 169 -208 "},"∑":{"ha":833,"x_min":0,"x_max":0,"o":"m 83 133 l 326 493 l 83 853 l 83 986 l 750 986 l 750 853 l 242 853 l 485 493 l 242 133 l 750 133 l 750 0 l 83 0 "},"√":{"ha":833,"x_min":0,"x_max":0,"o":"m 11 472 l 140 472 l 249 18 l 419 986 l 822 986 l 822 863 l 529 863 l 336 -208 l 174 -208 "},"µ":{"ha":833,"x_min":0,"x_max":0,"o":"m 118 739 l 258 739 l 258 308 b 400 106 258 175 306 106 b 575 308 508 106 575 183 l 575 739 l 715 739 l 715 0 l 581 0 l 581 115 b 400 -17 549 32 479 -17 b 258 69 336 -17 282 15 l 258 -208 l 118 -208 "},"μ":{"ha":833,"x_min":0,"x_max":0,"o":"m 118 -208 l 258 -208 l 258 69 b 400 -17 282 15 336 -17 b 581 115 479 -17 549 32 l 581 0 l 715 0 l 715 739 l 575 739 l 575 308 b 400 106 575 183 508 106 b 258 308 306 106 258 175 l 258 739 l 118 739 "},"∂":{"ha":833,"x_min":0,"x_max":0,"o":"m 407 -15 b 101 317 217 -15 101 115 b 403 649 101 518 222 649 b 593 579 476 649 540 619 b 183 883 544 749 425 840 l 214 1007 b 732 378 618 940 732 710 b 407 -15 732 126 596 -15 m 407 99 b 596 353 518 99 596 161 b 418 535 596 468 528 535 b 239 317 306 535 239 453 b 407 99 239 179 294 99 "},"%":{"ha":833,"x_min":0,"x_max":0,"o":"m 213 508 b 11 753 99 508 11 592 b 213 997 11 914 99 997 b 414 753 326 997 414 914 b 213 508 414 592 326 508 m 653 986 l 765 986 l 181 0 l 68 0 m 213 601 b 303 753 268 601 303 656 b 213 904 303 850 268 904 b 122 753 157 904 122 850 b 213 601 122 656 157 601 m 621 -11 b 419 233 507 -11 419 72 b 621 478 419 394 507 478 b 822 233 735 478 822 394 b 621 -11 822 72 735 -11 m 621 82 b 711 233 676 82 711 136 b 621 385 711 331 676 385 b 531 233 565 385 531 331 b 621 82 531 136 565 82 "},"‰":{"ha":833,"x_min":0,"x_max":0,"o":"m 185 508 b 0 753 74 508 0 592 b 185 997 0 914 74 997 b 369 753 296 997 369 914 b 185 508 369 592 296 508 m 578 986 l 678 986 l 100 0 l 0 0 m 185 601 b 260 753 238 601 260 653 b 185 904 260 853 238 904 b 110 753 132 904 110 853 b 185 601 110 653 132 601 m 463 -11 b 317 233 376 -11 317 72 b 463 478 317 394 376 478 b 575 417 507 478 546 457 b 688 478 604 457 643 478 b 833 233 774 478 833 394 b 688 -11 833 72 774 -11 b 575 50 643 -11 604 10 b 463 -11 546 10 507 -11 m 474 82 b 526 233 504 82 526 111 b 474 385 526 344 504 385 b 421 233 443 385 421 344 b 474 82 421 111 443 82 m 676 82 b 729 233 707 82 729 111 b 676 385 729 344 707 385 b 624 233 646 385 624 344 b 676 82 624 111 646 82 "},"∶":{"ha":833,"x_min":0,"x_max":0,"o":"m 322 849 l 511 849 l 511 665 l 322 665 m 322 322 l 511 322 l 511 139 l 322 139 "},"↑":{"ha":833,"x_min":0,"x_max":0,"o":"m 356 739 l 42 425 l 42 590 l 417 964 l 792 589 l 792 424 l 478 736 l 478 25 l 356 25 "},"↗":{"ha":833,"x_min":0,"x_max":0,"o":"m 539 731 l 94 731 l 213 847 l 742 846 l 742 315 l 625 199 l 624 642 l 121 139 l 35 226 "},"→":{"ha":833,"x_min":0,"x_max":0,"o":"m 597 432 l 22 432 l 22 554 l 597 554 l 299 854 l 464 854 l 824 493 l 464 133 l 297 132 "},"↘":{"ha":833,"x_min":0,"x_max":0,"o":"m 551 257 l 49 760 l 136 847 l 640 342 l 640 786 l 757 669 l 756 139 l 225 139 l 108 257 "},"↓":{"ha":833,"x_min":0,"x_max":0,"o":"m 792 400 l 417 25 l 42 399 l 42 564 l 356 250 l 356 964 l 478 964 l 478 253 l 792 565 "},"↙":{"ha":833,"x_min":0,"x_max":0,"o":"m 608 139 l 78 139 l 76 669 l 193 786 l 193 342 l 697 847 l 785 760 l 282 257 l 725 257 "},"←":{"ha":833,"x_min":0,"x_max":0,"o":"m 369 133 l 10 493 l 369 854 l 535 854 l 236 554 l 811 554 l 811 432 l 236 432 l 536 132 "},"↖":{"ha":833,"x_min":0,"x_max":0,"o":"m 92 315 l 92 846 l 621 847 l 739 731 l 294 731 l 799 226 l 713 139 l 210 642 l 208 199 "},"↔":{"ha":833,"x_min":0,"x_max":0,"o":"m 3 494 l 222 718 l 376 718 l 218 556 l 615 556 l 457 718 l 611 718 l 831 494 l 610 268 l 456 268 l 615 433 l 218 433 l 378 268 l 224 268 "},"↕":{"ha":833,"x_min":0,"x_max":0,"o":"m 175 182 l 175 338 l 358 156 l 358 831 l 175 649 l 175 804 l 418 1046 l 658 806 l 658 650 l 478 832 l 478 156 l 658 336 l 658 181 l 418 -60 "},"↝":{"ha":833,"x_min":0,"x_max":0,"o":"m 401 258 b 318 386 346 292 326 336 b 269 506 307 436 310 482 b 151 422 228 529 175 496 l 25 422 b 321 613 51 576 211 675 b 406 469 388 572 399 519 b 453 365 411 426 415 386 b 582 446 496 340 542 376 l 469 511 l 774 653 l 804 315 l 688 383 b 401 258 611 260 499 203 "},"⇤":{"ha":833,"x_min":0,"x_max":0,"o":"m 28 706 l 140 706 l 140 164 l 28 164 m 175 435 l 454 667 l 454 496 l 806 496 l 806 374 l 454 374 l 456 203 "},"⇥":{"ha":833,"x_min":0,"x_max":0,"o":"m 693 164 l 693 706 l 806 706 l 806 164 m 379 374 l 28 374 l 28 496 l 379 496 l 379 667 l 658 435 l 378 203 "},"↩":{"ha":833,"x_min":0,"x_max":0,"o":"m 254 163 l 21 396 l 251 628 l 414 628 l 243 457 l 500 457 b 688 632 606 457 688 535 b 500 808 688 731 606 808 l 90 808 l 90 931 l 500 931 b 813 632 675 931 813 800 b 500 335 813 464 675 335 l 246 335 l 415 163 "},"↪":{"ha":833,"x_min":0,"x_max":0,"o":"m 588 335 l 333 335 b 21 632 158 335 21 464 b 333 931 21 800 158 931 l 743 931 l 743 808 l 333 808 b 146 632 228 808 146 731 b 333 457 146 535 228 457 l 590 457 l 419 628 l 582 628 l 813 396 l 579 163 l 418 163 "},"↰":{"ha":833,"x_min":0,"x_max":0,"o":"m 25 618 l 310 856 l 310 679 l 794 679 l 794 0 l 671 0 l 671 557 l 310 557 l 311 381 "},"↱":{"ha":833,"x_min":0,"x_max":0,"o":"m 39 0 l 39 679 l 524 679 l 524 856 l 808 618 l 522 381 l 524 557 l 163 557 l 163 0 "},"↳":{"ha":833,"x_min":0,"x_max":0,"o":"m 808 368 l 524 131 l 524 307 l 39 307 l 39 986 l 163 986 l 163 429 l 524 429 l 522 606 "},"↴":{"ha":833,"x_min":0,"x_max":0,"o":"m 357 279 l 528 279 l 528 863 l 19 863 l 19 985 l 651 985 l 651 279 l 821 278 l 589 0 "},"↵":{"ha":833,"x_min":0,"x_max":0,"o":"m 310 429 l 671 429 l 671 986 l 794 986 l 794 307 l 310 307 l 310 131 l 25 368 l 311 606 "},"⇧":{"ha":833,"x_min":0,"x_max":0,"o":"m 185 550 l 3 550 l 418 993 l 831 550 l 651 550 l 651 0 l 185 0 m 528 122 l 528 624 l 600 624 l 418 826 l 235 624 l 308 624 l 308 122 "},"▁":{"ha":833,"x_min":0,"x_max":0,"o":"m 0 -246 l 833 -246 l 833 -472 l 0 -472 "},"▂":{"ha":833,"x_min":0,"x_max":0,"o":"m 0 -21 l 833 -21 l 833 -472 l 0 -472 "},"▃":{"ha":833,"x_min":0,"x_max":0,"o":"m 0 206 l 833 206 l 833 -472 l 0 -472 "},"▄":{"ha":833,"x_min":0,"x_max":0,"o":"m 0 431 l 833 431 l 833 -472 l 0 -472 "},"▅":{"ha":833,"x_min":0,"x_max":0,"o":"m 0 657 l 833 657 l 833 -472 l 0 -472 "},"▆":{"ha":833,"x_min":0,"x_max":0,"o":"m 0 882 l 833 882 l 833 -472 l 0 -472 "},"▇":{"ha":833,"x_min":0,"x_max":0,"o":"m 0 1108 l 833 1108 l 833 -472 l 0 -472 "},"█":{"ha":833,"x_min":0,"x_max":0,"o":"m 0 1333 l 833 1333 l 833 -472 l 0 -472 "},"▀":{"ha":833,"x_min":0,"x_max":0,"o":"m 0 1333 l 833 1333 l 833 431 l 0 431 "},"▔":{"ha":833,"x_min":0,"x_max":0,"o":"m 0 1333 l 833 1333 l 833 1108 l 0 1108 "},"▏":{"ha":833,"x_min":0,"x_max":0,"o":"m 0 1333 l 104 1333 l 104 -472 l 0 -472 "},"▎":{"ha":833,"x_min":0,"x_max":0,"o":"m 0 1333 l 208 1333 l 208 -472 l 0 -472 "},"▍":{"ha":833,"x_min":0,"x_max":0,"o":"m 0 1333 l 313 1333 l 313 -472 l 0 -472 "},"▌":{"ha":833,"x_min":0,"x_max":0,"o":"m 0 1333 l 417 1333 l 417 -472 l 0 -472 "},"▋":{"ha":833,"x_min":0,"x_max":0,"o":"m 0 1333 l 521 1333 l 521 -472 l 0 -472 "},"▊":{"ha":833,"x_min":0,"x_max":0,"o":"m 0 1333 l 625 1333 l 625 -472 l 0 -472 "},"▉":{"ha":833,"x_min":0,"x_max":0,"o":"m 0 1333 l 729 1333 l 729 -472 l 0 -472 "},"▐":{"ha":833,"x_min":0,"x_max":0,"o":"m 417 1333 l 833 1333 l 833 -472 l 417 -472 "},"▕":{"ha":833,"x_min":0,"x_max":0,"o":"m 729 1333 l 833 1333 l 833 -472 l 729 -472 "},"▖":{"ha":833,"x_min":0,"x_max":0,"o":"m 0 431 l 417 431 l 417 -472 l 0 -472 "},"▗":{"ha":833,"x_min":0,"x_max":0,"o":"m 417 431 l 833 431 l 833 -472 l 417 -472 "},"▘":{"ha":833,"x_min":0,"x_max":0,"o":"m 0 1333 l 417 1333 l 417 431 l 0 431 "},"▙":{"ha":833,"x_min":0,"x_max":0,"o":"m 0 1333 l 417 1333 l 417 431 l 833 431 l 833 -472 l 0 -472 "},"▚":{"ha":833,"x_min":0,"x_max":0,"o":"m 0 1333 l 417 1333 l 417 431 l 0 431 m 417 431 l 833 431 l 833 -472 l 417 -472 "},"▛":{"ha":833,"x_min":0,"x_max":0,"o":"m 0 1333 l 833 1333 l 833 431 l 417 431 l 417 -472 l 0 -472 "},"▜":{"ha":833,"x_min":0,"x_max":0,"o":"m 417 431 l 0 431 l 0 1333 l 833 1333 l 833 -472 l 417 -472 "},"▝":{"ha":833,"x_min":0,"x_max":0,"o":"m 417 1333 l 833 1333 l 833 431 l 417 431 "},"▞":{"ha":833,"x_min":0,"x_max":0,"o":"m 417 1333 l 833 1333 l 833 431 l 417 431 m 0 431 l 417 431 l 417 -472 l 0 -472 "},"▟":{"ha":833,"x_min":0,"x_max":0,"o":"m 0 431 l 417 431 l 417 1333 l 833 1333 l 833 -472 l 0 -472 "},"░":{"ha":833,"x_min":0,"x_max":0,"o":"m 417 1283 b 367 1333 389 1283 367 1306 b 417 1383 367 1361 389 1383 b 467 1333 444 1383 467 1361 b 417 1283 467 1306 444 1283 m 139 1283 b 89 1333 111 1283 89 1306 b 139 1383 89 1361 111 1383 b 189 1333 167 1383 189 1361 b 139 1283 189 1306 167 1283 m 694 1283 b 644 1333 667 1283 644 1306 b 694 1383 644 1361 667 1383 b 744 1333 722 1383 744 1361 b 694 1283 744 1306 722 1283 m 556 1161 b 522 1194 538 1161 522 1176 b 556 1228 522 1213 538 1228 b 589 1194 574 1228 589 1213 b 556 1161 589 1176 574 1161 m 278 1161 b 244 1194 260 1161 244 1176 b 278 1228 244 1213 260 1228 b 311 1194 296 1228 311 1213 b 278 1161 311 1176 296 1161 m 0 1161 b -33 1194 -17 1161 -33 1176 b 0 1228 -33 1213 -17 1228 b 33 1194 17 1228 33 1213 b 0 1161 33 1176 17 1161 m 694 1006 b 644 1056 667 1006 644 1028 b 694 1106 644 1083 667 1106 b 744 1056 722 1106 744 1083 b 694 1006 744 1028 722 1006 m 417 1006 b 367 1056 389 1006 367 1028 b 417 1106 367 1083 389 1106 b 467 1056 444 1106 467 1083 b 417 1006 467 1028 444 1006 m 139 1006 b 89 1056 111 1006 89 1028 b 139 1106 89 1083 111 1106 b 189 1056 167 1106 189 1083 b 139 1006 189 1028 167 1006 m 556 883 b 522 917 538 883 522 899 b 556 950 522 935 538 950 b 589 917 574 950 589 935 b 556 883 589 899 574 883 m 0 883 b -33 917 -17 883 -33 899 b 0 950 -33 935 -17 950 b 33 917 17 950 33 935 b 0 883 33 899 17 883 m 278 883 b 244 917 260 883 244 899 b 278 950 244 935 260 950 b 311 917 296 950 311 935 b 278 883 311 899 296 883 m 417 728 b 367 778 389 728 367 750 b 417 828 367 806 389 828 b 467 778 444 828 467 806 b 417 728 467 750 444 728 m 139 728 b 89 778 111 728 89 750 b 139 828 89 806 111 828 b 189 778 167 828 189 806 b 139 728 189 750 167 728 m 694 728 b 644 778 667 728 644 750 b 694 828 644 806 667 828 b 744 778 722 828 744 806 b 694 728 744 750 722 728 m 0 606 b -33 639 -17 606 -33 621 b 0 672 -33 657 -17 672 b 33 639 17 672 33 657 b 0 606 33 621 17 606 m 556 606 b 522 639 538 606 522 621 b 556 672 522 657 538 672 b 589 639 574 672 589 657 b 556 606 589 621 574 606 m 278 606 b 244 639 260 606 244 621 b 278 672 244 657 260 672 b 311 639 296 672 311 657 b 278 606 311 621 296 606 m 694 450 b 644 500 667 450 644 472 b 694 550 644 528 667 550 b 744 500 722 550 744 528 b 694 450 744 472 722 450 m 139 450 b 89 500 111 450 89 472 b 139 550 89 528 111 550 b 189 500 167 550 189 528 b 139 450 189 472 167 450 m 417 450 b 367 500 389 450 367 472 b 417 550 367 528 389 550 b 467 500 444 550 467 528 b 417 450 467 472 444 450 m 278 328 b 244 361 260 328 244 343 b 278 394 244 379 260 394 b 311 361 296 394 311 379 b 278 328 311 343 296 328 m 0 328 b -33 361 -17 328 -33 343 b 0 394 -33 379 -17 394 b 33 361 17 394 33 379 b 0 328 33 343 17 328 m 556 328 b 522 361 538 328 522 343 b 556 394 522 379 538 394 b 589 361 574 394 589 379 b 556 328 589 343 574 328 m 417 172 b 367 222 389 172 367 194 b 417 272 367 250 389 272 b 467 222 444 272 467 250 b 417 172 467 194 444 172 m 139 172 b 89 222 111 172 89 194 b 139 272 89 250 111 272 b 189 222 167 272 189 250 b 139 172 189 194 167 172 m 694 172 b 644 222 667 172 644 194 b 694 272 644 250 667 272 b 744 222 722 272 744 250 b 694 172 744 194 722 172 m 556 50 b 522 83 538 50 522 65 b 556 117 522 101 538 117 b 589 83 574 117 589 101 b 556 50 589 65 574 50 m 278 50 b 244 83 260 50 244 65 b 278 117 244 101 260 117 b 311 83 296 117 311 101 b 278 50 311 65 296 50 m 0 50 b -33 83 -17 50 -33 65 b 0 117 -33 101 -17 117 b 33 83 17 117 33 101 b 0 50 33 65 17 50 m 694 -106 b 644 -56 667 -106 644 -83 b 694 -6 644 -28 667 -6 b 744 -56 722 -6 744 -28 b 694 -106 744 -83 722 -106 m 417 -106 b 367 -56 389 -106 367 -83 b 417 -6 367 -28 389 -6 b 467 -56 444 -6 467 -28 b 417 -106 467 -83 444 -106 m 139 -106 b 89 -56 111 -106 89 -83 b 139 -6 89 -28 111 -6 b 189 -56 167 -6 189 -28 b 139 -106 189 -83 167 -106 m 556 -228 b 522 -194 538 -228 522 -212 b 556 -161 522 -176 538 -161 b 589 -194 574 -161 589 -176 b 556 -228 589 -212 574 -228 m 278 -228 b 244 -194 260 -228 244 -212 b 278 -161 244 -176 260 -161 b 311 -194 296 -161 311 -176 b 278 -228 311 -212 296 -228 m 0 -228 b -33 -194 -17 -228 -33 -212 b 0 -161 -33 -176 -17 -161 b 33 -194 17 -161 33 -176 b 0 -228 33 -212 17 -228 m 694 -383 b 644 -333 667 -383 644 -361 b 694 -283 644 -306 667 -283 b 744 -333 722 -283 744 -306 b 694 -383 744 -361 722 -383 m 417 -383 b 367 -333 389 -383 367 -361 b 417 -283 367 -306 389 -283 b 467 -333 444 -283 467 -306 b 417 -383 467 -361 444 -383 m 139 -383 b 89 -333 111 -383 89 -361 b 139 -283 89 -306 111 -283 b 189 -333 167 -283 189 -306 b 139 -383 189 -361 167 -383 m 556 -506 b 522 -472 538 -506 522 -490 b 556 -439 522 -454 538 -439 b 589 -472 574 -439 589 -454 b 556 -506 589 -490 574 -506 m 278 -506 b 244 -472 260 -506 244 -490 b 278 -439 244 -454 260 -439 b 311 -472 296 -439 311 -454 b 278 -506 311 -490 296 -506 m 0 -506 b -33 -472 -17 -506 -33 -490 b 0 -439 -33 -454 -17 -439 b 33 -472 17 -439 33 -454 b 0 -506 33 -490 17 -506 "},"▒":{"ha":833,"x_min":0,"x_max":0,"o":"m 417 1258 b 342 1333 375 1258 342 1292 b 417 1408 342 1375 375 1408 b 492 1333 458 1408 492 1375 b 417 1258 492 1292 458 1258 m 139 1258 b 64 1333 97 1258 64 1292 b 139 1408 64 1375 97 1408 b 214 1333 181 1408 214 1375 b 139 1258 214 1292 181 1258 m 694 1258 b 619 1333 653 1258 619 1292 b 694 1408 619 1375 653 1408 b 769 1333 736 1408 769 1375 b 694 1258 769 1292 736 1258 m 556 1144 b 506 1194 528 1144 506 1167 b 556 1244 506 1222 528 1244 b 606 1194 583 1244 606 1222 b 556 1144 606 1167 583 1144 m 278 1144 b 228 1194 250 1144 228 1167 b 278 1244 228 1222 250 1244 b 328 1194 306 1244 328 1222 b 278 1144 328 1167 306 1144 m 0 1144 b -50 1194 -29 1144 -50 1167 b 0 1244 -50 1222 -29 1244 b 50 1194 29 1244 50 1222 b 0 1144 50 1167 29 1144 m 694 981 b 619 1056 653 981 619 1014 b 694 1131 619 1097 653 1131 b 769 1056 736 1131 769 1097 b 694 981 769 1014 736 981 m 417 981 b 342 1056 375 981 342 1014 b 417 1131 342 1097 375 1131 b 492 1056 458 1131 492 1097 b 417 981 492 1014 458 981 m 139 981 b 64 1056 97 981 64 1014 b 139 1131 64 1097 97 1131 b 214 1056 181 1131 214 1097 b 139 981 214 1014 181 981 m 556 867 b 506 917 528 867 506 889 b 556 967 506 944 528 967 b 606 917 583 967 606 944 b 556 867 606 889 583 867 m 0 867 b -50 917 -29 867 -50 889 b 0 967 -50 944 -29 967 b 50 917 29 967 50 944 b 0 867 50 889 29 867 m 278 867 b 228 917 250 867 228 889 b 278 967 228 944 250 967 b 328 917 306 967 328 944 b 278 867 328 889 306 867 m 417 703 b 342 778 375 703 342 736 b 417 853 342 819 375 853 b 492 778 458 853 492 819 b 417 703 492 736 458 703 m 139 703 b 64 778 97 703 64 736 b 139 853 64 819 97 853 b 214 778 181 853 214 819 b 139 703 214 736 181 703 m 694 703 b 619 778 653 703 619 736 b 694 853 619 819 653 853 b 769 778 736 853 769 819 b 694 703 769 736 736 703 m 0 589 b -50 639 -29 589 -50 611 b 0 689 -50 667 -29 689 b 50 639 29 689 50 667 b 0 589 50 611 29 589 m 556 589 b 506 639 528 589 506 611 b 556 689 506 667 528 689 b 606 639 583 689 606 667 b 556 589 606 611 583 589 m 278 589 b 228 639 250 589 228 611 b 278 689 228 667 250 689 b 328 639 306 689 328 667 b 278 589 328 611 306 589 m 694 425 b 619 500 653 425 619 458 b 694 575 619 542 653 575 b 769 500 736 575 769 542 b 694 425 769 458 736 425 m 139 425 b 64 500 97 425 64 458 b 139 575 64 542 97 575 b 214 500 181 575 214 542 b 139 425 214 458 181 425 m 417 425 b 342 500 375 425 342 458 b 417 575 342 542 375 575 b 492 500 458 575 492 542 b 417 425 492 458 458 425 m 278 311 b 228 361 250 311 228 333 b 278 411 228 389 250 411 b 328 361 306 411 328 389 b 278 311 328 333 306 311 m 0 311 b -50 361 -29 311 -50 333 b 0 411 -50 389 -29 411 b 50 361 29 411 50 389 b 0 311 50 333 29 311 m 556 311 b 506 361 528 311 506 333 b 556 411 506 389 528 411 b 606 361 583 411 606 389 b 556 311 606 333 583 311 m 417 147 b 342 222 375 147 342 181 b 417 297 342 264 375 297 b 492 222 458 297 492 264 b 417 147 492 181 458 147 m 139 147 b 64 222 97 147 64 181 b 139 297 64 264 97 297 b 214 222 181 297 214 264 b 139 147 214 181 181 147 m 694 147 b 619 222 653 147 619 181 b 694 297 619 264 653 297 b 769 222 736 297 769 264 b 694 147 769 181 736 147 m 556 33 b 506 83 528 33 506 56 b 556 133 506 111 528 133 b 606 83 583 133 606 111 b 556 33 606 56 583 33 m 278 33 b 228 83 250 33 228 56 b 278 133 228 111 250 133 b 328 83 306 133 328 111 b 278 33 328 56 306 33 m 0 33 b -50 83 -29 33 -50 56 b 0 133 -50 111 -29 133 b 50 83 29 133 50 111 b 0 33 50 56 29 33 m 694 -131 b 619 -56 653 -131 619 -97 b 694 19 619 -14 653 19 b 769 -56 736 19 769 -14 b 694 -131 769 -97 736 -131 m 417 -131 b 342 -56 375 -131 342 -97 b 417 19 342 -14 375 19 b 492 -56 458 19 492 -14 b 417 -131 492 -97 458 -131 m 139 -131 b 64 -56 97 -131 64 -97 b 139 19 64 -14 97 19 b 214 -56 181 19 214 -14 b 139 -131 214 -97 181 -131 m 556 -244 b 506 -194 528 -244 506 -222 b 556 -144 506 -167 528 -144 b 606 -194 583 -144 606 -167 b 556 -244 606 -222 583 -244 m 278 -244 b 228 -194 250 -244 228 -222 b 278 -144 228 -167 250 -144 b 328 -194 306 -144 328 -167 b 278 -244 328 -222 306 -244 m 0 -244 b -50 -194 -29 -244 -50 -222 b 0 -144 -50 -167 -29 -144 b 50 -194 29 -144 50 -167 b 0 -244 50 -222 29 -244 m 694 -408 b 619 -333 653 -408 619 -375 b 694 -258 619 -292 653 -258 b 769 -333 736 -258 769 -292 b 694 -408 769 -375 736 -408 m 417 -408 b 342 -333 375 -408 342 -375 b 417 -258 342 -292 375 -258 b 492 -333 458 -258 492 -292 b 417 -408 492 -375 458 -408 m 139 -408 b 64 -333 97 -408 64 -375 b 139 -258 64 -292 97 -258 b 214 -333 181 -258 214 -292 b 139 -408 214 -375 181 -408 m 556 -522 b 506 -472 528 -522 506 -500 b 556 -422 506 -444 528 -422 b 606 -472 583 -422 606 -444 b 556 -522 606 -500 583 -522 m 278 -522 b 228 -472 250 -522 228 -500 b 278 -422 228 -444 250 -422 b 328 -472 306 -422 328 -444 b 278 -522 328 -500 306 -522 m 0 -522 b -50 -472 -29 -522 -50 -500 b 0 -422 -50 -444 -29 -422 b 50 -472 29 -422 50 -444 b 0 -522 50 -500 29 -522 "},"▓":{"ha":833,"x_min":0,"x_max":0,"o":"m 417 1221 b 304 1333 354 1221 304 1271 b 417 1446 304 1396 354 1446 b 529 1333 479 1446 529 1396 b 417 1221 529 1271 479 1221 m 139 1221 b 26 1333 76 1221 26 1271 b 139 1446 26 1396 76 1446 b 251 1333 201 1446 251 1396 b 139 1221 251 1271 201 1221 m 694 1221 b 582 1333 632 1221 582 1271 b 694 1446 582 1396 632 1446 b 807 1333 757 1446 807 1396 b 694 1221 807 1271 757 1221 m 556 1119 b 481 1194 514 1119 481 1153 b 556 1269 481 1236 514 1269 b 631 1194 597 1269 631 1236 b 556 1119 631 1153 597 1119 m 278 1119 b 203 1194 236 1119 203 1153 b 278 1269 203 1236 236 1269 b 353 1194 319 1269 353 1236 b 278 1119 353 1153 319 1119 m 0 1119 b -75 1194 -43 1119 -75 1153 b 0 1269 -75 1236 -43 1269 b 75 1194 43 1269 75 1236 b 0 1119 75 1153 43 1119 m 694 943 b 582 1056 632 943 582 993 b 694 1168 582 1118 632 1168 b 807 1056 757 1168 807 1118 b 694 943 807 993 757 943 m 417 943 b 304 1056 354 943 304 993 b 417 1168 304 1118 354 1168 b 529 1056 479 1168 529 1118 b 417 943 529 993 479 943 m 139 943 b 26 1056 76 943 26 993 b 139 1168 26 1118 76 1168 b 251 1056 201 1168 251 1118 b 139 943 251 993 201 943 m 556 842 b 481 917 514 842 481 875 b 556 992 481 958 514 992 b 631 917 597 992 631 958 b 556 842 631 875 597 842 m 0 842 b -75 917 -43 842 -75 875 b 0 992 -75 958 -43 992 b 75 917 43 992 75 958 b 0 842 75 875 43 842 m 278 842 b 203 917 236 842 203 875 b 278 992 203 958 236 992 b 353 917 319 992 353 958 b 278 842 353 875 319 842 m 417 665 b 304 778 354 665 304 715 b 417 890 304 840 354 890 b 529 778 479 890 529 840 b 417 665 529 715 479 665 m 139 665 b 26 778 76 665 26 715 b 139 890 26 840 76 890 b 251 778 201 890 251 840 b 139 665 251 715 201 665 m 694 665 b 582 778 632 665 582 715 b 694 890 582 840 632 890 b 807 778 757 890 807 840 b 694 665 807 715 757 665 m 0 564 b -75 639 -43 564 -75 597 b 0 714 -75 681 -43 714 b 75 639 43 714 75 681 b 0 564 75 597 43 564 m 556 564 b 481 639 514 564 481 597 b 556 714 481 681 514 714 b 631 639 597 714 631 681 b 556 564 631 597 597 564 m 278 564 b 203 639 236 564 203 597 b 278 714 203 681 236 714 b 353 639 319 714 353 681 b 278 564 353 597 319 564 m 694 388 b 582 500 632 388 582 438 b 694 613 582 563 632 613 b 807 500 757 613 807 563 b 694 388 807 438 757 388 m 139 388 b 26 500 76 388 26 438 b 139 613 26 563 76 613 b 251 500 201 613 251 563 b 139 388 251 438 201 388 m 417 388 b 304 500 354 388 304 438 b 417 613 304 563 354 613 b 529 500 479 613 529 563 b 417 388 529 438 479 388 m 278 286 b 203 361 236 286 203 319 b 278 436 203 403 236 436 b 353 361 319 436 353 403 b 278 286 353 319 319 286 m 0 286 b -75 361 -43 286 -75 319 b 0 436 -75 403 -43 436 b 75 361 43 436 75 403 b 0 286 75 319 43 286 m 556 286 b 481 361 514 286 481 319 b 556 436 481 403 514 436 b 631 361 597 436 631 403 b 556 286 631 319 597 286 m 417 110 b 304 222 354 110 304 160 b 417 335 304 285 354 335 b 529 222 479 335 529 285 b 417 110 529 160 479 110 m 139 110 b 26 222 76 110 26 160 b 139 335 26 285 76 335 b 251 222 201 335 251 285 b 139 110 251 160 201 110 m 694 110 b 582 222 632 110 582 160 b 694 335 582 285 632 335 b 807 222 757 335 807 285 b 694 110 807 160 757 110 m 556 8 b 481 83 514 8 481 42 b 556 158 481 125 514 158 b 631 83 597 158 631 125 b 556 8 631 42 597 8 m 278 8 b 203 83 236 8 203 42 b 278 158 203 125 236 158 b 353 83 319 158 353 125 b 278 8 353 42 319 8 m 0 8 b -75 83 -43 8 -75 42 b 0 158 -75 125 -43 158 b 75 83 43 158 75 125 b 0 8 75 42 43 8 m 694 -168 b 582 -56 632 -168 582 -118 b 694 57 582 7 632 57 b 807 -56 757 57 807 7 b 694 -168 807 -118 757 -168 m 417 -168 b 304 -56 354 -168 304 -118 b 417 57 304 7 354 57 b 529 -56 479 57 529 7 b 417 -168 529 -118 479 -168 m 139 -168 b 26 -56 76 -168 26 -118 b 139 57 26 7 76 57 b 251 -56 201 57 251 7 b 139 -168 251 -118 201 -168 m 556 -269 b 481 -194 514 -269 481 -236 b 556 -119 481 -153 514 -119 b 631 -194 597 -119 631 -153 b 556 -269 631 -236 597 -269 m 278 -269 b 203 -194 236 -269 203 -236 b 278 -119 203 -153 236 -119 b 353 -194 319 -119 353 -153 b 278 -269 353 -236 319 -269 m 0 -269 b -75 -194 -43 -269 -75 -236 b 0 -119 -75 -153 -43 -119 b 75 -194 43 -119 75 -153 b 0 -269 75 -236 43 -269 m 694 -446 b 582 -333 632 -446 582 -396 b 694 -221 582 -271 632 -221 b 807 -333 757 -221 807 -271 b 694 -446 807 -396 757 -446 m 417 -446 b 304 -333 354 -446 304 -396 b 417 -221 304 -271 354 -221 b 529 -333 479 -221 529 -271 b 417 -446 529 -396 479 -446 m 139 -446 b 26 -333 76 -446 26 -396 b 139 -221 26 -271 76 -221 b 251 -333 201 -221 251 -271 b 139 -446 251 -396 201 -446 m 556 -547 b 481 -472 514 -547 481 -514 b 556 -397 481 -431 514 -397 b 631 -472 597 -397 631 -431 b 556 -547 631 -514 597 -547 m 278 -547 b 203 -472 236 -547 203 -514 b 278 -397 203 -431 236 -397 b 353 -472 319 -397 353 -431 b 278 -547 353 -514 319 -547 m 0 -547 b -75 -472 -43 -547 -75 -514 b 0 -397 -75 -431 -43 -397 b 75 -472 43 -397 75 -431 b 0 -547 75 -514 43 -547 "},"●":{"ha":833,"x_min":0,"x_max":0,"o":"m 418 110 b 22 494 194 110 22 271 b 418 882 22 721 194 882 b 813 494 640 882 813 721 b 418 110 813 271 640 110 "},"○":{"ha":833,"x_min":0,"x_max":0,"o":"m 418 110 b 22 494 194 110 22 272 b 418 882 22 719 194 882 b 813 494 640 882 813 719 b 418 110 813 272 640 110 m 418 226 b 692 494 572 226 692 338 b 418 765 692 654 572 765 b 143 494 263 765 143 654 b 418 226 143 338 263 226 "},"◌":{"ha":833,"x_min":0,"x_max":0,"o":"m 325 894 b 415 904 354 900 383 903 l 417 819 b 340 813 390 819 365 817 m 544 797 b 472 815 522 806 496 811 l 485 899 b 574 874 517 894 544 886 l 544 797 m 176 832 b 260 874 203 850 229 863 l 289 796 b 222 763 265 788 244 776 m 651 729 b 593 774 635 746 615 761 l 636 846 b 711 789 663 829 688 811 l 651 729 m 64 717 b 124 789 82 744 100 767 l 181 728 b 135 672 164 711 147 692 m 724 622 b 686 688 713 646 701 667 l 756 736 b 799 654 772 713 788 685 l 724 622 m 8 565 b 33 654 14 597 21 626 l 111 624 b 92 553 101 601 96 576 m 746 497 b 738 572 746 522 743 547 l 819 589 b 829 497 826 558 829 529 l 746 497 m 13 406 b 3 497 6 435 3 464 l 86 497 b 94 422 86 471 89 447 l 13 406 m 722 371 b 742 442 731 392 738 418 l 824 429 b 799 339 818 397 811 368 m 79 257 b 33 340 60 283 46 310 l 110 372 b 146 307 121 347 132 326 l 79 257 m 650 267 b 697 322 668 283 685 303 l 768 278 b 708 204 751 251 731 226 m 199 149 b 124 207 171 165 146 185 l 182 265 b 242 222 199 250 221 233 l 199 149 m 542 197 b 608 232 567 208 588 218 l 654 163 b 572 121 628 144 601 132 m 349 97 b 260 119 318 101 289 110 l 290 197 b 361 181 311 190 338 183 l 349 97 m 414 176 b 490 182 440 176 467 178 l 506 101 b 414 92 478 96 446 92 "},"◊":{"ha":833,"x_min":0,"x_max":0,"o":"m 99 447 l 333 894 l 499 894 l 733 447 l 499 0 l 333 0 m 417 103 l 597 447 l 417 792 l 235 447 "},"▲":{"ha":833,"x_min":0,"x_max":0,"o":"m 415 701 l 821 0 l 11 0 "},"▶":{"ha":833,"x_min":0,"x_max":0,"o":"m 626 497 l -75 92 l -75 901 "},"▼":{"ha":833,"x_min":0,"x_max":0,"o":"m 821 986 l 415 285 l 11 986 "},"◀":{"ha":833,"x_min":0,"x_max":0,"o":"m 908 92 l 207 497 l 908 901 "},"△":{"ha":833,"x_min":0,"x_max":0,"o":"m 415 838 l 821 136 l 11 136 m 625 250 l 415 614 l 207 250 "},"▷":{"ha":833,"x_min":0,"x_max":0,"o":"m 763 497 l 61 92 l 61 901 m 175 288 l 539 497 l 175 706 "},"▽":{"ha":833,"x_min":0,"x_max":0,"o":"m 821 861 l 415 160 l 11 861 m 415 383 l 625 747 l 207 747 "},"◁":{"ha":833,"x_min":0,"x_max":0,"o":"m 772 92 l 71 497 l 772 901 m 294 497 l 658 288 l 658 706 "},"╦":{"ha":833,"x_min":0,"x_max":0,"o":"m -7 625 l 840 625 l 840 496 l -7 496 m 482 365 l 840 365 l 840 236 l 611 236 l 611 -479 l 482 -479 m 222 236 l -7 236 l -7 365 l 351 365 l 351 -479 l 222 -479 "},"╗":{"ha":833,"x_min":0,"x_max":0,"o":"m 482 496 l -7 496 l -7 625 l 611 625 l 611 -479 l 482 -479 m 222 236 l -7 236 l -7 365 l 351 365 l 351 -479 l 222 -479 "},"╔":{"ha":833,"x_min":0,"x_max":0,"o":"m 222 625 l 840 625 l 840 496 l 351 496 l 351 -479 l 222 -479 m 482 365 l 840 365 l 840 236 l 611 236 l 611 -479 l 482 -479 "},"═":{"ha":833,"x_min":0,"x_max":0,"o":"m -7 625 l 840 625 l 840 496 l -7 496 m -7 365 l 840 365 l 840 236 l -7 236 "},"╩":{"ha":833,"x_min":0,"x_max":0,"o":"m 482 1340 l 611 1340 l 611 625 l 840 625 l 840 496 l 482 496 m -7 625 l 222 625 l 222 1340 l 351 1340 l 351 496 l -7 496 m -7 365 l 840 365 l 840 236 l -7 236 "},"╝":{"ha":833,"x_min":0,"x_max":0,"o":"m -7 365 l 482 365 l 482 1340 l 611 1340 l 611 236 l -7 236 m -7 625 l 222 625 l 222 1340 l 351 1340 l 351 496 l -7 496 "},"╚":{"ha":833,"x_min":0,"x_max":0,"o":"m 222 1340 l 351 1340 l 351 365 l 840 365 l 840 236 l 222 236 m 482 1340 l 611 1340 l 611 625 l 840 625 l 840 496 l 482 496 "},"║":{"ha":833,"x_min":0,"x_max":0,"o":"m 482 1340 l 611 1340 l 611 -479 l 482 -479 m 222 1340 l 351 1340 l 351 -479 l 222 -479 "},"╬":{"ha":833,"x_min":0,"x_max":0,"o":"m 482 1340 l 611 1340 l 611 625 l 840 625 l 840 496 l 482 496 m -7 625 l 222 625 l 222 1340 l 351 1340 l 351 496 l -7 496 m 222 236 l -7 236 l -7 365 l 351 365 l 351 -479 l 222 -479 m 482 365 l 840 365 l 840 236 l 611 236 l 611 -479 l 482 -479 "},"╣":{"ha":833,"x_min":0,"x_max":0,"o":"m -7 625 l 222 625 l 222 1340 l 351 1340 l 351 496 l -7 496 m 482 1340 l 611 1340 l 611 -479 l 482 -479 m 222 236 l -7 236 l -7 365 l 351 365 l 351 -479 l 222 -479 "},"╠":{"ha":833,"x_min":0,"x_max":0,"o":"m 482 1340 l 611 1340 l 611 625 l 840 625 l 840 496 l 482 496 m 222 1340 l 351 1340 l 351 -479 l 222 -479 m 482 365 l 840 365 l 840 236 l 611 236 l 611 -479 l 482 -479 "},"╥":{"ha":833,"x_min":0,"x_max":0,"o":"m 222 365 l -7 365 l -7 496 l 840 496 l 840 365 l 611 365 l 611 -479 l 482 -479 l 482 365 l 351 365 l 351 -479 l 222 -479 "},"╖":{"ha":833,"x_min":0,"x_max":0,"o":"m 222 365 l -7 365 l -7 496 l 611 496 l 611 -479 l 482 -479 l 482 365 l 351 365 l 351 -479 l 222 -479 "},"╓":{"ha":833,"x_min":0,"x_max":0,"o":"m 222 496 l 840 496 l 840 365 l 611 365 l 611 -479 l 482 -479 l 482 365 l 351 365 l 351 -479 l 222 -479 "},"┰":{"ha":833,"x_min":0,"x_max":0,"o":"m 286 365 l -7 365 l -7 496 l 840 496 l 840 365 l 547 365 l 547 -479 l 286 -479 "},"┒":{"ha":833,"x_min":0,"x_max":0,"o":"m 286 365 l -7 365 l -7 496 l 547 496 l 547 -479 l 286 -479 "},"┧":{"ha":833,"x_min":0,"x_max":0,"o":"m 286 365 l -7 365 l -7 496 l 351 496 l 351 1340 l 482 1340 l 482 496 l 547 496 l 547 -479 l 286 -479 "},"┎":{"ha":833,"x_min":0,"x_max":0,"o":"m 286 496 l 840 496 l 840 365 l 547 365 l 547 -479 l 286 -479 "},"┟":{"ha":833,"x_min":0,"x_max":0,"o":"m 286 496 l 351 496 l 351 1340 l 482 1340 l 482 496 l 840 496 l 840 365 l 547 365 l 547 -479 l 286 -479 "},"╁":{"ha":833,"x_min":0,"x_max":0,"o":"m 286 365 l -7 365 l -7 496 l 351 496 l 351 1340 l 482 1340 l 482 496 l 840 496 l 840 365 l 547 365 l 547 -479 l 286 -479 "},"┯":{"ha":833,"x_min":0,"x_max":0,"o":"m 351 300 l -7 300 l -7 561 l 840 561 l 840 300 l 482 300 l 482 -479 l 351 -479 "},"┑":{"ha":833,"x_min":0,"x_max":0,"o":"m 351 300 l -7 300 l -7 561 l 482 561 l 482 -479 l 351 -479 "},"┩":{"ha":833,"x_min":0,"x_max":0,"o":"m 351 300 l -7 300 l -7 561 l 286 561 l 286 1340 l 547 1340 l 547 300 l 482 300 l 482 -479 l 351 -479 "},"┍":{"ha":833,"x_min":0,"x_max":0,"o":"m 351 561 l 840 561 l 840 300 l 482 300 l 482 -479 l 351 -479 "},"┡":{"ha":833,"x_min":0,"x_max":0,"o":"m 351 300 l 286 300 l 286 1340 l 547 1340 l 547 561 l 840 561 l 840 300 l 482 300 l 482 -479 l 351 -479 "},"╇":{"ha":833,"x_min":0,"x_max":0,"o":"m 351 300 l -7 300 l -7 561 l 286 561 l 286 1340 l 547 1340 l 547 561 l 840 561 l 840 300 l 482 300 l 482 -479 l 351 -479 "},"╤":{"ha":833,"x_min":0,"x_max":0,"o":"m -7 625 l 840 625 l 840 496 l -7 496 m 351 236 l -7 236 l -7 365 l 840 365 l 840 236 l 482 236 l 482 -479 l 351 -479 "},"╕":{"ha":833,"x_min":0,"x_max":0,"o":"m 351 236 l -7 236 l -7 365 l 351 365 l 351 496 l -7 496 l -7 625 l 482 625 l 482 -479 l 351 -479 "},"╒":{"ha":833,"x_min":0,"x_max":0,"o":"m 351 625 l 840 625 l 840 496 l 482 496 l 482 365 l 840 365 l 840 236 l 482 236 l 482 -479 l 351 -479 "},"╍":{"ha":833,"x_min":0,"x_max":0,"o":"m 521 561 l 729 561 l 729 300 l 521 300 m 104 561 l 313 561 l 313 300 l 104 300 "},"╏":{"ha":833,"x_min":0,"x_max":0,"o":"m 286 1056 l 547 1056 l 547 639 l 286 639 m 286 222 l 547 222 l 547 -194 l 286 -194 "},"╻":{"ha":833,"x_min":0,"x_max":0,"o":"m 286 496 l 547 496 l 547 -479 l 286 -479 "},"┳":{"ha":833,"x_min":0,"x_max":0,"o":"m 286 300 l -7 300 l -7 561 l 840 561 l 840 300 l 547 300 l 547 -479 l 286 -479 "},"┓":{"ha":833,"x_min":0,"x_max":0,"o":"m 286 300 l -7 300 l -7 561 l 547 561 l 547 -479 l 286 -479 "},"┏":{"ha":833,"x_min":0,"x_max":0,"o":"m 286 561 l 840 561 l 840 300 l 547 300 l 547 -479 l 286 -479 "},"━":{"ha":833,"x_min":0,"x_max":0,"o":"m -7 561 l 840 561 l 840 300 l -7 300 "},"╸":{"ha":833,"x_min":0,"x_max":0,"o":"m -7 561 l 482 561 l 482 300 l -7 300 "},"╾":{"ha":833,"x_min":0,"x_max":0,"o":"m -7 561 l 482 561 l 482 496 l 840 496 l 840 365 l 482 365 l 482 300 l -7 300 "},"┉":{"ha":833,"x_min":0,"x_max":0,"o":"m 651 561 l 807 561 l 807 300 l 651 300 m 26 561 l 182 561 l 182 300 l 26 300 m 235 561 l 390 561 l 390 300 l 235 300 m 443 561 l 599 561 l 599 300 l 443 300 "},"┋":{"ha":833,"x_min":0,"x_max":0,"o":"m 286 1213 l 547 1213 l 547 900 l 286 900 m 286 796 l 547 796 l 547 483 l 286 483 m 286 379 l 547 379 l 547 67 l 286 67 m 286 -37 l 547 -37 l 547 -350 l 286 -350 "},"╺":{"ha":833,"x_min":0,"x_max":0,"o":"m 351 561 l 840 561 l 840 300 l 351 300 "},"┅":{"ha":833,"x_min":0,"x_max":0,"o":"m 601 561 l 788 561 l 788 300 l 601 300 m 46 561 l 232 561 l 232 300 l 46 300 m 324 561 l 510 561 l 510 300 l 324 300 "},"┇":{"ha":833,"x_min":0,"x_max":0,"o":"m 286 1171 l 547 1171 l 547 801 l 286 801 m 286 615 l 547 615 l 547 246 l 286 246 m 286 60 l 547 60 l 547 -310 l 286 -310 "},"╹":{"ha":833,"x_min":0,"x_max":0,"o":"m 286 1340 l 547 1340 l 547 365 l 286 365 "},"┻":{"ha":833,"x_min":0,"x_max":0,"o":"m -7 561 l 286 561 l 286 1340 l 547 1340 l 547 561 l 840 561 l 840 300 l -7 300 "},"┛":{"ha":833,"x_min":0,"x_max":0,"o":"m -7 561 l 286 561 l 286 1340 l 547 1340 l 547 300 l -7 300 "},"╿":{"ha":833,"x_min":0,"x_max":0,"o":"m 351 365 l 286 365 l 286 1340 l 547 1340 l 547 365 l 482 365 l 482 -479 l 351 -479 "},"┗":{"ha":833,"x_min":0,"x_max":0,"o":"m 286 1340 l 547 1340 l 547 561 l 840 561 l 840 300 l 286 300 "},"┃":{"ha":833,"x_min":0,"x_max":0,"o":"m 286 1340 l 547 1340 l 547 -479 l 286 -479 "},"╋":{"ha":833,"x_min":0,"x_max":0,"o":"m 286 300 l -7 300 l -7 561 l 286 561 l 286 1340 l 547 1340 l 547 561 l 840 561 l 840 300 l 547 300 l 547 -479 l 286 -479 "},"┫":{"ha":833,"x_min":0,"x_max":0,"o":"m 286 300 l -7 300 l -7 561 l 286 561 l 286 1340 l 547 1340 l 547 -479 l 286 -479 "},"┣":{"ha":833,"x_min":0,"x_max":0,"o":"m 286 1340 l 547 1340 l 547 561 l 840 561 l 840 300 l 547 300 l 547 -479 l 286 -479 "},"╅":{"ha":833,"x_min":0,"x_max":0,"o":"m 286 300 l -7 300 l -7 561 l 351 561 l 351 1340 l 482 1340 l 482 561 l 547 561 l 547 496 l 840 496 l 840 365 l 547 365 l 547 -479 l 286 -479 "},"┭":{"ha":833,"x_min":0,"x_max":0,"o":"m 351 300 l -7 300 l -7 561 l 482 561 l 482 496 l 840 496 l 840 365 l 482 365 l 482 -479 l 351 -479 "},"┵":{"ha":833,"x_min":0,"x_max":0,"o":"m -7 561 l 351 561 l 351 1340 l 482 1340 l 482 496 l 840 496 l 840 365 l 482 365 l 482 300 l -7 300 "},"┽":{"ha":833,"x_min":0,"x_max":0,"o":"m 351 300 l -7 300 l -7 561 l 351 561 l 351 1340 l 482 1340 l 482 496 l 840 496 l 840 365 l 482 365 l 482 -479 l 351 -479 "},"┲":{"ha":833,"x_min":0,"x_max":0,"o":"m 286 365 l -7 365 l -7 496 l 286 496 l 286 561 l 840 561 l 840 300 l 547 300 l 547 -479 l 286 -479 "},"┺":{"ha":833,"x_min":0,"x_max":0,"o":"m 286 365 l -7 365 l -7 496 l 286 496 l 286 1340 l 547 1340 l 547 561 l 840 561 l 840 300 l 286 300 "},"╊":{"ha":833,"x_min":0,"x_max":0,"o":"m 286 365 l -7 365 l -7 496 l 286 496 l 286 1340 l 547 1340 l 547 561 l 840 561 l 840 300 l 547 300 l 547 -479 l 286 -479 "},"╃":{"ha":833,"x_min":0,"x_max":0,"o":"m 351 300 l -7 300 l -7 561 l 286 561 l 286 1340 l 547 1340 l 547 496 l 840 496 l 840 365 l 547 365 l 547 300 l 482 300 l 482 -479 l 351 -479 "},"╮":{"ha":833,"x_min":0,"x_max":0,"o":"m 351 33 b 19 365 351 217 203 365 l -7 365 l -7 496 l 19 496 b 482 33 275 496 482 289 l 482 -479 l 351 -479 "},"╭":{"ha":833,"x_min":0,"x_max":0,"o":"m 351 33 b 814 496 351 289 558 496 l 840 496 l 840 365 l 814 365 b 482 33 631 365 482 217 l 482 -479 l 351 -479 "},"╯":{"ha":833,"x_min":0,"x_max":0,"o":"m -7 496 l 19 496 b 351 828 203 496 351 644 l 351 1340 l 482 1340 l 482 828 b 19 365 482 572 275 365 l -7 365 "},"╰":{"ha":833,"x_min":0,"x_max":0,"o":"m 814 365 b 351 828 558 365 351 572 l 351 1340 l 482 1340 l 482 828 b 814 496 482 644 631 496 l 840 496 l 840 365 l 814 365 "},"╳":{"ha":833,"x_min":0,"x_max":0,"o":"m 0 -257 l 344 431 l 0 1118 l 0 1264 l 72 1264 l 417 576 l 761 1264 l 833 1264 l 833 1118 l 489 431 l 833 -257 l 833 -403 l 761 -403 l 417 285 l 72 -403 l 0 -403 "},"╲":{"ha":833,"x_min":0,"x_max":0,"o":"m 0 1118 l 0 1264 l 72 1264 l 833 -257 l 833 -403 l 761 -403 "},"╱":{"ha":833,"x_min":0,"x_max":0,"o":"m 0 -257 l 761 1264 l 833 1264 l 833 1118 l 72 -403 l 0 -403 "},"╌":{"ha":833,"x_min":0,"x_max":0,"o":"m 521 496 l 729 496 l 729 365 l 521 365 m 104 496 l 313 496 l 313 365 l 104 365 "},"╎":{"ha":833,"x_min":0,"x_max":0,"o":"m 351 1056 l 482 1056 l 482 639 l 351 639 m 351 222 l 482 222 l 482 -194 l 351 -194 "},"╷":{"ha":833,"x_min":0,"x_max":0,"o":"m 351 496 l 482 496 l 482 -479 l 351 -479 "},"┬":{"ha":833,"x_min":0,"x_max":0,"o":"m 351 365 l -7 365 l -7 496 l 840 496 l 840 365 l 482 365 l 482 -479 l 351 -479 "},"┐":{"ha":833,"x_min":0,"x_max":0,"o":"m 351 365 l -7 365 l -7 496 l 482 496 l 482 -479 l 351 -479 "},"┌":{"ha":833,"x_min":0,"x_max":0,"o":"m 351 496 l 840 496 l 840 365 l 482 365 l 482 -479 l 351 -479 "},"─":{"ha":833,"x_min":0,"x_max":0,"o":"m -7 496 l 840 496 l 840 365 l -7 365 "},"╴":{"ha":833,"x_min":0,"x_max":0,"o":"m -7 496 l 482 496 l 482 365 l -7 365 "},"╼":{"ha":833,"x_min":0,"x_max":0,"o":"m 351 365 l -7 365 l -7 496 l 351 496 l 351 561 l 840 561 l 840 300 l 351 300 "},"┈":{"ha":833,"x_min":0,"x_max":0,"o":"m 651 496 l 807 496 l 807 365 l 651 365 m 26 496 l 182 496 l 182 365 l 26 365 m 235 496 l 390 496 l 390 365 l 235 365 m 443 496 l 599 496 l 599 365 l 443 365 "},"┊":{"ha":833,"x_min":0,"x_max":0,"o":"m 351 1213 l 482 1213 l 482 900 l 351 900 m 351 796 l 482 796 l 482 483 l 351 483 m 351 379 l 482 379 l 482 67 l 351 67 m 351 -37 l 482 -37 l 482 -350 l 351 -350 "},"╶":{"ha":833,"x_min":0,"x_max":0,"o":"m 351 496 l 840 496 l 840 365 l 351 365 "},"┄":{"ha":833,"x_min":0,"x_max":0,"o":"m 601 496 l 788 496 l 788 365 l 601 365 m 46 496 l 232 496 l 232 365 l 46 365 m 324 496 l 510 496 l 510 365 l 324 365 "},"┆":{"ha":833,"x_min":0,"x_max":0,"o":"m 351 1171 l 482 1171 l 482 801 l 351 801 m 351 615 l 482 615 l 482 246 l 351 246 m 351 60 l 482 60 l 482 -310 l 351 -310 "},"╵":{"ha":833,"x_min":0,"x_max":0,"o":"m 351 1340 l 482 1340 l 482 365 l 351 365 "},"╽":{"ha":833,"x_min":0,"x_max":0,"o":"m 286 496 l 351 496 l 351 1340 l 482 1340 l 482 496 l 547 496 l 547 -479 l 286 -479 "},"┴":{"ha":833,"x_min":0,"x_max":0,"o":"m -7 496 l 351 496 l 351 1340 l 482 1340 l 482 496 l 840 496 l 840 365 l -7 365 "},"┘":{"ha":833,"x_min":0,"x_max":0,"o":"m -7 496 l 351 496 l 351 1340 l 482 1340 l 482 365 l -7 365 "},"└":{"ha":833,"x_min":0,"x_max":0,"o":"m 351 1340 l 482 1340 l 482 496 l 840 496 l 840 365 l 351 365 "},"│":{"ha":833,"x_min":0,"x_max":0,"o":"m 351 1340 l 482 1340 l 482 -479 l 351 -479 "},"┼":{"ha":833,"x_min":0,"x_max":0,"o":"m 351 365 l -7 365 l -7 496 l 351 496 l 351 1340 l 482 1340 l 482 496 l 840 496 l 840 365 l 482 365 l 482 -479 l 351 -479 "},"┤":{"ha":833,"x_min":0,"x_max":0,"o":"m 351 365 l -7 365 l -7 496 l 351 496 l 351 1340 l 482 1340 l 482 -479 l 351 -479 "},"├":{"ha":833,"x_min":0,"x_max":0,"o":"m 351 1340 l 482 1340 l 482 496 l 840 496 l 840 365 l 482 365 l 482 -479 l 351 -479 "},"╆":{"ha":833,"x_min":0,"x_max":0,"o":"m 286 365 l -7 365 l -7 496 l 286 496 l 286 561 l 351 561 l 351 1340 l 482 1340 l 482 561 l 840 561 l 840 300 l 547 300 l 547 -479 l 286 -479 "},"┮":{"ha":833,"x_min":0,"x_max":0,"o":"m 351 365 l -7 365 l -7 496 l 351 496 l 351 561 l 840 561 l 840 300 l 482 300 l 482 -479 l 351 -479 "},"┶":{"ha":833,"x_min":0,"x_max":0,"o":"m 351 365 l -7 365 l -7 496 l 351 496 l 351 1340 l 482 1340 l 482 561 l 840 561 l 840 300 l 351 300 "},"┾":{"ha":833,"x_min":0,"x_max":0,"o":"m 351 365 l -7 365 l -7 496 l 351 496 l 351 1340 l 482 1340 l 482 561 l 840 561 l 840 300 l 482 300 l 482 -479 l 351 -479 "},"┱":{"ha":833,"x_min":0,"x_max":0,"o":"m 286 300 l -7 300 l -7 561 l 547 561 l 547 496 l 840 496 l 840 365 l 547 365 l 547 -479 l 286 -479 "}}}
